<svg width="324" height="237" viewBox="0 0 324 237" fill="none" xmlns="http://www.w3.org/2000/svg">
<path d="M140.58 109L146.652 94.108H138.96V91.72H149.352V94.108L143.292 109H140.58ZM157.367 109.36C156.479 109.36 155.651 109.18 154.883 108.82C154.123 108.452 153.471 107.948 152.927 107.308C152.383 106.66 151.995 105.916 151.763 105.076L154.175 104.428C154.311 104.94 154.543 105.384 154.871 105.76C155.207 106.136 155.599 106.428 156.047 106.636C156.495 106.836 156.959 106.936 157.439 106.936C158.071 106.936 158.643 106.784 159.155 106.48C159.675 106.176 160.083 105.768 160.379 105.256C160.683 104.744 160.835 104.18 160.835 103.564C160.835 102.932 160.679 102.36 160.367 101.848C160.063 101.336 159.651 100.932 159.131 100.636C158.619 100.332 158.055 100.18 157.439 100.18C156.735 100.18 156.139 100.32 155.651 100.6C155.163 100.88 154.783 101.204 154.511 101.572L152.326 100.804L152.855 91.72H162.179V94.084H154.139L155.159 93.136L154.739 99.94L154.247 99.304C154.703 98.848 155.247 98.5 155.879 98.26C156.511 98.02 157.139 97.9 157.763 97.9C158.835 97.9 159.791 98.148 160.631 98.644C161.479 99.14 162.147 99.816 162.635 100.672C163.123 101.52 163.367 102.484 163.367 103.564C163.367 104.636 163.091 105.612 162.539 106.492C161.987 107.364 161.255 108.06 160.343 108.58C159.431 109.1 158.439 109.36 157.367 109.36ZM168.395 109L166.715 107.32L182.327 91.72L184.007 93.412L168.395 109ZM180.407 109.36C179.615 109.36 178.891 109.168 178.235 108.784C177.587 108.392 177.067 107.872 176.675 107.224C176.283 106.568 176.087 105.84 176.087 105.04C176.087 104.256 176.287 103.536 176.687 102.88C177.087 102.224 177.615 101.7 178.271 101.308C178.927 100.916 179.639 100.72 180.407 100.72C181.199 100.72 181.923 100.916 182.579 101.308C183.235 101.692 183.755 102.212 184.139 102.868C184.531 103.516 184.727 104.24 184.727 105.04C184.727 105.84 184.531 106.568 184.139 107.224C183.755 107.872 183.235 108.392 182.579 108.784C181.923 109.168 181.199 109.36 180.407 109.36ZM180.407 107.188C180.799 107.188 181.155 107.092 181.475 106.9C181.803 106.7 182.063 106.436 182.255 106.108C182.455 105.78 182.555 105.424 182.555 105.04C182.555 104.656 182.455 104.3 182.255 103.972C182.063 103.644 181.803 103.384 181.475 103.192C181.155 102.992 180.799 102.892 180.407 102.892C180.023 102.892 179.667 102.992 179.339 103.192C179.019 103.384 178.759 103.644 178.559 103.972C178.367 104.3 178.271 104.656 178.271 105.04C178.271 105.424 178.367 105.78 178.559 106.108C178.759 106.436 179.019 106.7 179.339 106.9C179.667 107.092 180.023 107.188 180.407 107.188ZM170.315 100C169.523 100 168.799 99.808 168.143 99.424C167.487 99.032 166.963 98.512 166.571 97.864C166.187 97.208 165.995 96.48 165.995 95.68C165.995 94.896 166.195 94.176 166.595 93.52C166.995 92.864 167.523 92.34 168.179 91.948C168.835 91.556 169.547 91.36 170.315 91.36C171.107 91.36 171.827 91.556 172.475 91.948C173.131 92.332 173.655 92.852 174.047 93.508C174.439 94.156 174.635 94.88 174.635 95.68C174.635 96.48 174.439 97.208 174.047 97.864C173.655 98.512 173.131 99.032 172.475 99.424C171.827 99.808 171.107 100 170.315 100ZM170.315 97.828C170.699 97.828 171.055 97.732 171.383 97.54C171.711 97.34 171.971 97.076 172.163 96.748C172.363 96.42 172.463 96.064 172.463 95.68C172.463 95.296 172.363 94.94 172.163 94.612C171.971 94.284 171.711 94.024 171.383 93.832C171.055 93.632 170.699 93.532 170.315 93.532C169.931 93.532 169.575 93.632 169.247 93.832C168.927 94.024 168.667 94.284 168.467 94.612C168.267 94.94 168.167 95.296 168.167 95.68C168.167 96.064 168.267 96.42 168.467 96.748C168.667 97.076 168.927 97.34 169.247 97.54C169.567 97.732 169.923 97.828 170.315 97.828Z" fill="white"/>
<path d="M16 225C16 225.75 15.79 226.46 15.42 227.06C15.21 227.42 14.94 227.74 14.63 228C13.93 228.63 13.01 229 12 229C10.54 229 9.27 228.22 8.58 227.06C8.21 226.46 8 225.75 8 225C8 223.74 8.58 222.61 9.5 221.88C10.19 221.33 11.06 221 12 221C14.21 221 16 222.79 16 225Z" fill="url(#paint0_linear_444_220)"/>
<path d="M32.28 230L35.752 219.92H37.117L40.589 230H39.518L36.221 220.494H36.627L33.351 230H32.28ZM33.827 227.557V226.591H39.035V227.557H33.827ZM44.744 230.189C44.2914 230.189 43.8947 230.119 43.554 229.979C43.218 229.839 42.931 229.65 42.693 229.412C42.4597 229.174 42.2707 228.903 42.126 228.6C41.9814 228.292 41.8764 227.968 41.811 227.627C41.7457 227.282 41.713 226.939 41.713 226.598V222.44H42.749V226.297C42.749 226.712 42.7887 227.097 42.868 227.452C42.9474 227.807 43.0734 228.117 43.246 228.383C43.4234 228.644 43.6497 228.847 43.925 228.992C44.205 229.137 44.5434 229.209 44.94 229.209C45.304 229.209 45.6237 229.146 45.899 229.02C46.179 228.894 46.4124 228.714 46.599 228.481C46.7904 228.243 46.935 227.956 47.033 227.62C47.131 227.279 47.18 226.897 47.18 226.472L47.908 226.633C47.908 227.408 47.7727 228.059 47.502 228.586C47.2314 229.113 46.858 229.512 46.382 229.783C45.906 230.054 45.36 230.189 44.744 230.189ZM47.285 230V228.138H47.18V222.44H48.209V230H47.285ZM54.2815 230C53.8569 230.089 53.4369 230.124 53.0215 230.105C52.6109 230.086 52.2422 229.998 51.9155 229.839C51.5935 229.68 51.3485 229.433 51.1805 229.097C51.0452 228.817 50.9705 228.535 50.9565 228.25C50.9472 227.961 50.9425 227.632 50.9425 227.263V220.34H51.9645V227.221C51.9645 227.538 51.9669 227.804 51.9715 228.019C51.9809 228.229 52.0299 228.416 52.1185 228.579C52.2865 228.892 52.5525 229.078 52.9165 229.139C53.2852 229.2 53.7402 229.186 54.2815 229.097V230ZM49.3255 223.322V222.44H54.2815V223.322H49.3255ZM58.6546 230.21C57.9032 230.21 57.2616 230.04 56.7296 229.699C56.1976 229.358 55.7892 228.887 55.5046 228.285C55.2199 227.683 55.0776 226.992 55.0776 226.213C55.0776 225.42 55.2222 224.724 55.5116 224.127C55.8009 223.53 56.2116 223.065 56.7436 222.734C57.2802 222.398 57.9172 222.23 58.6546 222.23C59.4106 222.23 60.0546 222.4 60.5866 222.741C61.1232 223.077 61.5316 223.546 61.8116 224.148C62.0962 224.745 62.2386 225.434 62.2386 226.213C62.2386 227.006 62.0962 227.704 61.8116 228.306C61.5269 228.903 61.1162 229.37 60.5796 229.706C60.0429 230.042 59.4012 230.21 58.6546 230.21ZM58.6546 229.223C59.4946 229.223 60.1199 228.945 60.5306 228.39C60.9412 227.83 61.1466 227.104 61.1466 226.213C61.1466 225.298 60.9389 224.57 60.5236 224.029C60.1129 223.488 59.4899 223.217 58.6546 223.217C58.0899 223.217 57.6232 223.345 57.2546 223.602C56.8906 223.854 56.6176 224.206 56.4356 224.659C56.2582 225.107 56.1696 225.625 56.1696 226.213C56.1696 227.123 56.3796 227.853 56.7996 228.404C57.2196 228.95 57.8379 229.223 58.6546 229.223ZM72.7987 230L72.8057 225.037C72.8057 224.454 72.6424 223.996 72.3157 223.665C71.9937 223.329 71.5831 223.161 71.0837 223.161C70.7991 223.161 70.5214 223.226 70.2507 223.357C69.9801 223.488 69.7561 223.698 69.5787 223.987C69.4061 224.276 69.3197 224.654 69.3197 225.121L68.7107 224.946C68.6967 224.405 68.8017 223.931 69.0257 223.525C69.2544 223.119 69.5671 222.804 69.9637 222.58C70.3651 222.351 70.8177 222.237 71.3217 222.237C72.0824 222.237 72.6914 222.473 73.1487 222.944C73.6061 223.411 73.8347 224.043 73.8347 224.841L73.8277 230H72.7987ZM63.7757 230V222.44H64.6997V224.302H64.8117V230H63.7757ZM68.2977 230L68.3047 225.107C68.3047 224.505 68.1437 224.031 67.8217 223.686C67.5044 223.336 67.0844 223.161 66.5617 223.161C66.0391 223.161 65.6167 223.341 65.2947 223.7C64.9727 224.055 64.8117 224.528 64.8117 225.121L64.1957 224.785C64.1957 224.3 64.3101 223.866 64.5387 223.483C64.7674 223.096 65.0801 222.792 65.4767 222.573C65.8734 222.349 66.3237 222.237 66.8277 222.237C67.3084 222.237 67.7354 222.34 68.1087 222.545C68.4867 222.75 68.7831 223.049 68.9977 223.441C69.2124 223.833 69.3197 224.309 69.3197 224.869L69.3127 230H68.2977ZM77.8129 230.21C77.2436 230.21 76.7653 230.107 76.3779 229.902C75.9953 229.697 75.7083 229.424 75.5169 229.083C75.3256 228.742 75.2299 228.371 75.2299 227.97C75.2299 227.559 75.3116 227.209 75.4749 226.92C75.6429 226.626 75.8693 226.386 76.1539 226.199C76.4433 226.012 76.7769 225.87 77.1549 225.772C77.5376 225.679 77.9599 225.597 78.4219 225.527C78.8886 225.452 79.3436 225.389 79.7869 225.338C80.2349 225.282 80.6269 225.228 80.9629 225.177L80.5989 225.401C80.6129 224.654 80.4683 224.101 80.1649 223.742C79.8616 223.383 79.3343 223.203 78.5829 223.203C78.0649 223.203 77.6263 223.32 77.2669 223.553C76.9123 223.786 76.6626 224.155 76.5179 224.659L75.5169 224.365C75.6896 223.688 76.0373 223.163 76.5599 222.79C77.0826 222.417 77.7616 222.23 78.5969 222.23C79.2876 222.23 79.8733 222.361 80.3539 222.622C80.8393 222.879 81.1823 223.252 81.3829 223.742C81.4763 223.961 81.5369 224.206 81.5649 224.477C81.5929 224.748 81.6069 225.023 81.6069 225.303V230H80.6899V228.103L80.9559 228.215C80.6993 228.864 80.3003 229.358 79.7589 229.699C79.2176 230.04 78.5689 230.21 77.8129 230.21ZM77.9319 229.321C78.4126 229.321 78.8326 229.235 79.1919 229.062C79.5513 228.889 79.8406 228.654 80.0599 228.355C80.2793 228.052 80.4216 227.711 80.4869 227.333C80.5429 227.09 80.5733 226.824 80.5779 226.535C80.5826 226.241 80.5849 226.022 80.5849 225.877L80.9769 226.08C80.6269 226.127 80.2466 226.173 79.8359 226.22C79.4299 226.267 79.0286 226.32 78.6319 226.381C78.2399 226.442 77.8853 226.514 77.5679 226.598C77.3533 226.659 77.1456 226.745 76.9449 226.857C76.7443 226.964 76.5786 227.109 76.4479 227.291C76.3219 227.473 76.2589 227.699 76.2589 227.97C76.2589 228.189 76.3126 228.402 76.4199 228.607C76.5319 228.812 76.7093 228.983 76.9519 229.118C77.1993 229.253 77.5259 229.321 77.9319 229.321ZM87.5452 230C87.1206 230.089 86.7006 230.124 86.2852 230.105C85.8746 230.086 85.5059 229.998 85.1792 229.839C84.8572 229.68 84.6122 229.433 84.4442 229.097C84.3089 228.817 84.2342 228.535 84.2202 228.25C84.2109 227.961 84.2062 227.632 84.2062 227.263V220.34H85.2282V227.221C85.2282 227.538 85.2306 227.804 85.2352 228.019C85.2446 228.229 85.2936 228.416 85.3822 228.579C85.5502 228.892 85.8162 229.078 86.1802 229.139C86.5489 229.2 87.0039 229.186 87.5452 229.097V230ZM82.5892 223.322V222.44H87.5452V223.322H82.5892ZM89.1747 221.005V219.85H90.2037V221.005H89.1747ZM89.1747 230V222.44H90.2037V230H89.1747ZM95.4383 230.21C94.6776 230.21 94.0336 230.04 93.5063 229.699C92.9789 229.358 92.5776 228.889 92.3023 228.292C92.0316 227.69 91.8916 226.999 91.8823 226.22C91.8916 225.427 92.0363 224.731 92.3163 224.134C92.5963 223.532 92.9999 223.065 93.5273 222.734C94.0546 222.398 94.6939 222.23 95.4453 222.23C96.2106 222.23 96.8756 222.417 97.4403 222.79C98.0096 223.163 98.3993 223.674 98.6093 224.323L97.6013 224.645C97.4239 224.192 97.1416 223.842 96.7543 223.595C96.3716 223.343 95.9329 223.217 95.4383 223.217C94.8829 223.217 94.4233 223.345 94.0593 223.602C93.6953 223.854 93.4246 224.206 93.2473 224.659C93.0699 225.112 92.9789 225.632 92.9743 226.22C92.9836 227.125 93.1936 227.853 93.6043 228.404C94.0149 228.95 94.6263 229.223 95.4383 229.223C95.9516 229.223 96.3879 229.106 96.7473 228.873C97.1113 228.635 97.3866 228.29 97.5733 227.837L98.6093 228.145C98.3293 228.817 97.9186 229.33 97.3773 229.685C96.8359 230.035 96.1896 230.21 95.4383 230.21ZM102.717 226.031V225.149H106.917V226.031H102.717ZM112.078 230L115.788 220.921H111.119V219.92H116.887V220.921L113.184 230H112.078ZM121.541 230.21C121.018 230.21 120.535 230.103 120.092 229.888C119.649 229.673 119.271 229.377 118.958 228.999C118.645 228.621 118.421 228.187 118.286 227.697L119.273 227.431C119.362 227.795 119.523 228.11 119.756 228.376C119.989 228.637 120.262 228.84 120.575 228.985C120.892 229.13 121.224 229.202 121.569 229.202C122.017 229.202 122.418 229.095 122.773 228.88C123.132 228.661 123.417 228.371 123.627 228.012C123.837 227.653 123.942 227.258 123.942 226.829C123.942 226.386 123.832 225.987 123.613 225.632C123.394 225.273 123.104 224.988 122.745 224.778C122.386 224.568 121.994 224.463 121.569 224.463C121.093 224.463 120.682 224.568 120.337 224.778C119.992 224.983 119.716 225.242 119.511 225.555L118.573 225.163L118.881 219.92H124.264V220.907H119.336L119.847 220.424L119.574 224.897L119.315 224.554C119.604 224.223 119.954 223.964 120.365 223.777C120.776 223.59 121.207 223.497 121.66 223.497C122.281 223.497 122.841 223.646 123.34 223.945C123.839 224.239 124.236 224.638 124.53 225.142C124.824 225.646 124.971 226.208 124.971 226.829C124.971 227.445 124.815 228.01 124.502 228.523C124.189 229.032 123.774 229.44 123.256 229.748C122.738 230.056 122.166 230.21 121.541 230.21ZM126.842 230V228.803H128.039V230H126.842ZM133.491 230.21C132.87 230.21 132.31 230.065 131.811 229.776C131.316 229.487 130.924 229.095 130.635 228.6C130.345 228.101 130.201 227.541 130.201 226.92V223C130.201 222.379 130.345 221.822 130.635 221.327C130.924 220.828 131.316 220.433 131.811 220.144C132.31 219.855 132.87 219.71 133.491 219.71C134.111 219.71 134.669 219.855 135.164 220.144C135.663 220.433 136.057 220.828 136.347 221.327C136.636 221.822 136.781 222.379 136.781 223V226.92C136.781 227.541 136.636 228.101 136.347 228.6C136.057 229.095 135.663 229.487 135.164 229.776C134.669 230.065 134.111 230.21 133.491 230.21ZM133.491 229.216C133.906 229.216 134.284 229.116 134.625 228.915C134.965 228.71 135.236 228.437 135.437 228.096C135.637 227.755 135.738 227.38 135.738 226.969V222.951C135.738 222.536 135.637 222.158 135.437 221.817C135.236 221.476 134.965 221.206 134.625 221.005C134.284 220.8 133.906 220.697 133.491 220.697C133.075 220.697 132.697 220.8 132.357 221.005C132.016 221.206 131.745 221.476 131.545 221.817C131.344 222.158 131.244 222.536 131.244 222.951V226.969C131.244 227.38 131.344 227.755 131.545 228.096C131.745 228.437 132.016 228.71 132.357 228.915C132.697 229.116 133.075 229.216 133.491 229.216ZM142.036 230.21C141.415 230.21 140.855 230.065 140.356 229.776C139.861 229.487 139.469 229.095 139.18 228.6C138.89 228.101 138.746 227.541 138.746 226.92V223C138.746 222.379 138.89 221.822 139.18 221.327C139.469 220.828 139.861 220.433 140.356 220.144C140.855 219.855 141.415 219.71 142.036 219.71C142.656 219.71 143.214 219.855 143.709 220.144C144.208 220.433 144.602 220.828 144.892 221.327C145.181 221.822 145.326 222.379 145.326 223V226.92C145.326 227.541 145.181 228.101 144.892 228.6C144.602 229.095 144.208 229.487 143.709 229.776C143.214 230.065 142.656 230.21 142.036 230.21ZM142.036 229.216C142.451 229.216 142.829 229.116 143.17 228.915C143.51 228.71 143.781 228.437 143.982 228.096C144.182 227.755 144.283 227.38 144.283 226.969V222.951C144.283 222.536 144.182 222.158 143.982 221.817C143.781 221.476 143.51 221.206 143.17 221.005C142.829 220.8 142.451 220.697 142.036 220.697C141.62 220.697 141.242 220.8 140.902 221.005C140.561 221.206 140.29 221.476 140.09 221.817C139.889 222.158 139.789 222.536 139.789 222.951V226.969C139.789 227.38 139.889 227.755 140.09 228.096C140.29 228.437 140.561 228.71 140.902 228.915C141.242 229.116 141.62 229.216 142.036 229.216ZM148.271 230L147.571 229.3L156.972 219.92L157.672 220.613L148.271 230ZM155.572 230.21C155.11 230.21 154.687 230.098 154.305 229.874C153.927 229.645 153.623 229.342 153.395 228.964C153.166 228.581 153.052 228.157 153.052 227.69C153.052 227.233 153.168 226.813 153.402 226.43C153.635 226.047 153.943 225.742 154.326 225.513C154.708 225.284 155.124 225.17 155.572 225.17C156.034 225.17 156.456 225.284 156.839 225.513C157.221 225.737 157.525 226.04 157.749 226.423C157.977 226.801 158.092 227.223 158.092 227.69C158.092 228.157 157.977 228.581 157.749 228.964C157.525 229.342 157.221 229.645 156.839 229.874C156.456 230.098 156.034 230.21 155.572 230.21ZM155.572 229.279C155.856 229.279 156.12 229.207 156.363 229.062C156.605 228.917 156.799 228.726 156.944 228.488C157.088 228.245 157.161 227.979 157.161 227.69C157.161 227.401 157.088 227.137 156.944 226.899C156.799 226.656 156.605 226.463 156.363 226.318C156.12 226.173 155.856 226.101 155.572 226.101C155.282 226.101 155.016 226.173 154.774 226.318C154.536 226.463 154.342 226.656 154.193 226.899C154.048 227.137 153.976 227.401 153.976 227.69C153.976 227.979 154.048 228.245 154.193 228.488C154.342 228.726 154.536 228.917 154.774 229.062C155.016 229.207 155.282 229.279 155.572 229.279ZM149.671 224.75C149.209 224.75 148.786 224.638 148.404 224.414C148.021 224.185 147.715 223.882 147.487 223.504C147.263 223.121 147.151 222.697 147.151 222.23C147.151 221.773 147.267 221.353 147.501 220.97C147.734 220.587 148.042 220.282 148.425 220.053C148.807 219.824 149.223 219.71 149.671 219.71C150.133 219.71 150.553 219.824 150.931 220.053C151.313 220.277 151.619 220.58 151.848 220.963C152.076 221.341 152.191 221.763 152.191 222.23C152.191 222.697 152.076 223.121 151.848 223.504C151.619 223.882 151.313 224.185 150.931 224.414C150.553 224.638 150.133 224.75 149.671 224.75ZM149.671 223.819C149.96 223.819 150.224 223.747 150.462 223.602C150.704 223.457 150.898 223.266 151.043 223.028C151.187 222.785 151.26 222.519 151.26 222.23C151.26 221.941 151.187 221.677 151.043 221.439C150.898 221.196 150.704 221.003 150.462 220.858C150.224 220.713 149.96 220.641 149.671 220.641C149.381 220.641 149.115 220.713 148.873 220.858C148.635 221.003 148.443 221.196 148.299 221.439C148.154 221.677 148.082 221.941 148.082 222.23C148.082 222.519 148.154 222.785 148.299 223.028C148.443 223.266 148.635 223.457 148.873 223.602C149.115 223.747 149.381 223.819 149.671 223.819Z" fill="white"/>
<path d="M199 225C199 225.75 198.79 226.46 198.42 227.06C198.21 227.42 197.94 227.74 197.63 228C196.93 228.63 196.01 229 195 229C193.54 229 192.27 228.22 191.58 227.06C191.21 226.46 191 225.75 191 225C191 223.74 191.58 222.61 192.5 221.88C193.19 221.33 194.06 221 195 221C197.21 221 199 222.79 199 225Z" fill="#252526"/>
<path d="M215.98 230V219.92H216.925L220.887 228.397L224.828 219.92H225.787V229.993H224.807V222.216L221.216 230H220.551L216.967 222.216V230H215.98ZM229.914 230.21C229.345 230.21 228.867 230.107 228.479 229.902C228.097 229.697 227.81 229.424 227.618 229.083C227.427 228.742 227.331 228.371 227.331 227.97C227.331 227.559 227.413 227.209 227.576 226.92C227.744 226.626 227.971 226.386 228.255 226.199C228.545 226.012 228.878 225.87 229.256 225.772C229.639 225.679 230.061 225.597 230.523 225.527C230.99 225.452 231.445 225.389 231.888 225.338C232.336 225.282 232.728 225.228 233.064 225.177L232.7 225.401C232.714 224.654 232.57 224.101 232.266 223.742C231.963 223.383 231.436 223.203 230.684 223.203C230.166 223.203 229.728 223.32 229.368 223.553C229.014 223.786 228.764 224.155 228.619 224.659L227.618 224.365C227.791 223.688 228.139 223.163 228.661 222.79C229.184 222.417 229.863 222.23 230.698 222.23C231.389 222.23 231.975 222.361 232.455 222.622C232.941 222.879 233.284 223.252 233.484 223.742C233.578 223.961 233.638 224.206 233.666 224.477C233.694 224.748 233.708 225.023 233.708 225.303V230H232.791V228.103L233.057 228.215C232.801 228.864 232.402 229.358 231.86 229.699C231.319 230.04 230.67 230.21 229.914 230.21ZM230.033 229.321C230.514 229.321 230.934 229.235 231.293 229.062C231.653 228.889 231.942 228.654 232.161 228.355C232.381 228.052 232.523 227.711 232.588 227.333C232.644 227.09 232.675 226.824 232.679 226.535C232.684 226.241 232.686 226.022 232.686 225.877L233.078 226.08C232.728 226.127 232.348 226.173 231.937 226.22C231.531 226.267 231.13 226.32 230.733 226.381C230.341 226.442 229.987 226.514 229.669 226.598C229.455 226.659 229.247 226.745 229.046 226.857C228.846 226.964 228.68 227.109 228.549 227.291C228.423 227.473 228.36 227.699 228.36 227.97C228.36 228.189 228.414 228.402 228.521 228.607C228.633 228.812 228.811 228.983 229.053 229.118C229.301 229.253 229.627 229.321 230.033 229.321ZM240.991 230V226.143C240.991 225.723 240.951 225.338 240.872 224.988C240.792 224.633 240.664 224.325 240.487 224.064C240.314 223.798 240.088 223.593 239.808 223.448C239.532 223.303 239.196 223.231 238.8 223.231C238.436 223.231 238.114 223.294 237.834 223.42C237.558 223.546 237.325 223.728 237.134 223.966C236.947 224.199 236.805 224.484 236.707 224.82C236.609 225.156 236.56 225.539 236.56 225.968L235.832 225.807C235.832 225.032 235.967 224.381 236.238 223.854C236.508 223.327 236.882 222.928 237.358 222.657C237.834 222.386 238.38 222.251 238.996 222.251C239.448 222.251 239.843 222.321 240.179 222.461C240.519 222.601 240.806 222.79 241.04 223.028C241.278 223.266 241.469 223.539 241.614 223.847C241.758 224.15 241.863 224.475 241.929 224.82C241.994 225.161 242.027 225.501 242.027 225.842V230H240.991ZM235.524 230V222.44H236.455V224.302H236.56V230H235.524ZM246.734 230.189C246.282 230.189 245.885 230.119 245.544 229.979C245.208 229.839 244.921 229.65 244.683 229.412C244.45 229.174 244.261 228.903 244.116 228.6C243.972 228.292 243.867 227.968 243.801 227.627C243.736 227.282 243.703 226.939 243.703 226.598V222.44H244.739V226.297C244.739 226.712 244.779 227.097 244.858 227.452C244.938 227.807 245.064 228.117 245.236 228.383C245.414 228.644 245.64 228.847 245.915 228.992C246.195 229.137 246.534 229.209 246.93 229.209C247.294 229.209 247.614 229.146 247.889 229.02C248.169 228.894 248.403 228.714 248.589 228.481C248.781 228.243 248.925 227.956 249.023 227.62C249.121 227.279 249.17 226.897 249.17 226.472L249.898 226.633C249.898 227.408 249.763 228.059 249.492 228.586C249.222 229.113 248.848 229.512 248.372 229.783C247.896 230.054 247.35 230.189 246.734 230.189ZM249.275 230V228.138H249.17V222.44H250.199V230H249.275ZM254.319 230.21C253.749 230.21 253.271 230.107 252.884 229.902C252.501 229.697 252.214 229.424 252.023 229.083C251.831 228.742 251.736 228.371 251.736 227.97C251.736 227.559 251.817 227.209 251.981 226.92C252.149 226.626 252.375 226.386 252.66 226.199C252.949 226.012 253.283 225.87 253.661 225.772C254.043 225.679 254.466 225.597 254.928 225.527C255.394 225.452 255.849 225.389 256.293 225.338C256.741 225.282 257.133 225.228 257.469 225.177L257.105 225.401C257.119 224.654 256.974 224.101 256.671 223.742C256.367 223.383 255.84 223.203 255.089 223.203C254.571 223.203 254.132 223.32 253.773 223.553C253.418 223.786 253.168 224.155 253.024 224.659L252.023 224.365C252.195 223.688 252.543 223.163 253.066 222.79C253.588 222.417 254.267 222.23 255.103 222.23C255.793 222.23 256.379 222.361 256.86 222.622C257.345 222.879 257.688 223.252 257.889 223.742C257.982 223.961 258.043 224.206 258.071 224.477C258.099 224.748 258.113 225.023 258.113 225.303V230H257.196V228.103L257.462 228.215C257.205 228.864 256.806 229.358 256.265 229.699C255.723 230.04 255.075 230.21 254.319 230.21ZM254.438 229.321C254.918 229.321 255.338 229.235 255.698 229.062C256.057 228.889 256.346 228.654 256.566 228.355C256.785 228.052 256.927 227.711 256.993 227.333C257.049 227.09 257.079 226.824 257.084 226.535C257.088 226.241 257.091 226.022 257.091 225.877L257.483 226.08C257.133 226.127 256.752 226.173 256.342 226.22C255.936 226.267 255.534 226.32 255.138 226.381C254.746 226.442 254.391 226.514 254.074 226.598C253.859 226.659 253.651 226.745 253.451 226.857C253.25 226.964 253.084 227.109 252.954 227.291C252.828 227.473 252.765 227.699 252.765 227.97C252.765 228.189 252.818 228.402 252.926 228.607C253.038 228.812 253.215 228.983 253.458 229.118C253.705 229.253 254.032 229.321 254.438 229.321ZM260.075 230V219.71H261.104V230H260.075ZM265.865 226.031V225.149H270.065V226.031H265.865ZM274.407 229.993L274.414 229.055L278.971 224.939C279.363 224.584 279.622 224.248 279.748 223.931C279.879 223.609 279.944 223.273 279.944 222.923C279.944 222.508 279.846 222.132 279.65 221.796C279.454 221.46 279.19 221.194 278.859 220.998C278.528 220.797 278.157 220.697 277.746 220.697C277.317 220.697 276.934 220.8 276.598 221.005C276.262 221.21 275.996 221.481 275.8 221.817C275.609 222.153 275.515 222.519 275.52 222.916H274.47C274.47 222.305 274.615 221.756 274.904 221.271C275.193 220.786 275.585 220.405 276.08 220.13C276.575 219.85 277.135 219.71 277.76 219.71C278.371 219.71 278.92 219.855 279.405 220.144C279.895 220.429 280.28 220.816 280.56 221.306C280.845 221.791 280.987 222.333 280.987 222.93C280.987 223.35 280.936 223.721 280.833 224.043C280.735 224.36 280.579 224.657 280.364 224.932C280.154 225.203 279.886 225.483 279.559 225.772L275.513 229.426L275.352 229.006H280.987V229.993H274.407ZM285.646 230.21C285.124 230.21 284.641 230.103 284.197 229.888C283.754 229.673 283.376 229.377 283.063 228.999C282.751 228.621 282.527 228.187 282.391 227.697L283.378 227.431C283.467 227.795 283.628 228.11 283.861 228.376C284.095 228.637 284.368 228.84 284.68 228.985C284.998 229.13 285.329 229.202 285.674 229.202C286.122 229.202 286.524 229.095 286.878 228.88C287.238 228.661 287.522 228.371 287.732 228.012C287.942 227.653 288.047 227.258 288.047 226.829C288.047 226.386 287.938 225.987 287.718 225.632C287.499 225.273 287.21 224.988 286.85 224.778C286.491 224.568 286.099 224.463 285.674 224.463C285.198 224.463 284.788 224.568 284.442 224.778C284.097 224.983 283.822 225.242 283.616 225.555L282.678 225.163L282.986 219.92H288.369V220.907H283.441L283.952 220.424L283.679 224.897L283.42 224.554C283.71 224.223 284.06 223.964 284.47 223.777C284.881 223.59 285.313 223.497 285.765 223.497C286.386 223.497 286.946 223.646 287.445 223.945C287.945 224.239 288.341 224.638 288.635 225.142C288.929 225.646 289.076 226.208 289.076 226.829C289.076 227.445 288.92 228.01 288.607 228.523C288.295 229.032 287.879 229.44 287.361 229.748C286.843 230.056 286.272 230.21 285.646 230.21ZM290.947 230V228.803H292.144V230H290.947ZM297.596 230.21C296.976 230.21 296.416 230.065 295.916 229.776C295.422 229.487 295.03 229.095 294.74 228.6C294.451 228.101 294.306 227.541 294.306 226.92V223C294.306 222.379 294.451 221.822 294.74 221.327C295.03 220.828 295.422 220.433 295.916 220.144C296.416 219.855 296.976 219.71 297.596 219.71C298.217 219.71 298.775 219.855 299.269 220.144C299.769 220.433 300.163 220.828 300.452 221.327C300.742 221.822 300.886 222.379 300.886 223V226.92C300.886 227.541 300.742 228.101 300.452 228.6C300.163 229.095 299.769 229.487 299.269 229.776C298.775 230.065 298.217 230.21 297.596 230.21ZM297.596 229.216C298.012 229.216 298.39 229.116 298.73 228.915C299.071 228.71 299.342 228.437 299.542 228.096C299.743 227.755 299.843 227.38 299.843 226.969V222.951C299.843 222.536 299.743 222.158 299.542 221.817C299.342 221.476 299.071 221.206 298.73 221.005C298.39 220.8 298.012 220.697 297.596 220.697C297.181 220.697 296.803 220.8 296.462 221.005C296.122 221.206 295.851 221.476 295.65 221.817C295.45 222.158 295.349 222.536 295.349 222.951V226.969C295.349 227.38 295.45 227.755 295.65 228.096C295.851 228.437 296.122 228.71 296.462 228.915C296.803 229.116 297.181 229.216 297.596 229.216ZM306.141 230.21C305.52 230.21 304.96 230.065 304.461 229.776C303.966 229.487 303.574 229.095 303.285 228.6C302.996 228.101 302.851 227.541 302.851 226.92V223C302.851 222.379 302.996 221.822 303.285 221.327C303.574 220.828 303.966 220.433 304.461 220.144C304.96 219.855 305.52 219.71 306.141 219.71C306.762 219.71 307.319 219.855 307.814 220.144C308.313 220.433 308.708 220.828 308.997 221.327C309.286 221.822 309.431 222.379 309.431 223V226.92C309.431 227.541 309.286 228.101 308.997 228.6C308.708 229.095 308.313 229.487 307.814 229.776C307.319 230.065 306.762 230.21 306.141 230.21ZM306.141 229.216C306.556 229.216 306.934 229.116 307.275 228.915C307.616 228.71 307.886 228.437 308.087 228.096C308.288 227.755 308.388 227.38 308.388 226.969V222.951C308.388 222.536 308.288 222.158 308.087 221.817C307.886 221.476 307.616 221.206 307.275 221.005C306.934 220.8 306.556 220.697 306.141 220.697C305.726 220.697 305.348 220.8 305.007 221.005C304.666 221.206 304.396 221.476 304.195 221.817C303.994 222.158 303.894 222.536 303.894 222.951V226.969C303.894 227.38 303.994 227.755 304.195 228.096C304.396 228.437 304.666 228.71 305.007 228.915C305.348 229.116 305.726 229.216 306.141 229.216ZM312.376 230L311.676 229.3L321.077 219.92L321.777 220.613L312.376 230ZM319.677 230.21C319.215 230.21 318.793 230.098 318.41 229.874C318.032 229.645 317.729 229.342 317.5 228.964C317.271 228.581 317.157 228.157 317.157 227.69C317.157 227.233 317.274 226.813 317.507 226.43C317.74 226.047 318.048 225.742 318.431 225.513C318.814 225.284 319.229 225.17 319.677 225.17C320.139 225.17 320.561 225.284 320.944 225.513C321.327 225.737 321.63 226.04 321.854 226.423C322.083 226.801 322.197 227.223 322.197 227.69C322.197 228.157 322.083 228.581 321.854 228.964C321.63 229.342 321.327 229.645 320.944 229.874C320.561 230.098 320.139 230.21 319.677 230.21ZM319.677 229.279C319.962 229.279 320.225 229.207 320.468 229.062C320.711 228.917 320.904 228.726 321.049 228.488C321.194 228.245 321.266 227.979 321.266 227.69C321.266 227.401 321.194 227.137 321.049 226.899C320.904 226.656 320.711 226.463 320.468 226.318C320.225 226.173 319.962 226.101 319.677 226.101C319.388 226.101 319.122 226.173 318.879 226.318C318.641 226.463 318.447 226.656 318.298 226.899C318.153 227.137 318.081 227.401 318.081 227.69C318.081 227.979 318.153 228.245 318.298 228.488C318.447 228.726 318.641 228.917 318.879 229.062C319.122 229.207 319.388 229.279 319.677 229.279ZM313.776 224.75C313.314 224.75 312.892 224.638 312.509 224.414C312.126 224.185 311.821 223.882 311.592 223.504C311.368 223.121 311.256 222.697 311.256 222.23C311.256 221.773 311.373 221.353 311.606 220.97C311.839 220.587 312.147 220.282 312.53 220.053C312.913 219.824 313.328 219.71 313.776 219.71C314.238 219.71 314.658 219.824 315.036 220.053C315.419 220.277 315.724 220.58 315.953 220.963C316.182 221.341 316.296 221.763 316.296 222.23C316.296 222.697 316.182 223.121 315.953 223.504C315.724 223.882 315.419 224.185 315.036 224.414C314.658 224.638 314.238 224.75 313.776 224.75ZM313.776 223.819C314.065 223.819 314.329 223.747 314.567 223.602C314.81 223.457 315.003 223.266 315.148 223.028C315.293 222.785 315.365 222.519 315.365 222.23C315.365 221.941 315.293 221.677 315.148 221.439C315.003 221.196 314.81 221.003 314.567 220.858C314.329 220.713 314.065 220.641 313.776 220.641C313.487 220.641 313.221 220.713 312.978 220.858C312.74 221.003 312.549 221.196 312.404 221.439C312.259 221.677 312.187 221.941 312.187 222.23C312.187 222.519 312.259 222.785 312.404 223.028C312.549 223.266 312.74 223.457 312.978 223.602C313.221 223.747 313.487 223.819 313.776 223.819Z" fill="white"/>
<circle cx="162" cy="100" r="97" stroke="#252526" stroke-width="5"/>
<path d="M65 100C65 153.572 108.428 197 162 197C215.572 197 259 153.572 259 100C259 46.4284 215.572 3 162 3" stroke="url(#paint1_linear_444_220)" stroke-width="5" stroke-linecap="round"/>
<defs>
<linearGradient id="paint0_linear_444_220" x1="8" y1="225" x2="16" y2="225" gradientUnits="userSpaceOnUse">
<stop stop-color="#0052CC"/>
<stop offset="1" stop-color="#0099FF"/>
</linearGradient>
<linearGradient id="paint1_linear_444_220" x1="65" y1="100.002" x2="259" y2="100.002" gradientUnits="userSpaceOnUse">
<stop stop-color="#0052CC"/>
<stop offset="1" stop-color="#0099FF"/>
</linearGradient>
</defs>
</svg>
