<svg width="142" height="142" viewBox="0 0 142 142" fill="none" xmlns="http://www.w3.org/2000/svg">
<rect x="0.5" y="0.5" width="141" height="141" rx="40.5" stroke="url(#paint0_linear_170_243)" stroke-opacity="0.16"/>
<rect x="10.5" y="10.5" width="121" height="121" rx="30.5" stroke="url(#paint1_linear_170_243)" stroke-opacity="0.16"/>
<rect x="20.5" y="19.5" width="101" height="101" rx="20.5" fill="url(#paint2_linear_170_243)"/>
<rect x="20.5" y="19.5" width="101" height="101" rx="20.5" stroke="url(#paint3_linear_170_243)"/>
<path d="M62.1864 88.602C59.2638 89.969 55.7666 88.6898 54.4052 85.7552L43.2891 61.7896C41.9277 58.8676 43.2017 55.3562 46.1119 53.9892C49.0345 52.6223 52.5317 53.9014 53.8931 56.8235L65.0216 80.789C66.3831 83.7111 65.1091 87.235 62.1864 88.602Z" fill="white"/>
<path d="M81.6707 88.6021C78.7481 89.969 75.2509 88.6899 73.8895 85.7553L62.7734 61.7897C61.412 58.8552 62.686 55.3437 65.6087 53.9768C68.5313 52.6098 72.0285 53.889 73.3899 56.8235L84.5184 80.7891C85.8674 83.7111 84.5934 87.2351 81.6707 88.6021Z" fill="white"/>
<path fill-rule="evenodd" clip-rule="evenodd" d="M99.4187 62.329C99.4187 67.2396 95.454 71.2204 90.5633 71.2204C85.6726 71.2204 81.7079 67.2396 81.7079 62.329C81.7079 57.4183 85.6726 53.4375 90.5633 53.4375C95.454 53.4375 99.4187 57.4183 99.4187 62.329ZM92.8119 62.329C92.8119 63.5757 91.8053 64.5863 90.5637 64.5863C89.322 64.5863 88.3155 63.5757 88.3155 62.329C88.3155 61.0823 89.322 60.0716 90.5637 60.0716C91.8053 60.0716 92.8119 61.0823 92.8119 62.329Z" fill="white"/>
<defs>
<linearGradient id="paint0_linear_170_243" x1="71" y1="1" x2="71" y2="141" gradientUnits="userSpaceOnUse">
<stop stop-color="white"/>
<stop offset="1" stop-color="white" stop-opacity="0.33"/>
</linearGradient>
<linearGradient id="paint1_linear_170_243" x1="71" y1="11" x2="71" y2="131" gradientUnits="userSpaceOnUse">
<stop stop-color="white"/>
<stop offset="1" stop-color="white" stop-opacity="0.33"/>
</linearGradient>
<linearGradient id="paint2_linear_170_243" x1="71" y1="20" x2="71" y2="120" gradientUnits="userSpaceOnUse">
<stop stop-color="#111B3C"/>
<stop offset="1" stop-color="#0A1435"/>
</linearGradient>
<linearGradient id="paint3_linear_170_243" x1="71" y1="20" x2="71" y2="120" gradientUnits="userSpaceOnUse">
<stop stop-color="#2E3652"/>
<stop offset="1" stop-color="#141D3C"/>
</linearGradient>
</defs>
</svg>
