<svg width="921" height="688" viewBox="0 0 921 688" fill="none" xmlns="http://www.w3.org/2000/svg">
<mask id="mask0_262_120" style="mask-type:alpha" maskUnits="userSpaceOnUse" x="0" y="0" width="921" height="688">
<rect width="921" height="688" fill="#D9D9D9"/>
</mask>
<g mask="url(#mask0_262_120)">
<circle opacity="0.6" cx="458" cy="472" r="280" stroke="#475177" stroke-linecap="round" stroke-dasharray="8 6"/>
<circle opacity="0.3" cx="458" cy="472" r="430" stroke="#475177" stroke-linecap="round" stroke-dasharray="8 6"/>
<rect x="1.5" y="346.5" width="81" height="81" rx="40.5" fill="url(#paint0_linear_262_120)"/>
<rect x="1.5" y="346.5" width="81" height="81" rx="40.5" stroke="url(#paint1_linear_262_120)"/>
<path d="M55.3032 380.033C54.8191 379.955 54.359 380.275 54.2542 380.764L52.0018 388.328L49.5337 380.014H46.9666L50.6689 390.269C50.9554 390.796 50.8362 391.456 50.3853 391.844C50.0148 392.141 49.657 392.141 48.8856 392.134H48.7004V394H49.3176C50.3853 394 51.1688 393.956 51.6132 393.571C52.1456 393.107 52.541 392.5 52.7548 391.819L56.8644 380.039H55.3035V380.033H55.3032ZM59.0054 380.985C58.2826 381.59 57.8729 382.501 57.8947 383.455C57.8619 384.147 58.1334 384.817 58.6351 385.283C59.098 385.756 60.0607 386.178 61.4922 386.544C61.85 386.652 62.215 386.734 62.5843 386.79C63.1027 386.903 64.639 387.237 64.639 388.283C64.6342 388.752 64.3752 389.179 63.9664 389.393C63.5108 389.631 63.0041 389.751 62.4917 389.739C61.8409 389.764 61.1974 389.593 60.6408 389.248C60.2308 388.952 59.9602 388.495 59.894 387.987H57.6419C57.6227 388.927 58.0278 389.824 58.7401 390.42C59.4745 391.05 60.5913 391.346 62.1402 391.346C63.689 391.346 64.9724 391.05 65.7623 390.458C66.5825 389.831 67.0448 388.83 66.9966 387.785C67.0312 387.102 66.7773 386.437 66.2994 385.957C65.435 385.353 64.4584 384.937 63.4301 384.735L62.6402 384.565C60.9372 384.199 60.1718 383.739 60.1718 383.071C60.1536 382.649 60.3525 382.247 60.6963 382.012C61.143 381.775 61.6442 381.666 62.1464 381.697C62.7113 381.667 63.2701 381.827 63.7386 382.151H63.7756L63.8865 382.258C63.9742 382.338 64.0566 382.425 64.1334 382.516C64.3246 382.889 64.6964 383.129 65.1083 383.147H66.5648C66.4695 382.283 66.0546 381.489 65.4047 380.928C64.4246 380.268 63.2634 379.945 62.091 380.008C60.9914 379.959 59.9069 380.283 59.0055 380.928M38.5313 380.928C37.8083 381.535 37.3987 382.449 37.4205 383.405C37.3685 384.127 37.649 384.834 38.1794 385.314C38.6423 385.787 39.611 386.21 41.0426 386.575C41.4024 386.684 41.7695 386.766 42.141 386.821C42.6592 386.935 44.202 387.268 44.202 388.321C44.1995 388.792 43.9398 389.222 43.5293 389.437C43.0717 389.676 42.5627 389.796 42.0485 389.783C41.3875 389.813 40.7326 389.641 40.1664 389.292C39.7572 388.995 39.4866 388.539 39.4198 388.031H37.1614C37.1411 388.976 37.5486 389.879 38.266 390.476C39.0004 391.107 40.1173 391.403 41.6784 391.403C43.2395 391.403 44.5232 391.1 45.3128 390.514C46.1367 389.885 46.5995 388.878 46.5471 387.829C46.5817 387.144 46.3282 386.477 45.8499 385.995C44.9819 385.388 44.0009 384.97 42.9682 384.766L42.1722 384.596C40.4629 384.224 39.704 383.764 39.704 383.096C39.6872 382.672 39.8884 382.271 40.2347 382.037C40.6834 381.8 41.1866 381.691 41.691 381.722C42.2585 381.694 42.8194 381.855 43.2893 382.182H43.3263L43.4371 382.289C43.5248 382.37 43.6072 382.456 43.6841 382.548C43.8765 382.922 44.251 383.163 44.6653 383.178H46.1339C46.0256 382.329 45.6092 381.553 44.9678 381.003C43.9845 380.339 42.8189 380.014 41.6417 380.077C40.5416 380.032 39.4574 380.357 38.5563 381.003M33.7304 380.373C32.9531 380.551 32.2147 380.873 31.5521 381.325C30.8462 381.697 30.3121 382.338 30.065 383.108C29.6671 383.997 29.477 384.968 29.5096 385.945V391.479H32.0087V385.586C31.9388 384.642 32.2878 383.716 32.959 383.064C33.7332 382.472 34.6902 382.183 35.6555 382.251H36.2726V380.083C35.3979 380.088 34.5264 380.193 33.6747 380.398M19.4824 381.029C19.0587 381.355 18.7268 381.79 18.5198 382.289C18.4951 382.396 18.4643 382.655 18.8653 382.655H20.9016C21.0986 382.354 21.3905 382.132 21.7285 382.025C22.1275 381.896 22.544 381.832 22.9626 381.835C23.4442 381.826 23.9238 381.898 24.3819 382.05C24.9302 382.156 25.3268 382.646 25.326 383.216C25.326 384.382 23.5797 384.602 23.0058 384.678L21.7162 384.855C20.7534 384.963 19.8262 385.288 19.0012 385.806C18.2957 386.354 17.9215 387.238 18.0138 388.138C17.9182 389.118 18.3357 390.077 19.1122 390.66C19.9203 391.206 20.8707 391.491 21.8397 391.479C22.3766 391.479 23.0058 391.441 23.7279 391.372C24.4009 391.315 25.0588 391.138 25.6715 390.849C26.3072 390.623 26.8332 390.156 27.1401 389.544C27.589 388.786 27.8041 387.907 27.7573 387.023V383.033C27.7812 382.145 27.3231 381.316 26.5662 380.877C25.4221 380.286 24.1435 380.018 22.8639 380.102C21.6773 380.024 20.4989 380.35 19.5132 381.029M20.9016 389.38C20.5614 389.054 20.3729 388.596 20.3833 388.119C20.3454 387.672 20.5037 387.231 20.8153 386.916C21.2051 386.598 21.6646 386.382 22.1542 386.285L23.2156 386.064C23.808 385.944 24.3867 385.762 24.9434 385.522L25.4123 385.302V386.915C25.5604 388.081 25.1901 388.661 24.5669 389.071C23.9406 389.619 23.1322 389.901 22.3085 389.859C21.7992 389.872 21.3014 389.703 20.9016 389.38Z" fill="#B3BCDD"/>
<rect x="652.5" y="285.5" width="97" height="97" rx="48.5" fill="url(#paint2_linear_262_120)"/>
<rect x="652.5" y="285.5" width="97" height="97" rx="48.5" stroke="url(#paint3_linear_262_120)"/>
<path d="M685 332.792V315.001L693.836 319.789V327.804L705.534 327.81L714.513 332.792H685ZM707.926 326.337V315L717 319.669V331.694L707.926 326.337ZM707.926 348.082V340.136L696.138 340.127C696.149 340.18 687.01 335.066 687.01 335.066L717 335.209V353L707.926 348.082ZM685 348.082L685 336.456L693.836 341.687V352.751L685 348.082Z" fill="#B3BCDD"/>
<rect x="712" y="571" width="12" height="12" rx="6" fill="url(#paint4_linear_262_120)"/>
<rect x="599" y="63" width="8" height="8" rx="4" fill="url(#paint5_linear_262_120)"/>
<rect x="276.5" y="71.5" width="15" height="15" rx="7.5" stroke="url(#paint6_linear_262_120)"/>
<rect x="847.5" y="295.5" width="11" height="11" rx="5.5" stroke="url(#paint7_linear_262_120)"/>
<rect x="29" y="531" width="8" height="8" rx="4" fill="url(#paint8_linear_262_120)"/>
<rect x="417.5" y="1.5" width="81" height="81" rx="40.5" fill="url(#paint9_linear_262_120)"/>
<rect x="417.5" y="1.5" width="81" height="81" rx="40.5" stroke="url(#paint10_linear_262_120)"/>
<path d="M471.778 26.5539C467.829 24.0745 462.63 24.6652 457.993 27.5929C453.371 24.6652 448.169 24.0745 444.224 26.5539C437.985 30.472 437.226 40.5625 442.532 49.093C446.442 55.382 452.558 59.067 458.001 58.9991C463.445 59.067 469.561 55.382 473.471 49.093C478.77 40.5625 478.018 30.472 471.778 26.5539ZM445.4 47.2917C444.306 45.5492 443.481 43.6504 442.952 41.6598C442.482 39.9318 442.303 38.1372 442.42 36.3499C442.657 33.1973 443.934 30.7422 446.015 29.4362C448.096 28.1302 450.847 28.0509 453.777 29.2193C454.216 29.3957 454.651 29.5997 455.083 29.8246C453.455 31.3162 452.039 33.0262 450.876 34.9063C447.655 40.0851 446.672 45.8481 447.797 50.4427C446.9 49.4711 446.098 48.416 445.4 47.2917ZM473.052 41.6582C472.523 43.6485 471.697 45.5472 470.604 47.2901C469.906 48.416 469.103 49.4731 468.208 50.4476C469.213 46.3288 468.53 41.2827 466.066 36.5506C466.026 36.4726 465.971 36.4039 465.904 36.3487C465.836 36.2935 465.758 36.2532 465.674 36.2303C465.59 36.2075 465.502 36.2025 465.416 36.2159C465.33 36.2292 465.248 36.2606 465.175 36.3078L457.492 41.1306C457.422 41.1745 457.362 41.2319 457.314 41.2995C457.266 41.367 457.231 41.4434 457.213 41.5243C457.194 41.6052 457.192 41.6889 457.205 41.7708C457.219 41.8526 457.249 41.9309 457.293 42.0013L458.42 43.8122C458.464 43.8826 458.521 43.9436 458.588 43.9918C458.655 44.04 458.731 44.0744 458.811 44.093C458.891 44.1117 458.975 44.1142 459.056 44.1004C459.137 44.0867 459.215 44.057 459.285 44.0129L464.265 40.8862C464.426 41.3717 464.587 41.8572 464.708 42.3427C465.178 44.0685 465.358 45.8609 465.241 47.6462C465.004 50.7971 463.727 53.2522 461.646 54.5599C460.573 55.2193 459.343 55.577 458.085 55.5956H457.926C456.668 55.5774 455.438 55.2196 454.365 54.5599C452.282 53.2522 451.005 50.7971 450.768 47.6462C450.651 45.8588 450.831 44.0644 451.3 42.3363C452.379 38.3383 454.61 34.75 457.713 32.0224C459.051 30.8422 460.575 29.8939 462.223 29.2161C465.144 28.0476 467.9 28.1253 469.982 29.433C472.065 30.7406 473.341 33.1941 473.577 36.3467C473.697 38.1342 473.519 39.9292 473.052 41.6582Z" fill="#B3BCDD"/>
<rect x="850.5" y="502.5" width="69" height="69" rx="34.5" fill="url(#paint11_linear_262_120)"/>
<rect x="850.5" y="502.5" width="69" height="69" rx="34.5" stroke="url(#paint12_linear_262_120)"/>
<g clip-path="url(#clip0_262_120)">
<path d="M876.369 536.756C876.369 537.244 876.421 537.64 876.513 537.93C876.619 538.22 876.75 538.536 876.934 538.879C877 538.985 877.027 539.09 877.027 539.182C877.027 539.314 876.948 539.446 876.777 539.578L875.948 540.132C875.829 540.211 875.711 540.251 875.605 540.251C875.474 540.251 875.342 540.185 875.211 540.066C875.027 539.868 874.869 539.657 874.737 539.446C874.605 539.222 874.474 538.971 874.329 538.668C873.303 539.881 872.013 540.488 870.461 540.488C869.355 540.488 868.474 540.171 867.829 539.538C867.184 538.905 866.855 538.062 866.855 537.007C866.855 535.886 867.25 534.976 868.053 534.29C868.855 533.604 869.921 533.262 871.277 533.262C871.724 533.262 872.184 533.301 872.671 533.367C873.158 533.433 873.658 533.538 874.184 533.657V532.695C874.184 531.692 873.974 530.993 873.566 530.585C873.145 530.176 872.434 529.978 871.421 529.978C870.961 529.978 870.487 530.031 870 530.149C869.513 530.268 869.04 530.413 868.579 530.598C868.369 530.69 868.211 530.743 868.119 530.769C868.027 530.796 867.961 530.809 867.908 530.809C867.724 530.809 867.632 530.677 867.632 530.4V529.754C867.632 529.543 867.658 529.385 867.724 529.292C867.79 529.2 867.908 529.108 868.092 529.015C868.553 528.778 869.105 528.58 869.75 528.422C870.395 528.251 871.079 528.171 871.803 528.171C873.369 528.171 874.513 528.527 875.25 529.24C875.974 529.952 876.342 531.033 876.342 532.484V536.756H876.369ZM871.027 538.76C871.461 538.76 871.908 538.681 872.382 538.523C872.855 538.365 873.277 538.075 873.632 537.679C873.842 537.429 874 537.152 874.079 536.835C874.158 536.519 874.211 536.136 874.211 535.688V535.134C873.829 535.042 873.421 534.963 873 534.91C872.579 534.857 872.171 534.831 871.763 534.831C870.882 534.831 870.237 535.002 869.803 535.358C869.369 535.714 869.158 536.215 869.158 536.875C869.158 537.495 869.316 537.956 869.645 538.273C869.961 538.602 870.421 538.76 871.027 538.76ZM881.592 540.185C881.355 540.185 881.198 540.145 881.092 540.053C880.987 539.974 880.895 539.789 880.816 539.538L877.724 529.345C877.645 529.081 877.605 528.91 877.605 528.818C877.605 528.607 877.711 528.488 877.921 528.488H879.211C879.461 528.488 879.632 528.527 879.724 528.62C879.829 528.699 879.908 528.884 879.987 529.134L882.198 537.864L884.25 529.134C884.316 528.87 884.395 528.699 884.5 528.62C884.605 528.541 884.79 528.488 885.027 528.488H886.079C886.329 528.488 886.5 528.527 886.605 528.62C886.711 528.699 886.803 528.884 886.855 529.134L888.934 537.969L891.211 529.134C891.29 528.87 891.382 528.699 891.474 528.62C891.579 528.541 891.75 528.488 891.987 528.488H893.211C893.421 528.488 893.54 528.593 893.54 528.818C893.54 528.884 893.527 528.949 893.513 529.029C893.5 529.108 893.474 529.213 893.421 529.358L890.25 539.552C890.171 539.815 890.079 539.987 889.974 540.066C889.869 540.145 889.698 540.198 889.474 540.198H888.342C888.092 540.198 887.921 540.158 887.816 540.066C887.711 539.974 887.619 539.802 887.566 539.538L885.527 531.033L883.5 539.525C883.434 539.789 883.355 539.96 883.25 540.053C883.145 540.145 882.961 540.185 882.724 540.185H881.592ZM898.5 540.541C897.816 540.541 897.132 540.462 896.474 540.303C895.816 540.145 895.303 539.974 894.961 539.776C894.75 539.657 894.605 539.525 894.553 539.407C894.5 539.288 894.474 539.156 894.474 539.037V538.365C894.474 538.088 894.579 537.956 894.777 537.956C894.855 537.956 894.934 537.969 895.013 537.996C895.092 538.022 895.211 538.075 895.342 538.127C895.79 538.325 896.277 538.484 896.79 538.589C897.316 538.695 897.829 538.747 898.355 538.747C899.184 538.747 899.829 538.602 900.277 538.312C900.724 538.022 900.961 537.6 900.961 537.059C900.961 536.69 900.842 536.387 900.605 536.136C900.369 535.886 899.921 535.662 899.277 535.451L897.369 534.857C896.408 534.554 895.698 534.105 895.263 533.512C894.829 532.932 894.605 532.286 894.605 531.6C894.605 531.046 894.724 530.558 894.961 530.136C895.198 529.714 895.513 529.345 895.908 529.055C896.303 528.752 896.75 528.527 897.277 528.369C897.803 528.211 898.355 528.145 898.934 528.145C899.224 528.145 899.527 528.158 899.816 528.198C900.119 528.237 900.395 528.29 900.671 528.343C900.934 528.409 901.184 528.475 901.421 528.554C901.658 528.633 901.842 528.712 901.974 528.791C902.158 528.897 902.29 529.002 902.369 529.121C902.448 529.226 902.487 529.371 902.487 529.556V530.176C902.487 530.453 902.382 530.598 902.184 530.598C902.079 530.598 901.908 530.545 901.684 530.44C900.934 530.097 900.092 529.925 899.158 529.925C898.408 529.925 897.816 530.044 897.408 530.295C897 530.545 896.79 530.927 896.79 531.468C896.79 531.837 896.921 532.154 897.184 532.404C897.448 532.655 897.934 532.905 898.632 533.13L900.5 533.723C901.448 534.026 902.132 534.448 902.54 534.989C902.948 535.53 903.145 536.149 903.145 536.835C903.145 537.402 903.027 537.916 902.803 538.365C902.566 538.813 902.25 539.209 901.842 539.525C901.434 539.855 900.948 540.092 900.382 540.264C899.79 540.448 899.171 540.541 898.5 540.541Z" fill="#B3BCDD"/>
<path fill-rule="evenodd" clip-rule="evenodd" d="M900.987 546.949C896.658 550.154 890.369 551.855 884.961 551.855C877.382 551.855 870.553 549.046 865.395 544.378C864.987 544.009 865.356 543.508 865.842 543.798C871.421 547.042 878.303 549.007 885.421 549.007C890.224 549.007 895.5 548.004 900.356 545.947C901.079 545.618 901.698 546.422 900.987 546.949Z" fill="#B3BCDD"/>
<path fill-rule="evenodd" clip-rule="evenodd" d="M902.79 544.892C902.237 544.18 899.132 544.549 897.724 544.721C897.303 544.774 897.237 544.404 897.619 544.127C900.093 542.387 904.158 542.888 904.632 543.468C905.106 544.062 904.501 548.136 902.185 550.088C901.829 550.391 901.487 550.233 901.645 549.837C902.172 548.532 903.343 545.591 902.79 544.892Z" fill="#B3BCDD"/>
</g>
<rect x="351.5" y="177.5" width="57" height="57" rx="28.5" fill="url(#paint13_linear_262_120)"/>
<rect x="351.5" y="177.5" width="57" height="57" rx="28.5" stroke="url(#paint14_linear_262_120)"/>
<g clip-path="url(#clip1_262_120)">
<path d="M385.849 213.791L386.012 213.204C386.206 212.505 386.134 211.861 385.807 211.386C385.502 210.949 385.004 210.693 384.395 210.662L372.858 210.51C372.822 210.51 372.787 210.5 372.755 210.482C372.723 210.465 372.696 210.439 372.675 210.408C372.655 210.377 372.643 210.341 372.638 210.304C372.634 210.267 372.639 210.229 372.652 210.194C372.672 210.135 372.708 210.084 372.755 210.046C372.803 210.008 372.86 209.986 372.919 209.982L384.567 209.823C385.942 209.758 387.445 208.596 387.969 207.178L388.632 205.379C388.65 205.329 388.66 205.275 388.659 205.221C388.658 205.192 388.655 205.163 388.65 205.135C388.288 203.462 387.409 201.958 386.146 200.85C384.884 199.743 383.306 199.094 381.655 199.002C380.003 198.91 378.368 199.38 376.998 200.34C375.628 201.3 374.598 202.698 374.065 204.321C373.499 203.886 372.818 203.642 372.113 203.624C371.408 203.606 370.716 203.814 370.13 204.22C369.544 204.627 369.094 205.211 368.842 205.893C368.589 206.575 368.546 207.321 368.719 208.029C368.033 208.048 367.358 208.217 366.74 208.526C366.121 208.835 365.573 209.277 365.132 209.822C364.691 210.368 364.366 211.004 364.18 211.689C363.994 212.374 363.95 213.092 364.052 213.796C364.059 213.851 364.085 213.902 364.126 213.939C364.167 213.976 364.219 213.997 364.273 213.997H385.578C385.639 213.997 385.698 213.978 385.747 213.941C385.795 213.904 385.831 213.851 385.849 213.791Z" fill="#B3BCDD"/>
<path d="M389.694 205.515C389.592 205.515 389.485 205.518 389.373 205.525C389.356 205.525 389.34 205.529 389.324 205.536C389.296 205.545 389.271 205.562 389.251 205.584C389.231 205.606 389.216 205.633 389.208 205.662L388.75 207.287C388.554 207.985 388.626 208.63 388.955 209.104C389.121 209.329 389.334 209.511 389.579 209.637C389.824 209.762 390.093 209.828 390.366 209.828L392.826 209.986C392.861 209.987 392.895 209.997 392.925 210.014C392.955 210.031 392.981 210.055 393.001 210.085C393.021 210.116 393.035 210.152 393.039 210.19C393.044 210.227 393.039 210.266 393.027 210.301C393.007 210.36 392.971 210.411 392.924 210.449C392.876 210.487 392.819 210.509 392.759 210.514L390.204 210.672C388.816 210.738 387.32 211.899 386.796 213.316L386.612 213.816C386.604 213.837 386.601 213.86 386.603 213.882C386.606 213.904 386.613 213.926 386.625 213.945C386.636 213.964 386.652 213.979 386.671 213.99C386.69 214.002 386.711 214.008 386.732 214.009H395.535C395.588 214.011 395.641 213.993 395.683 213.96C395.726 213.926 395.757 213.878 395.77 213.824C396.032 212.852 396.074 211.83 395.892 210.839C395.711 209.847 395.31 208.912 394.722 208.108C394.134 207.303 393.374 206.651 392.503 206.201C391.631 205.751 390.671 205.516 389.697 205.515H389.694Z" fill="#B3BCDD"/>
</g>
<rect x="41.5" y="621.5" width="57" height="57" rx="28.5" fill="url(#paint15_linear_262_120)"/>
<rect x="41.5" y="621.5" width="57" height="57" rx="28.5" stroke="url(#paint16_linear_262_120)"/>
<path d="M84.6544 657.466C82.1218 658.861 79.2273 659.636 76.1261 659.585C66.9259 659.378 59.6898 651.987 59.8449 642.993C59.8966 639.944 60.8269 637.101 62.3775 634.724C57.4673 637.463 54.1077 642.58 54.0043 648.524C53.7975 657.466 61.0853 664.908 70.2339 665.115C76.3329 665.219 81.6566 662.169 84.6544 657.466Z" fill="#B3BCDD"/>
<path d="M71.216 634C68.735 634 66.4091 634.62 64.3417 635.757C63.0495 637.876 62.3259 640.306 62.2225 642.787C62.0674 650.591 68.4249 657.052 76.3329 657.207C78.7105 657.207 81.3982 656.639 83.4657 655.502C84.7061 653.382 85.4298 650.901 85.4298 648.265C85.5331 640.409 79.124 634 71.216 634Z" fill="#B3BCDD"/>
<rect x="140.5" y="119.5" width="67" height="67" rx="33.5" fill="url(#paint17_linear_262_120)"/>
<rect x="140.5" y="119.5" width="67" height="67" rx="33.5" stroke="url(#paint18_linear_262_120)"/>
<path d="M174.002 169V162.795C180.57 162.795 185.668 156.282 183.146 149.369C182.221 146.829 180.171 144.779 177.613 143.854C170.7 141.35 164.187 146.43 164.187 152.998H158C158 142.529 168.124 134.365 179.101 137.794C183.89 139.3 187.719 143.11 189.206 147.899C192.635 158.876 184.471 169 174.002 169Z" fill="#B3BCDD"/>
<path fill-rule="evenodd" clip-rule="evenodd" d="M174.021 162.831H167.834V156.645H174.021V162.831Z" fill="#B3BCDD"/>
<path fill-rule="evenodd" clip-rule="evenodd" d="M167.834 167.567H163.099V162.831H167.834V167.567Z" fill="#B3BCDD"/>
<path fill-rule="evenodd" clip-rule="evenodd" d="M163.098 162.831H159.125V158.858H163.098V162.831Z" fill="#B3BCDD"/>
<rect x="144.5" y="474.5" width="67" height="67" rx="33.5" fill="url(#paint19_linear_262_120)"/>
<rect x="144.5" y="474.5" width="67" height="67" rx="33.5" stroke="url(#paint20_linear_262_120)"/>
<path d="M173.304 515.478L173.344 500.462H178.622C182.709 500.462 185.149 503.07 185.064 508.095C184.982 512.9 182.436 515.478 178.6 515.478H173.304ZM178.277 512.032C179.48 511.939 180.992 511.434 180.992 508.028C180.992 504.621 179.223 503.898 178.249 503.873C178.132 503.873 177.498 503.873 177.373 503.898V512.032H178.277Z" fill="#B3BCDD"/>
<path d="M185.097 516.259C182.875 518.19 179.977 519.159 177.041 518.956C174.104 518.752 171.368 517.391 169.434 515.173C167.499 512.954 166.524 510.058 166.723 507.121C166.921 504.184 168.277 501.446 170.492 499.507C172.708 497.569 175.602 496.589 178.539 496.782C181.476 496.975 184.217 498.326 186.159 500.538C188.102 502.75 189.087 505.642 188.899 508.58C188.711 511.517 187.365 514.26 185.157 516.207H190.553C192.553 513.148 193.367 509.463 192.843 505.846C192.318 502.229 190.491 498.928 187.704 496.563C184.918 494.198 181.363 492.932 177.709 493.003C174.055 493.073 170.552 494.476 167.859 496.947C165.166 499.418 163.468 502.787 163.083 506.421C162.699 510.056 163.655 513.706 165.771 516.685C167.888 519.665 171.02 521.769 174.578 522.603C178.137 523.436 181.877 522.942 185.097 521.212V516.259Z" fill="#B3BCDD"/>
<path d="M190.57 519.568C190.57 519.974 190.45 520.371 190.224 520.708C189.999 521.046 189.678 521.309 189.303 521.464C188.928 521.619 188.515 521.66 188.117 521.581C187.719 521.501 187.353 521.305 187.066 521.018C186.779 520.731 186.584 520.365 186.505 519.967C186.426 519.568 186.467 519.156 186.623 518.781C186.778 518.406 187.042 518.086 187.38 517.86C187.718 517.635 188.115 517.515 188.521 517.516C188.79 517.516 189.057 517.569 189.306 517.672C189.554 517.775 189.78 517.926 189.971 518.117C190.161 518.308 190.312 518.534 190.415 518.783C190.518 519.032 190.571 519.299 190.57 519.568Z" fill="#B3BCDD"/>
<rect x="682.5" y="86.5" width="67" height="67" rx="33.5" fill="url(#paint21_linear_262_120)"/>
<rect x="682.5" y="86.5" width="67" height="67" rx="33.5" stroke="url(#paint22_linear_262_120)"/>
<path d="M721.402 137.972L732 135.693C732 135.693 728.175 110.006 728.146 109.837C728.118 109.668 727.976 109.555 727.835 109.555C727.693 109.555 725.001 109.359 725.001 109.359C725.001 109.359 723.131 107.502 722.904 107.305C722.847 107.248 722.791 107.22 722.734 107.192L721.402 137.972ZM722.281 107.136C722.252 107.136 722.196 107.164 722.167 107.164C722.139 107.164 721.742 107.277 721.119 107.473C720.495 105.673 719.39 104.013 717.435 104.013C717.378 104.013 717.322 104.013 717.265 104.013C716.698 103.309 716.018 103 715.423 103C710.861 103 708.679 108.655 707.999 111.525C706.242 112.059 704.967 112.453 704.825 112.51C703.834 112.819 703.805 112.847 703.692 113.776C703.579 114.451 701 134.286 701 134.286L720.92 138L722.281 107.136ZM717.095 108.514C717.095 108.571 717.095 108.655 717.095 108.711C715.99 109.049 714.771 109.415 713.581 109.781C714.261 107.192 715.537 105.926 716.642 105.448C716.925 106.179 717.095 107.164 717.095 108.514ZM715.282 104.21C715.48 104.21 715.678 104.266 715.877 104.407C714.431 105.082 712.845 106.798 712.193 110.231C711.229 110.54 710.294 110.822 709.416 111.075C710.181 108.458 712.023 104.21 715.282 104.21ZM716.075 119.487C716.075 119.487 714.885 118.868 713.468 118.868C711.343 118.868 711.258 120.191 711.258 120.528C711.258 122.329 716.018 123.032 716.018 127.281C716.018 130.629 713.893 132.767 711.003 132.767C707.546 132.767 705.789 130.629 705.789 130.629L706.724 127.59C706.724 127.59 708.537 129.137 710.068 129.137C711.059 129.137 711.484 128.35 711.484 127.787C711.484 125.424 707.574 125.311 707.574 121.428C707.574 118.165 709.926 114.986 714.715 114.986C716.557 114.986 717.463 115.52 717.463 115.52L716.075 119.487ZM717.888 105.251C718.909 105.363 719.56 106.517 719.985 107.811C719.475 107.98 718.909 108.149 718.285 108.346C718.285 108.233 718.285 108.121 718.285 107.98C718.285 106.883 718.144 105.982 717.888 105.251Z" fill="#B3BCDD"/>
<rect x="338.5" y="352.5" width="239" height="239" rx="119.5" fill="url(#paint23_linear_262_120)"/>
<rect x="338.5" y="352.5" width="239" height="239" rx="119.5" stroke="url(#paint24_linear_262_120)"/>
<path d="M439.766 507.271C433.719 510.099 426.483 507.452 423.667 501.381L400.668 451.797C397.851 445.751 400.487 438.486 406.508 435.658C412.555 432.83 419.79 435.476 422.607 441.522L445.632 491.106C448.448 497.151 445.813 504.442 439.766 507.271Z" fill="white"/>
<path d="M480.078 507.272C474.031 510.101 466.795 507.454 463.979 501.383L440.98 451.799C438.163 445.727 440.799 438.462 446.846 435.634C452.893 432.806 460.128 435.452 462.945 441.524L485.97 491.108C488.76 497.153 486.125 504.444 480.078 507.272Z" fill="white"/>
<path fill-rule="evenodd" clip-rule="evenodd" d="M516.798 452.914C516.798 463.074 508.595 471.31 498.477 471.31C488.358 471.31 480.155 463.074 480.155 452.914C480.155 442.754 488.358 434.518 498.477 434.518C508.595 434.518 516.798 442.754 516.798 452.914ZM503.128 452.914C503.128 455.494 501.046 457.585 498.477 457.585C495.908 457.585 493.825 455.494 493.825 452.914C493.825 450.335 495.908 448.244 498.477 448.244C501.046 448.244 503.128 450.335 503.128 452.914Z" fill="white"/>
</g>
<defs>
<linearGradient id="paint0_linear_262_120" x1="42" y1="347" x2="42" y2="427" gradientUnits="userSpaceOnUse">
<stop stop-color="#131C3D"/>
<stop offset="1" stop-color="#0D1536"/>
</linearGradient>
<linearGradient id="paint1_linear_262_120" x1="42" y1="347" x2="42" y2="427" gradientUnits="userSpaceOnUse">
<stop stop-color="#2E3552"/>
<stop offset="0.0001" stop-color="#2F3653"/>
<stop offset="1" stop-color="#151E3D"/>
</linearGradient>
<linearGradient id="paint2_linear_262_120" x1="701" y1="286" x2="701" y2="382" gradientUnits="userSpaceOnUse">
<stop stop-color="#131C3D"/>
<stop offset="1" stop-color="#0D1536"/>
</linearGradient>
<linearGradient id="paint3_linear_262_120" x1="701" y1="286" x2="701" y2="382" gradientUnits="userSpaceOnUse">
<stop stop-color="#2E3552"/>
<stop offset="0.0001" stop-color="#2F3653"/>
<stop offset="1" stop-color="#151E3D"/>
</linearGradient>
<linearGradient id="paint4_linear_262_120" x1="712" y1="571" x2="725.266" y2="572.618" gradientUnits="userSpaceOnUse">
<stop stop-color="#A578FF"/>
<stop offset="0.3125" stop-color="#FF83BD"/>
<stop offset="0.625" stop-color="#FFBA6D"/>
<stop offset="1" stop-color="#FBE9BE"/>
</linearGradient>
<linearGradient id="paint5_linear_262_120" x1="599" y1="63" x2="607.844" y2="64.0785" gradientUnits="userSpaceOnUse">
<stop stop-color="#A578FF"/>
<stop offset="0.3125" stop-color="#FF83BD"/>
<stop offset="0.625" stop-color="#FFBA6D"/>
<stop offset="1" stop-color="#FBE9BE"/>
</linearGradient>
<linearGradient id="paint6_linear_262_120" x1="277" y1="72" x2="292.477" y2="73.8874" gradientUnits="userSpaceOnUse">
<stop stop-color="#A578FF"/>
<stop offset="0.3125" stop-color="#FF83BD"/>
<stop offset="0.625" stop-color="#FFBA6D"/>
<stop offset="1" stop-color="#FBE9BE"/>
</linearGradient>
<linearGradient id="paint7_linear_262_120" x1="848" y1="296" x2="859.055" y2="297.348" gradientUnits="userSpaceOnUse">
<stop stop-color="#A578FF"/>
<stop offset="0.3125" stop-color="#FF83BD"/>
<stop offset="0.625" stop-color="#FFBA6D"/>
<stop offset="1" stop-color="#FBE9BE"/>
</linearGradient>
<linearGradient id="paint8_linear_262_120" x1="29" y1="531" x2="37.844" y2="532.078" gradientUnits="userSpaceOnUse">
<stop stop-color="#A578FF"/>
<stop offset="0.3125" stop-color="#FF83BD"/>
<stop offset="0.625" stop-color="#FFBA6D"/>
<stop offset="1" stop-color="#FBE9BE"/>
</linearGradient>
<linearGradient id="paint9_linear_262_120" x1="458" y1="2" x2="458" y2="82" gradientUnits="userSpaceOnUse">
<stop stop-color="#131C3D"/>
<stop offset="1" stop-color="#0D1536"/>
</linearGradient>
<linearGradient id="paint10_linear_262_120" x1="458" y1="2" x2="458" y2="82" gradientUnits="userSpaceOnUse">
<stop stop-color="#2E3552"/>
<stop offset="0.0001" stop-color="#2F3653"/>
<stop offset="1" stop-color="#151E3D"/>
</linearGradient>
<linearGradient id="paint11_linear_262_120" x1="885" y1="503" x2="885" y2="571" gradientUnits="userSpaceOnUse">
<stop stop-color="#131C3D"/>
<stop offset="1" stop-color="#0D1536"/>
</linearGradient>
<linearGradient id="paint12_linear_262_120" x1="885" y1="503" x2="885" y2="571" gradientUnits="userSpaceOnUse">
<stop stop-color="#2E3552"/>
<stop offset="0.0001" stop-color="#2F3653"/>
<stop offset="1" stop-color="#151E3D"/>
</linearGradient>
<linearGradient id="paint13_linear_262_120" x1="380" y1="178" x2="380" y2="234" gradientUnits="userSpaceOnUse">
<stop stop-color="#131C3D"/>
<stop offset="1" stop-color="#0D1536"/>
</linearGradient>
<linearGradient id="paint14_linear_262_120" x1="380" y1="178" x2="380" y2="234" gradientUnits="userSpaceOnUse">
<stop stop-color="#2E3552"/>
<stop offset="0.0001" stop-color="#2F3653"/>
<stop offset="1" stop-color="#151E3D"/>
</linearGradient>
<linearGradient id="paint15_linear_262_120" x1="70" y1="622" x2="70" y2="678" gradientUnits="userSpaceOnUse">
<stop stop-color="#131C3D"/>
<stop offset="1" stop-color="#0D1536"/>
</linearGradient>
<linearGradient id="paint16_linear_262_120" x1="70" y1="622" x2="70" y2="678" gradientUnits="userSpaceOnUse">
<stop stop-color="#2E3552"/>
<stop offset="0.0001" stop-color="#2F3653"/>
<stop offset="1" stop-color="#151E3D"/>
</linearGradient>
<linearGradient id="paint17_linear_262_120" x1="174" y1="120" x2="174" y2="186" gradientUnits="userSpaceOnUse">
<stop stop-color="#131C3D"/>
<stop offset="1" stop-color="#0D1536"/>
</linearGradient>
<linearGradient id="paint18_linear_262_120" x1="174" y1="120" x2="174" y2="186" gradientUnits="userSpaceOnUse">
<stop stop-color="#2E3552"/>
<stop offset="0.0001" stop-color="#2F3653"/>
<stop offset="1" stop-color="#151E3D"/>
</linearGradient>
<linearGradient id="paint19_linear_262_120" x1="178" y1="475" x2="178" y2="541" gradientUnits="userSpaceOnUse">
<stop stop-color="#131C3D"/>
<stop offset="1" stop-color="#0D1536"/>
</linearGradient>
<linearGradient id="paint20_linear_262_120" x1="178" y1="475" x2="178" y2="541" gradientUnits="userSpaceOnUse">
<stop stop-color="#2E3552"/>
<stop offset="0.0001" stop-color="#2F3653"/>
<stop offset="1" stop-color="#151E3D"/>
</linearGradient>
<linearGradient id="paint21_linear_262_120" x1="716" y1="87" x2="716" y2="153" gradientUnits="userSpaceOnUse">
<stop stop-color="#131C3D"/>
<stop offset="1" stop-color="#0D1536"/>
</linearGradient>
<linearGradient id="paint22_linear_262_120" x1="716" y1="87" x2="716" y2="153" gradientUnits="userSpaceOnUse">
<stop stop-color="#2E3552"/>
<stop offset="0.0001" stop-color="#2F3653"/>
<stop offset="1" stop-color="#151E3D"/>
</linearGradient>
<linearGradient id="paint23_linear_262_120" x1="338" y1="472" x2="486.838" y2="355.517" gradientUnits="userSpaceOnUse">
<stop stop-color="#9968FF"/>
<stop offset="0.5" stop-color="#FF6CB2"/>
<stop offset="1" stop-color="#FFAF56"/>
</linearGradient>
<linearGradient id="paint24_linear_262_120" x1="458" y1="592" x2="458" y2="352" gradientUnits="userSpaceOnUse">
<stop stop-color="#E2E8FF" stop-opacity="0"/>
<stop offset="1" stop-color="#E2E8FF" stop-opacity="0.14"/>
</linearGradient>
<clipPath id="clip0_262_120">
<rect width="40" height="24" fill="white" transform="translate(865 528)"/>
</clipPath>
<clipPath id="clip1_262_120">
<rect width="32" height="15" fill="white" transform="translate(364 199)"/>
</clipPath>
</defs>
</svg>
