<svg width="74" height="74" viewBox="0 0 74 74" fill="none" xmlns="http://www.w3.org/2000/svg">
<path fill-rule="evenodd" clip-rule="evenodd" d="M11.4368 14.0148C10.9539 14.0783 10.0644 14.2689 9.4671 14.4595C8.86985 14.6375 7.95491 14.9933 7.4339 15.2601C6.91289 15.527 6.22668 15.9082 5.909 16.1242C5.59131 16.3403 5.01947 16.785 4.62554 17.1281C4.2316 17.4585 3.65977 18.0304 3.35478 18.3735C3.0371 18.7293 2.55421 19.3519 2.27465 19.7713C1.98237 20.1906 1.60115 20.826 1.42324 21.1691C1.24534 21.5249 0.965771 22.173 0.787866 22.6305C0.622668 23.088 0.368518 23.9139 0.241443 24.4731C0.0254149 25.4007 0 26.0488 0 32.0976C0 38.0955 0.0254149 38.8071 0.241443 39.7856C0.368518 40.3829 0.622668 41.2343 0.787866 41.6918C0.965771 42.1492 1.33429 42.9752 1.62656 43.5343C1.91884 44.0935 2.47797 44.9449 2.8719 45.4405C3.25312 45.9361 3.8885 46.6223 4.26973 46.9654C4.65095 47.3212 5.36257 47.8676 5.85817 48.198C6.34105 48.5284 7.19246 49.0113 7.75159 49.2654C8.31072 49.5196 9.25107 49.8754 9.84833 50.066L10.9285 50.3837L43.4597 50.5235C44.4382 50.9682 44.9592 51.3368 45.2515 51.629C45.531 51.934 46.5603 53.5225 47.5388 55.1617C48.8731 57.411 49.4958 58.3386 50.0676 58.9232C50.487 59.3425 51.1223 59.8381 51.4654 60.0414C51.8213 60.232 52.4693 60.4989 52.9268 60.626C53.6766 60.8547 54.1721 60.8801 58.0734 60.8801C61.8602 60.8801 62.5337 60.842 63.5376 60.626C64.173 60.4989 65.0498 60.232 65.5073 60.0541C65.9647 59.8762 66.7653 59.495 67.2863 59.2154C67.8073 58.9231 68.6079 58.4021 69.0527 58.0336C69.5101 57.6778 70.2217 57.0043 70.6411 56.5341C71.0732 56.0767 71.7212 55.1871 72.0897 54.5645C72.4583 53.9545 72.9284 52.9887 73.1445 52.4296C73.3605 51.8705 73.6274 51.0445 73.7417 50.587C73.8942 49.9135 73.945 48.5792 73.9832 43.2802C74.0213 38.8453 73.9959 36.4563 73.8942 35.7192C73.818 35.122 73.6019 34.1816 73.424 33.6225C73.2461 33.0634 72.903 32.2119 72.6616 31.7164C72.4329 31.2208 72.0135 30.5091 71.7594 30.1279C71.5052 29.7467 70.8952 29.0097 70.3997 28.4886C69.9168 27.9803 69.1924 27.3068 68.8112 27.0146C68.43 26.7096 67.6802 26.2394 67.1592 25.9598C66.6382 25.6676 65.8377 25.2991 65.3802 25.1212C64.9227 24.956 64.1221 24.7145 63.6011 24.5874C62.7116 24.3714 61.4663 24.3587 46.446 24.2825L30.2312 24.2189C28.9477 23.4438 28.6173 23.1134 28.2234 22.5034C27.9184 22.0459 26.9908 20.5464 26.1648 19.1486C25.1482 17.4585 24.4238 16.3911 23.941 15.9082C23.5597 15.5143 22.8481 14.9806 22.3525 14.7264C21.8696 14.4595 21.0691 14.1673 20.5862 14.0656C19.9 13.9131 18.8707 13.875 16.0115 13.875C13.991 13.8877 11.9197 13.9512 11.4368 14.0148ZM12.1361 24.8287C11.8184 24.9939 11.3864 25.3497 11.1704 25.6293C10.9416 25.9215 10.7129 26.4171 10.6239 26.8238C10.5223 27.3194 10.4841 28.9586 10.5096 32.6057C10.5477 37.4981 10.5604 37.7141 10.8145 38.197C10.967 38.4766 11.3356 38.9213 11.6405 39.1882C11.9455 39.4551 12.403 39.7219 12.6444 39.7855C12.9113 39.8617 17.5622 39.9125 24.3353 39.9125C35.5053 39.9125 35.5942 39.9125 36.5981 40.1921C37.3224 40.3954 37.8943 40.6623 38.5551 41.107C39.0761 41.4628 39.686 41.9839 39.9148 42.2634C40.1435 42.543 41.1347 44.1187 42.1132 45.758C43.1044 47.41 44.1464 48.9857 44.4513 49.2907C44.769 49.6211 45.2519 49.9388 45.6586 50.0785C46.2812 50.32 46.6879 50.3327 53.6008 50.3327C60.6534 50.3327 60.8822 50.32 61.4413 50.0658C61.759 49.9261 62.1148 49.71 62.2546 49.5957C62.3817 49.4813 62.6358 49.1509 62.8264 48.8713L63.1568 48.363C63.2204 38.1462 63.2076 37.2312 63.0424 36.7992C62.9281 36.5196 62.6612 36.1003 62.4325 35.8588C62.2038 35.6301 61.7844 35.3124 61.5048 35.1599C60.9972 34.8934 60.9332 34.8931 49.3514 34.8298L49.3056 34.8295L37.6147 34.766C36.5346 34.3339 35.8738 33.9908 35.4544 33.7113C35.0351 33.4444 34.4505 32.9488 34.1583 32.593C33.8533 32.2499 32.8113 30.6233 31.8201 28.9841C30.8416 27.3448 29.8504 25.8072 29.6344 25.5784C29.4056 25.3497 28.9355 25.0193 28.5924 24.8414L27.957 24.5364H12.6953L12.1361 24.8287Z" fill="url(#paint0_linear_592_412)"/>
<defs>
<linearGradient id="paint0_linear_592_412" x1="-0.00241471" y1="34.9041" x2="74" y2="34.9034" gradientUnits="userSpaceOnUse">
<stop stop-color="#0052CC"/>
<stop offset="1" stop-color="#0099FF"/>
</linearGradient>
</defs>
</svg>
