<svg width="1193" height="1024" viewBox="0 0 1193 1024" fill="none" xmlns="http://www.w3.org/2000/svg">
<circle opacity="0.6" cx="462.431" cy="512.431" r="245.118" stroke="#0099FF" stroke-linecap="round" stroke-dasharray="8 6"/>
<circle opacity="0.3" cx="462.431" cy="512.431" r="376.431" stroke="#0052CC" stroke-linecap="round" stroke-dasharray="8 6"/>
<rect x="426.914" y="722.032" width="71.0337" height="71.0337" rx="35.5168" fill="url(#paint0_linear_596_303)"/>
<rect x="426.914" y="722.032" width="71.0337" height="71.0337" rx="35.5168" stroke="url(#paint1_linear_596_303)"/>
<path d="M475.717 750.565C475.233 750.486 474.773 750.807 474.668 751.296L472.416 758.859L469.948 750.546H467.381L471.083 760.801C471.369 761.328 471.25 761.988 470.799 762.376C470.429 762.672 470.071 762.672 469.3 762.666H469.115V764.532H469.732C470.799 764.532 471.583 764.488 472.027 764.103C472.56 763.639 472.955 763.032 473.169 762.351L477.278 750.571H475.718V750.565H475.717ZM479.419 751.516C478.697 752.122 478.287 753.033 478.309 753.987C478.276 754.679 478.547 755.349 479.049 755.815C479.512 756.288 480.475 756.71 481.906 757.076C482.264 757.184 482.629 757.266 482.998 757.322C483.517 757.435 485.053 757.769 485.053 758.815C485.048 759.284 484.789 759.711 484.38 759.925C483.925 760.163 483.418 760.283 482.906 760.271C482.255 760.296 481.612 760.125 481.055 759.78C480.645 759.484 480.374 759.027 480.308 758.519H478.056C478.037 759.459 478.442 760.356 479.154 760.952C479.889 761.582 481.005 761.878 482.554 761.878C484.103 761.878 485.386 761.582 486.176 760.99C486.997 760.363 487.459 759.362 487.411 758.317C487.445 757.634 487.191 756.969 486.713 756.489C485.849 755.885 484.872 755.469 483.844 755.267L483.054 755.097C481.351 754.731 480.586 754.271 480.586 753.603C480.568 753.181 480.767 752.779 481.11 752.544C481.557 752.307 482.058 752.198 482.56 752.229C483.125 752.199 483.684 752.359 484.153 752.683H484.19L484.301 752.79C484.388 752.87 484.471 752.957 484.547 753.048C484.739 753.421 485.11 753.661 485.522 753.678H486.979C486.884 752.815 486.469 752.021 485.819 751.46C484.839 750.8 483.677 750.477 482.505 750.54C481.405 750.491 480.321 750.814 479.42 751.46M458.945 751.46C458.222 752.067 457.813 752.981 457.835 753.937C457.783 754.659 458.063 755.365 458.593 755.846C459.056 756.319 460.025 756.741 461.457 757.107C461.816 757.216 462.184 757.298 462.555 757.353C463.073 757.466 464.616 757.8 464.616 758.853C464.614 759.324 464.354 759.754 463.943 759.969C463.486 760.208 462.977 760.327 462.463 760.315C461.802 760.344 461.147 760.173 460.58 759.824C460.171 759.527 459.901 759.071 459.834 758.563H457.575C457.555 759.508 457.963 760.411 458.68 761.008C459.414 761.639 460.531 761.935 462.092 761.935C463.654 761.935 464.937 761.632 465.727 761.046C466.551 760.417 467.014 759.41 466.961 758.361C466.996 757.676 466.742 757.008 466.264 756.527C465.396 755.92 464.415 755.502 463.382 755.298L462.586 755.128C460.877 754.756 460.118 754.296 460.118 753.628C460.101 753.204 460.302 752.803 460.649 752.569C461.097 752.332 461.601 752.223 462.105 752.254C462.673 752.226 463.233 752.387 463.703 752.714H463.74L463.851 752.821C463.939 752.902 464.021 752.988 464.098 753.08C464.291 753.454 464.665 753.695 465.079 753.71H466.548C466.44 752.861 466.023 752.085 465.382 751.535C464.399 750.871 463.233 750.546 462.056 750.609C460.956 750.564 459.871 750.889 458.97 751.535M454.144 750.905C453.367 751.083 452.629 751.405 451.966 751.857C451.26 752.229 450.726 752.869 450.479 753.64C450.081 754.529 449.891 755.5 449.924 756.477V762.01H452.423V756.117C452.353 755.174 452.702 754.248 453.373 753.596C454.147 753.003 455.104 752.715 456.07 752.783H456.687V750.615C455.812 750.62 454.94 750.725 454.089 750.93M439.897 751.561C439.473 751.887 439.141 752.322 438.934 752.821C438.909 752.928 438.878 753.187 439.279 753.187H441.316C441.513 752.886 441.805 752.664 442.143 752.557C442.542 752.427 442.958 752.364 443.377 752.367C443.858 752.358 444.338 752.43 444.796 752.582C445.344 752.688 445.741 753.178 445.74 753.748C445.74 754.914 443.994 755.134 443.42 755.21L442.13 755.387C441.167 755.495 440.24 755.82 439.415 756.338C438.71 756.886 438.336 757.77 438.428 758.67C438.332 759.65 438.75 760.608 439.526 761.192C440.334 761.738 441.285 762.023 442.254 762.011C442.791 762.011 443.42 761.973 444.142 761.904C444.815 761.847 445.473 761.67 446.086 761.381C446.721 761.155 447.247 760.688 447.554 760.076C448.003 759.318 448.218 758.439 448.171 757.555V753.565C448.195 752.677 447.737 751.848 446.98 751.409C445.836 750.818 444.558 750.55 443.278 750.634C442.091 750.556 440.913 750.881 439.927 751.561M441.316 759.912C440.975 759.586 440.787 759.128 440.797 758.651C440.759 758.204 440.918 757.763 441.229 757.447C441.619 757.13 442.079 756.914 442.568 756.817L443.63 756.596C444.222 756.476 444.801 756.294 445.357 756.054L445.826 755.834V757.447C445.974 758.613 445.604 759.193 444.981 759.603C444.355 760.151 443.546 760.433 442.723 760.391C442.213 760.404 441.715 760.235 441.316 759.912Z" fill="#B3BCDD"/>
<rect x="632.638" y="349.103" width="85.0404" height="85.0404" rx="42.5202" fill="url(#paint2_linear_596_303)"/>
<rect x="632.638" y="349.103" width="85.0404" height="85.0404" rx="42.5202" stroke="url(#paint3_linear_596_303)"/>
<path d="M659.138 390.394V372.603L667.974 377.391V385.407L679.671 385.413L688.651 390.394H659.138ZM682.063 383.94V372.603L691.138 377.271V389.297L682.063 383.94ZM682.063 405.685V397.739L670.276 397.73C670.287 397.783 661.147 392.669 661.147 392.669L691.138 392.812V410.603L682.063 405.685ZM659.138 405.685L659.138 394.059L667.974 399.289V410.354L659.138 405.685Z" fill="#B3BCDD"/>
<rect x="684.788" y="599.098" width="10.5051" height="10.5051" rx="5.25253" fill="url(#paint4_linear_596_303)"/>
<rect x="585.865" y="154.384" width="7.00337" height="7.00337" rx="3.50168" fill="url(#paint5_linear_596_303)"/>
<rect x="303.479" y="161.763" width="13.2559" height="13.2559" rx="6.62795" stroke="url(#paint6_linear_596_303)"/>
<rect x="803.345" y="357.857" width="9.75421" height="9.75421" rx="4.8771" stroke="url(#paint7_linear_596_303)"/>
<rect x="86.8755" y="564.081" width="7.00337" height="7.00337" rx="3.50168" fill="url(#paint8_linear_596_303)"/>
<rect x="604.625" y="139.002" width="71.0337" height="71.0337" rx="35.5168" fill="url(#paint9_linear_596_303)"/>
<rect x="604.625" y="139.002" width="71.0337" height="71.0337" rx="35.5168" stroke="url(#paint10_linear_596_303)"/>
<path d="M653.903 159.056C649.954 156.576 644.755 157.167 640.118 160.095C635.495 157.167 630.293 156.576 626.349 159.056C620.109 162.974 619.351 173.064 624.656 181.595C628.567 187.884 634.682 191.569 640.126 191.501C645.57 191.569 651.685 187.884 655.596 181.595C660.894 173.064 660.142 162.974 653.903 159.056ZM627.525 179.793C626.431 178.051 625.605 176.152 625.076 174.162C624.607 172.434 624.427 170.639 624.545 168.852C624.782 165.699 626.059 163.244 628.14 161.938C630.221 160.632 632.972 160.553 635.901 161.721C636.341 161.897 636.776 162.101 637.207 162.326C635.579 163.818 634.164 165.528 633.001 167.408C629.779 172.587 628.797 178.35 629.921 182.944C629.025 181.973 628.222 180.918 627.525 179.793ZM655.177 174.16C654.647 176.15 653.822 178.049 652.729 179.792C652.03 180.918 651.228 181.975 650.332 182.949C651.337 178.831 650.654 173.784 648.19 169.052C648.151 168.974 648.096 168.906 648.028 168.85C647.961 168.795 647.882 168.755 647.798 168.732C647.714 168.709 647.627 168.704 647.541 168.718C647.455 168.731 647.373 168.762 647.299 168.81L639.617 173.632C639.547 173.676 639.486 173.734 639.438 173.801C639.39 173.869 639.356 173.945 639.337 174.026C639.319 174.107 639.316 174.191 639.33 174.272C639.344 174.354 639.373 174.433 639.417 174.503L640.545 176.314C640.588 176.384 640.645 176.445 640.712 176.494C640.779 176.542 640.855 176.576 640.936 176.595C641.016 176.613 641.099 176.616 641.18 176.602C641.262 176.588 641.34 176.559 641.409 176.515L646.389 173.388C646.55 173.873 646.712 174.359 646.832 174.844C647.302 176.57 647.482 178.363 647.365 180.148C647.129 183.299 645.851 185.754 643.771 187.062C642.697 187.721 641.467 188.079 640.21 188.097H640.05C638.792 188.079 637.562 187.721 636.489 187.062C634.407 185.754 633.129 183.299 632.893 180.148C632.775 178.361 632.955 176.566 633.424 174.838C634.504 170.84 636.735 167.252 639.838 164.524C641.176 163.344 642.7 162.396 644.347 161.718C647.269 160.549 650.025 160.627 652.107 161.935C654.189 163.242 655.465 165.696 655.702 168.848C655.821 170.636 655.644 172.431 655.177 174.16Z" fill="#B3BCDD"/>
<rect x="805.972" y="539.069" width="60.5286" height="60.5286" rx="30.2643" fill="url(#paint11_linear_596_303)"/>
<rect x="805.972" y="539.069" width="60.5286" height="60.5286" rx="30.2643" stroke="url(#paint12_linear_596_303)"/>
<g clip-path="url(#clip0_596_303)">
<path d="M827.84 569.325C827.84 569.813 827.892 570.209 827.985 570.499C828.09 570.789 828.221 571.105 828.406 571.448C828.471 571.554 828.498 571.659 828.498 571.751C828.498 571.883 828.419 572.015 828.248 572.147L827.419 572.701C827.3 572.78 827.182 572.82 827.077 572.82C826.945 572.82 826.814 572.754 826.682 572.635C826.498 572.437 826.34 572.226 826.208 572.015C826.077 571.791 825.945 571.54 825.8 571.237C824.774 572.45 823.485 573.057 821.932 573.057C820.827 573.057 819.945 572.74 819.3 572.107C818.656 571.474 818.327 570.631 818.327 569.576C818.327 568.455 818.721 567.545 819.524 566.859C820.327 566.173 821.392 565.831 822.748 565.831C823.195 565.831 823.656 565.87 824.142 565.936C824.629 566.002 825.129 566.107 825.656 566.226V565.264C825.656 564.261 825.445 563.562 825.037 563.154C824.616 562.745 823.906 562.547 822.892 562.547C822.432 562.547 821.958 562.6 821.471 562.718C820.985 562.837 820.511 562.982 820.05 563.167C819.84 563.259 819.682 563.312 819.59 563.338C819.498 563.365 819.432 563.378 819.379 563.378C819.195 563.378 819.103 563.246 819.103 562.969V562.323C819.103 562.112 819.129 561.954 819.195 561.861C819.261 561.769 819.379 561.677 819.564 561.584C820.024 561.347 820.577 561.149 821.221 560.991C821.866 560.82 822.55 560.74 823.274 560.74C824.84 560.74 825.985 561.096 826.721 561.809C827.445 562.521 827.814 563.602 827.814 565.053V569.325H827.84ZM822.498 571.329C822.932 571.329 823.379 571.25 823.853 571.092C824.327 570.934 824.748 570.644 825.103 570.248C825.314 569.998 825.471 569.721 825.55 569.404C825.629 569.088 825.682 568.705 825.682 568.257V567.703C825.3 567.611 824.892 567.532 824.471 567.479C824.05 567.426 823.642 567.4 823.235 567.4C822.353 567.4 821.708 567.571 821.274 567.927C820.84 568.283 820.629 568.784 820.629 569.444C820.629 570.064 820.787 570.525 821.116 570.842C821.432 571.171 821.892 571.329 822.498 571.329ZM833.064 572.754C832.827 572.754 832.669 572.714 832.564 572.622C832.458 572.543 832.366 572.358 832.287 572.107L829.195 561.914C829.116 561.65 829.077 561.479 829.077 561.387C829.077 561.176 829.182 561.057 829.392 561.057H830.682C830.932 561.057 831.103 561.096 831.195 561.189C831.3 561.268 831.379 561.453 831.458 561.703L833.669 570.433L835.721 561.703C835.787 561.439 835.866 561.268 835.971 561.189C836.077 561.11 836.261 561.057 836.498 561.057H837.55C837.8 561.057 837.971 561.096 838.077 561.189C838.182 561.268 838.274 561.453 838.327 561.703L840.406 570.538L842.682 561.703C842.761 561.439 842.853 561.268 842.945 561.189C843.05 561.11 843.221 561.057 843.458 561.057H844.682C844.892 561.057 845.011 561.162 845.011 561.387C845.011 561.453 844.998 561.518 844.985 561.598C844.971 561.677 844.945 561.782 844.892 561.927L841.721 572.121C841.642 572.384 841.55 572.556 841.445 572.635C841.34 572.714 841.169 572.767 840.945 572.767H839.813C839.563 572.767 839.392 572.727 839.287 572.635C839.182 572.543 839.09 572.371 839.037 572.107L836.998 563.602L834.971 572.094C834.906 572.358 834.827 572.529 834.721 572.622C834.616 572.714 834.432 572.754 834.195 572.754H833.064ZM849.971 573.11C849.287 573.11 848.603 573.031 847.945 572.872C847.287 572.714 846.774 572.543 846.432 572.345C846.221 572.226 846.077 572.094 846.024 571.976C845.971 571.857 845.945 571.725 845.945 571.606V570.934C845.945 570.657 846.05 570.525 846.248 570.525C846.327 570.525 846.406 570.538 846.485 570.565C846.563 570.591 846.682 570.644 846.813 570.696C847.261 570.894 847.748 571.053 848.261 571.158C848.787 571.264 849.3 571.316 849.827 571.316C850.656 571.316 851.3 571.171 851.748 570.881C852.195 570.591 852.432 570.169 852.432 569.628C852.432 569.259 852.313 568.956 852.077 568.705C851.84 568.455 851.392 568.231 850.748 568.02L848.84 567.426C847.879 567.123 847.169 566.674 846.735 566.081C846.3 565.501 846.077 564.855 846.077 564.169C846.077 563.615 846.195 563.127 846.432 562.705C846.669 562.283 846.985 561.914 847.379 561.624C847.774 561.321 848.221 561.096 848.748 560.938C849.274 560.78 849.827 560.714 850.406 560.714C850.695 560.714 850.998 560.727 851.287 560.767C851.59 560.806 851.866 560.859 852.142 560.912C852.406 560.978 852.656 561.044 852.892 561.123C853.129 561.202 853.313 561.281 853.445 561.36C853.629 561.466 853.761 561.571 853.84 561.69C853.919 561.795 853.958 561.94 853.958 562.125V562.745C853.958 563.022 853.853 563.167 853.656 563.167C853.55 563.167 853.379 563.114 853.156 563.009C852.406 562.666 851.563 562.494 850.629 562.494C849.879 562.494 849.287 562.613 848.879 562.864C848.471 563.114 848.261 563.496 848.261 564.037C848.261 564.406 848.392 564.723 848.656 564.973C848.919 565.224 849.406 565.474 850.103 565.699L851.971 566.292C852.919 566.595 853.603 567.017 854.011 567.558C854.419 568.099 854.616 568.718 854.616 569.404C854.616 569.971 854.498 570.485 854.274 570.934C854.037 571.382 853.721 571.778 853.313 572.094C852.906 572.424 852.419 572.661 851.853 572.833C851.261 573.017 850.642 573.11 849.971 573.11Z" fill="#B3BCDD"/>
<path fill-rule="evenodd" clip-rule="evenodd" d="M852.458 579.518C848.129 582.723 841.84 584.424 836.432 584.424C828.853 584.424 822.024 581.615 816.866 576.947C816.458 576.578 816.827 576.077 817.314 576.367C822.892 579.611 829.774 581.576 836.892 581.576C841.695 581.576 846.971 580.573 851.827 578.516C852.55 578.187 853.169 578.991 852.458 579.518Z" fill="#B3BCDD"/>
<path fill-rule="evenodd" clip-rule="evenodd" d="M854.261 577.461C853.708 576.749 850.603 577.118 849.195 577.29C848.774 577.343 848.708 576.973 849.09 576.696C851.563 574.956 855.629 575.457 856.103 576.037C856.576 576.631 855.971 580.705 853.655 582.657C853.3 582.96 852.958 582.802 853.116 582.406C853.642 581.101 854.813 578.16 854.261 577.461Z" fill="#B3BCDD"/>
</g>
<rect x="369.136" y="254.557" width="50.0236" height="50.0236" rx="25.0118" fill="url(#paint13_linear_596_303)"/>
<rect x="369.136" y="254.557" width="50.0236" height="50.0236" rx="25.0118" stroke="url(#paint14_linear_596_303)"/>
<g clip-path="url(#clip1_596_303)">
<path d="M400.485 287.848L400.649 287.261C400.843 286.563 400.771 285.918 400.444 285.443C400.139 285.006 399.641 284.75 399.031 284.72L387.495 284.568C387.459 284.567 387.423 284.558 387.392 284.54C387.36 284.522 387.332 284.496 387.312 284.465C387.292 284.434 387.279 284.398 387.275 284.361C387.271 284.324 387.276 284.286 387.289 284.251C387.308 284.192 387.344 284.141 387.392 284.103C387.439 284.066 387.496 284.043 387.556 284.039L399.204 283.881C400.579 283.816 402.081 282.653 402.605 281.235L403.268 279.436C403.287 279.386 403.296 279.332 403.296 279.278C403.295 279.249 403.292 279.221 403.287 279.192C402.925 277.519 402.046 276.015 400.783 274.908C399.52 273.801 397.943 273.151 396.291 273.059C394.64 272.967 393.005 273.437 391.635 274.397C390.264 275.357 389.235 276.756 388.702 278.379C388.136 277.943 387.454 277.699 386.75 277.681C386.045 277.663 385.353 277.871 384.767 278.278C384.181 278.684 383.731 279.268 383.478 279.95C383.226 280.632 383.183 281.378 383.356 282.087C382.67 282.105 381.995 282.274 381.376 282.584C380.758 282.893 380.21 283.334 379.769 283.88C379.327 284.425 379.003 285.061 378.816 285.746C378.63 286.431 378.587 287.149 378.688 287.853C378.696 287.909 378.722 287.959 378.763 287.996C378.803 288.033 378.856 288.054 378.91 288.054H400.215C400.276 288.055 400.335 288.035 400.383 287.998C400.432 287.961 400.468 287.908 400.485 287.848Z" fill="#B3BCDD"/>
<path d="M404.33 279.572C404.228 279.572 404.121 279.576 404.009 279.582C403.992 279.582 403.975 279.586 403.96 279.593C403.932 279.603 403.907 279.619 403.887 279.641C403.866 279.663 403.852 279.69 403.844 279.72L403.386 281.344C403.19 282.042 403.262 282.687 403.59 283.162C403.756 283.387 403.97 283.569 404.215 283.694C404.459 283.82 404.729 283.885 405.002 283.885L407.462 284.044C407.497 284.045 407.53 284.054 407.561 284.071C407.591 284.088 407.617 284.112 407.636 284.142C407.657 284.173 407.67 284.209 407.675 284.247C407.679 284.285 407.675 284.323 407.662 284.359C407.643 284.417 407.607 284.469 407.559 284.506C407.512 284.544 407.455 284.567 407.395 284.571L404.84 284.729C403.451 284.796 401.956 285.956 401.432 287.373L401.247 287.874C401.24 287.895 401.237 287.917 401.239 287.939C401.241 287.962 401.249 287.983 401.26 288.002C401.272 288.021 401.288 288.036 401.307 288.048C401.325 288.059 401.346 288.065 401.368 288.067H410.17C410.224 288.068 410.276 288.05 410.319 288.017C410.362 287.983 410.392 287.935 410.405 287.882C410.668 286.909 410.71 285.888 410.528 284.896C410.346 283.904 409.946 282.97 409.358 282.165C408.77 281.361 408.01 280.708 407.138 280.258C406.267 279.808 405.306 279.574 404.333 279.572H404.33Z" fill="#B3BCDD"/>
</g>
<rect x="97.7559" y="643.244" width="50.0236" height="50.0236" rx="25.0118" fill="url(#paint15_linear_596_303)"/>
<rect x="97.7559" y="643.244" width="50.0236" height="50.0236" rx="25.0118" stroke="url(#paint16_linear_596_303)"/>
<path d="M135.596 674.791C133.379 676.013 130.845 676.692 128.13 676.647C120.076 676.466 113.742 669.995 113.877 662.122C113.923 659.453 114.737 656.964 116.095 654.883C111.796 657.281 108.855 661.76 108.764 666.964C108.584 674.791 114.963 681.307 122.972 681.488C128.311 681.579 132.972 678.909 135.596 674.791Z" fill="#B3BCDD"/>
<path d="M123.832 654.249C121.66 654.249 119.624 654.792 117.814 655.788C116.682 657.643 116.049 659.769 115.958 661.941C115.823 668.774 121.388 674.43 128.311 674.565C130.392 674.565 132.745 674.068 134.555 673.072C135.641 671.217 136.275 669.045 136.275 666.738C136.365 659.86 130.754 654.249 123.832 654.249Z" fill="#B3BCDD"/>
<rect x="184.422" y="203.783" width="58.7778" height="58.7778" rx="29.3889" fill="url(#paint17_linear_596_303)"/>
<rect x="184.422" y="203.783" width="58.7778" height="58.7778" rx="29.3889" stroke="url(#paint18_linear_596_303)"/>
<path d="M213.813 247.178V241.746C219.563 241.746 224.026 236.044 221.818 229.993C221.008 227.77 219.214 225.975 216.974 225.165C210.923 222.973 205.221 227.42 205.221 233.17H199.805C199.805 224.005 208.667 216.858 218.277 219.86C222.47 221.178 225.821 224.514 227.123 228.707C230.125 238.316 222.978 247.178 213.813 247.178Z" fill="#B3BCDD"/>
<path fill-rule="evenodd" clip-rule="evenodd" d="M213.829 241.778H208.413V236.362H213.829V241.778Z" fill="#B3BCDD"/>
<path fill-rule="evenodd" clip-rule="evenodd" d="M208.413 245.924H204.268V241.778H208.413V245.924Z" fill="#B3BCDD"/>
<path fill-rule="evenodd" clip-rule="evenodd" d="M204.268 241.778H200.79V238.3H204.268V241.778Z" fill="#B3BCDD"/>
<rect x="187.924" y="514.557" width="58.7778" height="58.7778" rx="29.3889" fill="url(#paint19_linear_596_303)"/>
<rect x="187.924" y="514.557" width="58.7778" height="58.7778" rx="29.3889" stroke="url(#paint20_linear_596_303)"/>
<path d="M213.203 550.493L213.238 537.347H217.858C221.436 537.347 223.572 539.63 223.498 544.029C223.426 548.236 221.197 550.493 217.839 550.493H213.203ZM217.556 547.476C218.61 547.395 219.933 546.952 219.933 543.97C219.933 540.988 218.384 540.355 217.532 540.333C217.429 540.333 216.875 540.333 216.765 540.355V547.476H217.556Z" fill="#B3BCDD"/>
<path d="M223.526 551.176C221.581 552.866 219.044 553.715 216.474 553.537C213.903 553.359 211.508 552.168 209.814 550.225C208.121 548.283 207.267 545.748 207.441 543.177C207.615 540.606 208.802 538.209 210.741 536.512C212.68 534.815 215.214 533.957 217.785 534.126C220.357 534.295 222.756 535.477 224.456 537.414C226.157 539.35 227.019 541.882 226.855 544.453C226.69 547.025 225.512 549.427 223.579 551.13H228.303C230.053 548.452 230.766 545.227 230.307 542.061C229.848 538.894 228.248 536.005 225.809 533.934C223.369 531.864 220.258 530.756 217.059 530.817C213.86 530.879 210.794 532.107 208.436 534.27C206.078 536.433 204.592 539.382 204.255 542.564C203.918 545.746 204.755 548.941 206.608 551.549C208.461 554.158 211.203 556 214.318 556.73C217.433 557.459 220.708 557.026 223.526 555.512V551.176Z" fill="#B3BCDD"/>
<path d="M228.318 554.073C228.318 554.428 228.213 554.776 228.015 555.071C227.818 555.367 227.537 555.597 227.209 555.733C226.88 555.869 226.519 555.904 226.17 555.835C225.822 555.765 225.502 555.594 225.251 555.343C224.999 555.091 224.828 554.771 224.759 554.422C224.69 554.073 224.726 553.712 224.862 553.384C224.999 553.056 225.229 552.775 225.525 552.578C225.821 552.381 226.168 552.276 226.524 552.276C226.76 552.276 226.993 552.323 227.211 552.413C227.429 552.503 227.627 552.636 227.793 552.803C227.96 552.97 228.092 553.168 228.182 553.386C228.272 553.604 228.319 553.837 228.318 554.073Z" fill="#B3BCDD"/>
<rect x="637.015" y="799.069" width="58.7778" height="58.7778" rx="29.3889" fill="url(#paint21_linear_596_303)"/>
<rect x="637.015" y="799.069" width="58.7778" height="58.7778" rx="29.3889" stroke="url(#paint22_linear_596_303)"/>
<path d="M671.917 846.541L682.515 844.262C682.515 844.262 678.69 818.575 678.661 818.406C678.633 818.237 678.491 818.124 678.35 818.124C678.208 818.124 675.516 817.927 675.516 817.927C675.516 817.927 673.646 816.071 673.419 815.874C673.362 815.817 673.306 815.789 673.249 815.761L671.917 846.541ZM672.796 815.705C672.767 815.705 672.711 815.733 672.682 815.733C672.654 815.733 672.257 815.845 671.634 816.042C671.011 814.242 669.905 812.582 667.95 812.582C667.894 812.582 667.837 812.582 667.78 812.582C667.213 811.878 666.533 811.569 665.938 811.569C661.376 811.569 659.194 817.224 658.514 820.094C656.757 820.628 655.482 821.022 655.341 821.079C654.349 821.388 654.32 821.416 654.207 822.345C654.094 823.02 651.515 842.855 651.515 842.855L671.436 846.569L672.796 815.705ZM667.61 817.083C667.61 817.14 667.61 817.224 667.61 817.28C666.505 817.618 665.287 817.984 664.096 818.35C664.777 815.761 666.052 814.495 667.157 814.017C667.44 814.748 667.61 815.733 667.61 817.083ZM665.797 812.779C665.995 812.779 666.193 812.835 666.392 812.976C664.947 813.651 663.36 815.367 662.708 818.8C661.745 819.109 660.809 819.391 659.931 819.644C660.696 817.027 662.538 812.779 665.797 812.779ZM666.59 828.056C666.59 828.056 665.4 827.437 663.983 827.437C661.858 827.437 661.773 828.759 661.773 829.097C661.773 830.898 666.533 831.601 666.533 835.85C666.533 839.198 664.408 841.336 661.518 841.336C658.061 841.336 656.304 839.198 656.304 839.198L657.239 836.159C657.239 836.159 659.053 837.706 660.583 837.706C661.575 837.706 662 836.919 662 836.356C662 833.993 658.089 833.88 658.089 829.997C658.089 826.734 660.441 823.555 665.23 823.555C667.072 823.555 667.979 824.089 667.979 824.089L666.59 828.056ZM668.404 813.82C669.424 813.932 670.075 815.086 670.501 816.38C669.99 816.549 669.424 816.718 668.8 816.915C668.8 816.802 668.8 816.69 668.8 816.549C668.8 815.452 668.659 814.551 668.404 813.82Z" fill="#B3BCDD"/>
<g filter="url(#filter0_f_596_303)">
<ellipse cx="462.431" cy="638.492" rx="130.438" ry="130.438" fill="#0099FF"/>
</g>
<rect x="357.88" y="407.88" width="209.101" height="209.101" rx="104.551" fill="url(#paint23_linear_596_303)"/>
<rect x="357.88" y="407.88" width="209.101" height="209.101" rx="104.551" stroke="url(#paint24_linear_596_303)"/>
<g clip-path="url(#clip2_596_303)">
<path fill-rule="evenodd" clip-rule="evenodd" d="M411.254 466.41C410.288 466.537 408.509 466.918 407.315 467.3C406.12 467.655 404.29 468.367 403.248 468.901C402.206 469.434 400.834 470.197 400.198 470.629C399.563 471.061 398.419 471.951 397.631 472.637C396.844 473.298 395.7 474.441 395.09 475.127C394.455 475.839 393.489 477.084 392.93 477.923C392.345 478.762 391.583 480.033 391.227 480.719C390.871 481.43 390.312 482.727 389.956 483.641C389.626 484.556 389.117 486.208 388.863 487.327C388.431 489.182 388.38 490.478 388.38 502.576C388.38 514.572 388.431 515.995 388.863 517.952C389.117 519.146 389.626 520.849 389.956 521.764C390.312 522.679 391.049 524.331 391.633 525.449C392.218 526.567 393.336 528.27 394.124 529.261C394.887 530.253 396.157 531.625 396.92 532.311C397.682 533.023 399.106 534.116 400.097 534.777C401.062 535.437 402.765 536.403 403.884 536.911C405.002 537.42 406.883 538.131 408.077 538.513L410.237 539.148L475.3 539.427C477.257 540.317 478.299 541.054 478.883 541.639C479.442 542.249 481.501 545.425 483.458 548.704C486.127 553.202 487.372 555.058 488.516 556.227C489.354 557.065 490.625 558.057 491.311 558.463C492.023 558.845 493.319 559.378 494.234 559.632C495.733 560.09 496.725 560.141 504.527 560.141C512.101 560.141 513.448 560.064 515.456 559.632C516.726 559.378 518.48 558.845 519.395 558.489C520.31 558.133 521.911 557.37 522.953 556.811C523.995 556.227 525.596 555.185 526.486 554.448C527.401 553.736 528.824 552.389 529.663 551.449C530.527 550.534 531.823 548.755 532.56 547.509C533.297 546.29 534.237 544.358 534.669 543.24C535.101 542.121 535.635 540.469 535.864 539.555C536.169 538.208 536.27 535.539 536.347 524.941C536.423 516.071 536.372 511.293 536.169 509.819C536.016 508.624 535.584 506.744 535.228 505.625C534.873 504.507 534.186 502.804 533.704 501.813C533.246 500.822 532.407 499.399 531.899 498.636C531.391 497.874 530.171 496.4 529.18 495.358C528.214 494.341 526.765 492.994 526.003 492.41C525.24 491.8 523.741 490.859 522.699 490.3C521.657 489.716 520.056 488.979 519.141 488.623C518.226 488.292 516.625 487.81 515.583 487.555C513.804 487.123 511.313 487.098 481.272 486.945L448.843 486.818C446.276 485.268 445.615 484.607 444.827 483.387C444.217 482.472 442.362 479.473 440.71 476.678C438.677 473.298 437.228 471.163 436.262 470.197C435.5 469.409 434.077 468.342 433.085 467.833C432.12 467.3 430.519 466.715 429.553 466.512C428.18 466.207 426.122 466.13 420.403 466.13C416.362 466.156 412.22 466.283 411.254 466.41ZM412.653 488.038C412.017 488.368 411.153 489.08 410.721 489.639C410.264 490.224 409.806 491.215 409.628 492.028C409.425 493.019 409.349 496.298 409.4 503.592C409.476 513.377 409.501 513.809 410.009 514.775C410.314 515.334 411.052 516.223 411.661 516.757C412.271 517.291 413.186 517.824 413.669 517.951C414.203 518.104 423.505 518.206 437.051 518.206C459.391 518.206 459.569 518.206 461.577 518.765C463.025 519.171 464.169 519.705 465.491 520.595C466.533 521.306 467.752 522.348 468.21 522.907C468.667 523.466 470.65 526.618 472.607 529.896C474.589 533.2 476.673 536.352 477.283 536.962C477.918 537.623 478.884 538.258 479.698 538.538C480.943 539.02 481.756 539.046 495.582 539.046C509.687 539.046 510.145 539.02 511.263 538.512C511.898 538.233 512.61 537.801 512.89 537.572C513.144 537.343 513.652 536.682 514.033 536.123L514.694 535.107C514.821 514.673 514.796 512.843 514.465 511.979C514.237 511.42 513.703 510.581 513.245 510.098C512.788 509.641 511.949 509.005 511.39 508.7C510.375 508.167 510.247 508.167 487.083 508.04L486.992 508.04L463.61 507.912C461.45 507.048 460.128 506.362 459.289 505.803C458.451 505.269 457.281 504.278 456.697 503.567C456.087 502.88 454.003 499.627 452.021 496.349C450.064 493.07 448.081 489.995 447.649 489.537C447.192 489.08 446.251 488.419 445.565 488.063L444.294 487.453H413.771L412.653 488.038Z" fill="white"/>
</g>
<defs>
<filter id="filter0_f_596_303" x="-268.007" y="-91.9461" width="1460.88" height="1460.88" filterUnits="userSpaceOnUse" color-interpolation-filters="sRGB">
<feFlood flood-opacity="0" result="BackgroundImageFix"/>
<feBlend mode="normal" in="SourceGraphic" in2="BackgroundImageFix" result="shape"/>
<feGaussianBlur stdDeviation="300" result="effect1_foregroundBlur_596_303"/>
</filter>
<linearGradient id="paint0_linear_596_303" x1="462.431" y1="722.532" x2="462.431" y2="792.566" gradientUnits="userSpaceOnUse">
<stop stop-color="#131C3D"/>
<stop offset="1" stop-color="#0D1536"/>
</linearGradient>
<linearGradient id="paint1_linear_596_303" x1="462.431" y1="722.532" x2="462.431" y2="792.566" gradientUnits="userSpaceOnUse">
<stop stop-color="#2E3552"/>
<stop offset="0.0001" stop-color="#2F3653"/>
<stop offset="1" stop-color="#151E3D"/>
</linearGradient>
<linearGradient id="paint2_linear_596_303" x1="675.158" y1="349.603" x2="675.158" y2="433.643" gradientUnits="userSpaceOnUse">
<stop stop-color="#131C3D"/>
<stop offset="1" stop-color="#0D1536"/>
</linearGradient>
<linearGradient id="paint3_linear_596_303" x1="675.158" y1="349.603" x2="675.158" y2="433.643" gradientUnits="userSpaceOnUse">
<stop stop-color="#2E3552"/>
<stop offset="0.0001" stop-color="#2F3653"/>
<stop offset="1" stop-color="#151E3D"/>
</linearGradient>
<linearGradient id="paint4_linear_596_303" x1="684.788" y1="604.35" x2="695.293" y2="604.35" gradientUnits="userSpaceOnUse">
<stop stop-color="#0052CC"/>
<stop offset="1" stop-color="#0099FF"/>
</linearGradient>
<linearGradient id="paint5_linear_596_303" x1="585.865" y1="157.886" x2="592.869" y2="157.886" gradientUnits="userSpaceOnUse">
<stop stop-color="#0052CC"/>
<stop offset="1" stop-color="#0099FF"/>
</linearGradient>
<linearGradient id="paint6_linear_596_303" x1="303.979" y1="168.391" x2="316.235" y2="168.391" gradientUnits="userSpaceOnUse">
<stop stop-color="#0052CC"/>
<stop offset="1" stop-color="#0099FF"/>
</linearGradient>
<linearGradient id="paint7_linear_596_303" x1="803.845" y1="362.734" x2="812.599" y2="362.734" gradientUnits="userSpaceOnUse">
<stop stop-color="#0052CC"/>
<stop offset="1" stop-color="#0099FF"/>
</linearGradient>
<linearGradient id="paint8_linear_596_303" x1="86.8755" y1="567.583" x2="93.8789" y2="567.583" gradientUnits="userSpaceOnUse">
<stop stop-color="#0052CC"/>
<stop offset="1" stop-color="#0099FF"/>
</linearGradient>
<linearGradient id="paint9_linear_596_303" x1="640.141" y1="139.502" x2="640.141" y2="209.535" gradientUnits="userSpaceOnUse">
<stop stop-color="#131C3D"/>
<stop offset="1" stop-color="#0D1536"/>
</linearGradient>
<linearGradient id="paint10_linear_596_303" x1="640.141" y1="139.502" x2="640.141" y2="209.535" gradientUnits="userSpaceOnUse">
<stop stop-color="#2E3552"/>
<stop offset="0.0001" stop-color="#2F3653"/>
<stop offset="1" stop-color="#151E3D"/>
</linearGradient>
<linearGradient id="paint11_linear_596_303" x1="836.236" y1="539.569" x2="836.236" y2="599.098" gradientUnits="userSpaceOnUse">
<stop stop-color="#131C3D"/>
<stop offset="1" stop-color="#0D1536"/>
</linearGradient>
<linearGradient id="paint12_linear_596_303" x1="836.236" y1="539.569" x2="836.236" y2="599.098" gradientUnits="userSpaceOnUse">
<stop stop-color="#2E3552"/>
<stop offset="0.0001" stop-color="#2F3653"/>
<stop offset="1" stop-color="#151E3D"/>
</linearGradient>
<linearGradient id="paint13_linear_596_303" x1="394.148" y1="255.057" x2="394.148" y2="304.081" gradientUnits="userSpaceOnUse">
<stop stop-color="#131C3D"/>
<stop offset="1" stop-color="#0D1536"/>
</linearGradient>
<linearGradient id="paint14_linear_596_303" x1="394.148" y1="255.057" x2="394.148" y2="304.081" gradientUnits="userSpaceOnUse">
<stop stop-color="#2E3552"/>
<stop offset="0.0001" stop-color="#2F3653"/>
<stop offset="1" stop-color="#151E3D"/>
</linearGradient>
<linearGradient id="paint15_linear_596_303" x1="122.768" y1="643.744" x2="122.768" y2="692.768" gradientUnits="userSpaceOnUse">
<stop stop-color="#131C3D"/>
<stop offset="1" stop-color="#0D1536"/>
</linearGradient>
<linearGradient id="paint16_linear_596_303" x1="122.768" y1="643.744" x2="122.768" y2="692.768" gradientUnits="userSpaceOnUse">
<stop stop-color="#2E3552"/>
<stop offset="0.0001" stop-color="#2F3653"/>
<stop offset="1" stop-color="#151E3D"/>
</linearGradient>
<linearGradient id="paint17_linear_596_303" x1="213.811" y1="204.283" x2="213.811" y2="262.061" gradientUnits="userSpaceOnUse">
<stop stop-color="#131C3D"/>
<stop offset="1" stop-color="#0D1536"/>
</linearGradient>
<linearGradient id="paint18_linear_596_303" x1="213.811" y1="204.283" x2="213.811" y2="262.061" gradientUnits="userSpaceOnUse">
<stop stop-color="#2E3552"/>
<stop offset="0.0001" stop-color="#2F3653"/>
<stop offset="1" stop-color="#151E3D"/>
</linearGradient>
<linearGradient id="paint19_linear_596_303" x1="217.313" y1="515.057" x2="217.313" y2="572.835" gradientUnits="userSpaceOnUse">
<stop stop-color="#131C3D"/>
<stop offset="1" stop-color="#0D1536"/>
</linearGradient>
<linearGradient id="paint20_linear_596_303" x1="217.313" y1="515.057" x2="217.313" y2="572.835" gradientUnits="userSpaceOnUse">
<stop stop-color="#2E3552"/>
<stop offset="0.0001" stop-color="#2F3653"/>
<stop offset="1" stop-color="#151E3D"/>
</linearGradient>
<linearGradient id="paint21_linear_596_303" x1="666.404" y1="799.569" x2="666.404" y2="857.347" gradientUnits="userSpaceOnUse">
<stop stop-color="#131C3D"/>
<stop offset="1" stop-color="#0D1536"/>
</linearGradient>
<linearGradient id="paint22_linear_596_303" x1="666.404" y1="799.569" x2="666.404" y2="857.347" gradientUnits="userSpaceOnUse">
<stop stop-color="#2E3552"/>
<stop offset="0.0001" stop-color="#2F3653"/>
<stop offset="1" stop-color="#151E3D"/>
</linearGradient>
<linearGradient id="paint23_linear_596_303" x1="357.38" y1="512.433" x2="567.481" y2="512.433" gradientUnits="userSpaceOnUse">
<stop stop-color="#0052CC"/>
<stop offset="1" stop-color="#0099FF"/>
</linearGradient>
<linearGradient id="paint24_linear_596_303" x1="462.431" y1="617.482" x2="462.431" y2="407.38" gradientUnits="userSpaceOnUse">
<stop stop-color="#E2E8FF" stop-opacity="0"/>
<stop offset="1" stop-color="#E2E8FF" stop-opacity="0.14"/>
</linearGradient>
<clipPath id="clip0_596_303">
<rect width="40" height="24" fill="white" transform="translate(816.472 560.569)"/>
</clipPath>
<clipPath id="clip1_596_303">
<rect width="32" height="15" fill="white" transform="translate(378.636 273.057)"/>
</clipPath>
<clipPath id="clip2_596_303">
<rect width="148" height="148" fill="white" transform="translate(388.38 438.38)"/>
</clipPath>
</defs>
</svg>
