<svg width="155" height="42" viewBox="0 0 155 42" fill="none" xmlns="http://www.w3.org/2000/svg">
<g clip-path="url(#clip0_94_22)">
<path d="M7.2488 34.5694H2V40H7.2488V34.5694Z" fill="url(#paint0_linear_94_22)"/>
<path d="M32 21.0035C32 26.2528 29.9019 31.0002 26.5104 34.437C23.119 37.8738 18.4274 40 13.2543 40H12.3463V34.5694H13.1993C16.9003 34.5694 20.2435 33.0497 22.665 30.5959C25.0864 28.142 26.5861 24.747 26.5861 21.0035C26.5861 13.5094 20.5944 7.43753 13.1993 7.43753H2V2H13.2474C23.6005 2 32 10.5049 32 21.0035Z" fill="white"/>
<path d="M13.2956 12.652H2V29.348H13.2956C15.5726 29.348 17.6294 28.4139 19.1222 26.9011C20.615 25.3884 21.5368 23.304 21.5368 20.9965C21.5368 16.3886 17.8496 12.652 13.2956 12.652ZM14.5682 23.6874C13.8872 24.3775 12.9516 24.8028 11.9129 24.8028H7.55148V17.1972H11.9197C13.9904 17.1972 15.6689 18.8982 15.6689 20.9965C15.6689 22.0492 15.2493 23.0042 14.5682 23.6874Z" fill="white"/>
</g>
<path d="M46.2727 30H39.8651V11.0909H46.402C48.2794 11.0909 49.892 11.4695 51.2401 12.2266C52.5942 12.9775 53.6345 14.0578 54.3608 15.4673C55.0871 16.8769 55.4503 18.5634 55.4503 20.527C55.4503 22.4967 55.084 24.1894 54.3516 25.6051C53.6252 27.0208 52.5758 28.1072 51.2031 28.8643C49.8366 29.6215 48.1932 30 46.2727 30ZM43.2905 27.0362H46.1065C47.4238 27.0362 48.5225 26.7962 49.4027 26.3161C50.2829 25.8298 50.9446 25.1065 51.3878 24.1463C51.831 23.1799 52.0526 21.9735 52.0526 20.527C52.0526 19.0805 51.831 17.8802 51.3878 16.9261C50.9446 15.9659 50.2891 15.2488 49.4212 14.7749C48.5594 14.2947 47.4884 14.0547 46.2081 14.0547H43.2905V27.0362Z" fill="url(#paint1_linear_94_22)"/>
<path d="M74.244 11.0909V30H71.1971L62.2873 17.12H62.1303V30H58.7049V11.0909H61.7702L70.6708 23.9801H70.837V11.0909H74.244Z" fill="url(#paint2_linear_94_22)"/>
<path d="M88.2527 16.2891C88.1665 15.4827 87.8033 14.8549 87.1632 14.4055C86.5292 13.9562 85.7044 13.7315 84.6887 13.7315C83.9747 13.7315 83.3623 13.8393 82.8514 14.0547C82.3405 14.2701 81.9496 14.5625 81.6788 14.9318C81.408 15.3011 81.2695 15.7228 81.2633 16.1967C81.2633 16.5907 81.3526 16.9323 81.5311 17.2216C81.7157 17.5109 81.965 17.7571 82.2789 17.9602C82.5929 18.1572 82.9406 18.3234 83.3223 18.4588C83.7039 18.5942 84.0886 18.7081 84.4764 18.8004L86.2491 19.2436C86.9631 19.4098 87.6494 19.6345 88.3081 19.9176C88.9728 20.2008 89.5668 20.5578 90.09 20.9886C90.6194 21.4195 91.0379 21.9396 91.3457 22.549C91.6535 23.1584 91.8073 23.8724 91.8073 24.6911C91.8073 25.799 91.5242 26.7746 90.9579 27.6179C90.3916 28.455 89.573 29.1106 88.5019 29.5845C87.4371 30.0523 86.1475 30.2862 84.6333 30.2862C83.1622 30.2862 81.885 30.0585 80.8017 29.603C79.7245 29.1475 78.8812 28.4827 78.2718 27.6087C77.6686 26.7346 77.3424 25.6697 77.2931 24.4141H80.6632C80.7124 25.0727 80.9155 25.6205 81.2725 26.0575C81.6296 26.4946 82.0943 26.8208 82.6667 27.0362C83.2453 27.2517 83.8916 27.3594 84.6056 27.3594C85.3504 27.3594 86.0029 27.2486 86.563 27.027C87.1293 26.7992 87.5725 26.4853 87.8926 26.0852C88.2127 25.679 88.3758 25.205 88.3819 24.6634C88.3758 24.1709 88.2311 23.7647 87.948 23.4446C87.6648 23.1184 87.2678 22.8475 86.7569 22.6321C86.2522 22.4105 85.6613 22.2135 84.9842 22.0412L82.8329 21.4872C81.2756 21.0871 80.0446 20.4808 79.1397 19.6683C78.2411 18.8497 77.7917 17.7633 77.7917 16.4091C77.7917 15.295 78.0933 14.3194 78.6965 13.4822C79.3059 12.6451 80.1338 11.9957 81.1802 11.5341C82.2266 11.0663 83.4115 10.8324 84.7349 10.8324C86.0768 10.8324 87.2524 11.0663 88.2619 11.5341C89.2775 11.9957 90.0746 12.639 90.6532 13.4638C91.2318 14.2824 91.5304 15.2242 91.5488 16.2891H88.2527Z" fill="url(#paint3_linear_94_22)"/>
<path d="M101.269 30H94.8611V11.0909H101.398C103.275 11.0909 104.888 11.4695 106.236 12.2266C107.59 12.9775 108.631 14.0578 109.357 15.4673C110.083 16.8769 110.446 18.5634 110.446 20.527C110.446 22.4967 110.08 24.1894 109.348 25.6051C108.621 27.0208 107.572 28.1072 106.199 28.8643C104.833 29.6215 103.189 30 101.269 30ZM98.2866 27.0362H101.103C102.42 27.0362 103.519 26.7962 104.399 26.3161C105.279 25.8298 105.941 25.1065 106.384 24.1463C106.827 23.1799 107.049 21.9735 107.049 20.527C107.049 19.0805 106.827 17.8802 106.384 16.9261C105.941 15.9659 105.285 15.2488 104.417 14.7749C103.556 14.2947 102.484 14.0547 101.204 14.0547H98.2866V27.0362Z" fill="url(#paint4_linear_94_22)"/>
<path d="M115.114 30H111.457L118.114 11.0909H122.343L129.009 30H125.353L120.303 14.9688H120.155L115.114 30ZM115.234 22.5859H125.205V25.3374H115.234V22.5859Z" fill="url(#paint5_linear_94_22)"/>
<path d="M137.907 30H131.5V11.0909H138.037C139.914 11.0909 141.527 11.4695 142.875 12.2266C144.229 12.9775 145.269 14.0578 145.996 15.4673C146.722 16.8769 147.085 18.5634 147.085 20.527C147.085 22.4967 146.719 24.1894 145.986 25.6051C145.26 27.0208 144.211 28.1072 142.838 28.8643C141.471 29.6215 139.828 30 137.907 30ZM134.925 27.0362H137.741C139.059 27.0362 140.157 26.7962 141.037 26.3161C141.918 25.8298 142.579 25.1065 143.023 24.1463C143.466 23.1799 143.687 21.9735 143.687 20.527C143.687 19.0805 143.466 17.8802 143.023 16.9261C142.579 15.9659 141.924 15.2488 141.056 14.7749C140.194 14.2947 139.123 14.0547 137.843 14.0547H134.925V27.0362Z" fill="url(#paint6_linear_94_22)"/>
<defs>
<linearGradient id="paint0_linear_94_22" x1="2" y1="34.5694" x2="7.80818" y2="35.254" gradientUnits="userSpaceOnUse">
<stop stop-color="#A578FF"/>
<stop offset="0.3125" stop-color="#FF83BD"/>
<stop offset="0.625" stop-color="#FFBA6D"/>
<stop offset="1" stop-color="#FBE9BE"/>
</linearGradient>
<linearGradient id="paint1_linear_94_22" x1="39.8651" y1="10.8324" x2="122.729" y2="66.5252" gradientUnits="userSpaceOnUse">
<stop stop-color="#A578FF"/>
<stop offset="0.3125" stop-color="#FF83BD"/>
<stop offset="0.625" stop-color="#FFBA6D"/>
<stop offset="1" stop-color="#FBE9BE"/>
</linearGradient>
<linearGradient id="paint2_linear_94_22" x1="39.8651" y1="10.8324" x2="122.729" y2="66.5252" gradientUnits="userSpaceOnUse">
<stop stop-color="#A578FF"/>
<stop offset="0.3125" stop-color="#FF83BD"/>
<stop offset="0.625" stop-color="#FFBA6D"/>
<stop offset="1" stop-color="#FBE9BE"/>
</linearGradient>
<linearGradient id="paint3_linear_94_22" x1="39.8651" y1="10.8324" x2="122.729" y2="66.5252" gradientUnits="userSpaceOnUse">
<stop stop-color="#A578FF"/>
<stop offset="0.3125" stop-color="#FF83BD"/>
<stop offset="0.625" stop-color="#FFBA6D"/>
<stop offset="1" stop-color="#FBE9BE"/>
</linearGradient>
<linearGradient id="paint4_linear_94_22" x1="39.8651" y1="10.8324" x2="122.729" y2="66.5252" gradientUnits="userSpaceOnUse">
<stop stop-color="#A578FF"/>
<stop offset="0.3125" stop-color="#FF83BD"/>
<stop offset="0.625" stop-color="#FFBA6D"/>
<stop offset="1" stop-color="#FBE9BE"/>
</linearGradient>
<linearGradient id="paint5_linear_94_22" x1="39.8651" y1="10.8324" x2="122.729" y2="66.5252" gradientUnits="userSpaceOnUse">
<stop stop-color="#A578FF"/>
<stop offset="0.3125" stop-color="#FF83BD"/>
<stop offset="0.625" stop-color="#FFBA6D"/>
<stop offset="1" stop-color="#FBE9BE"/>
</linearGradient>
<linearGradient id="paint6_linear_94_22" x1="39.8651" y1="10.8324" x2="122.729" y2="66.5252" gradientUnits="userSpaceOnUse">
<stop stop-color="#A578FF"/>
<stop offset="0.3125" stop-color="#FF83BD"/>
<stop offset="0.625" stop-color="#FFBA6D"/>
<stop offset="1" stop-color="#FBE9BE"/>
</linearGradient>
<clipPath id="clip0_94_22">
<rect width="30" height="38" fill="white" transform="translate(2 2)"/>
</clipPath>
</defs>
</svg>
