<svg width="557" height="168" viewBox="0 0 557 168" fill="none" xmlns="http://www.w3.org/2000/svg">
<g style="mix-blend-mode:soft-light">
<path d="M0 117H45L78 84H314" stroke="white"/>
<path d="M0 167H172L188 151H257.5" stroke="white"/>
<circle cx="257" cy="151" r="2" fill="white"/>
<g opacity="0.5">
<path d="M0 126.5H70L97.5 99H109" stroke="white"/>
<circle cx="110" cy="99" r="2" fill="white"/>
</g>
<g opacity="0.8">
<path d="M0 144.5H90L103.5 131H136.5" stroke="white"/>
<circle cx="136" cy="131" r="2" fill="white"/>
</g>
<g opacity="0.6">
<path d="M0 150.5H144L177.5 117" stroke="white"/>
<circle cx="177" cy="117" r="2" fill="white"/>
</g>
<path d="M0 130.5H75.5L99 107" stroke="white"/>
<circle cx="99" cy="107" r="2" fill="white"/>
<path d="M0 51H45L78 84H249" stroke="white"/>
<path d="M0 1H172L188 17H257.5" stroke="white"/>
<circle cx="2" cy="2" r="2" transform="matrix(1 0 0 -1 255 19)" fill="white"/>
<g opacity="0.5">
<path d="M0 41.5H70L97.5 69H109" stroke="white"/>
<circle cx="2" cy="2" r="2" transform="matrix(1 0 0 -1 108 71)" fill="white"/>
</g>
<g opacity="0.8">
<path d="M0 23.5H90L103.5 37H136.5" stroke="white"/>
<circle cx="2" cy="2" r="2" transform="matrix(1 0 0 -1 134 39)" fill="white"/>
</g>
<g opacity="0.6">
<path d="M0 17.5H144L177.5 51" stroke="white"/>
<circle cx="2" cy="2" r="2" transform="matrix(1 0 0 -1 175 53)" fill="white"/>
</g>
<path d="M0 37.5H75.5L99 61" stroke="white"/>
<circle cx="2" cy="2" r="2" transform="matrix(1 0 0 -1 97 63)" fill="white"/>
<path d="M557 117H512L479 84H243" stroke="white"/>
<path d="M557 167H385L369 151H299.5" stroke="white"/>
<circle cx="2" cy="2" r="2" transform="matrix(-1 0 0 1 302 149)" fill="white"/>
<g opacity="0.5">
<path d="M557 126.5H487L459.5 99H448" stroke="white"/>
<circle cx="2" cy="2" r="2" transform="matrix(-1 0 0 1 449 97)" fill="white"/>
</g>
<g opacity="0.8">
<path d="M557 144.5H467L453.5 131H420.5" stroke="white"/>
<circle cx="2" cy="2" r="2" transform="matrix(-1 0 0 1 423 129)" fill="white"/>
</g>
<g opacity="0.6">
<path d="M557 150.5H413L379.5 117" stroke="white"/>
<circle cx="2" cy="2" r="2" transform="matrix(-1 0 0 1 382 115)" fill="white"/>
</g>
<path d="M557 130.5H481.5L458 107" stroke="white"/>
<circle cx="2" cy="2" r="2" transform="matrix(-1 0 0 1 460 105)" fill="white"/>
<path d="M557 51H512L479 84H308" stroke="white"/>
<path d="M557 1H385L369 17H299.5" stroke="white"/>
<circle cx="300" cy="17" r="2" transform="rotate(180 300 17)" fill="white"/>
<g opacity="0.5">
<path d="M557 41.5H487L459.5 69H448" stroke="white"/>
<circle cx="447" cy="69" r="2" transform="rotate(180 447 69)" fill="white"/>
</g>
<g opacity="0.8">
<path d="M557 23.5H467L453.5 37H420.5" stroke="white"/>
<circle cx="421" cy="37" r="2" transform="rotate(180 421 37)" fill="white"/>
</g>
<g opacity="0.6">
<path d="M557 17.5H413L379.5 51" stroke="white"/>
<circle cx="380" cy="51" r="2" transform="rotate(180 380 51)" fill="white"/>
</g>
<path d="M557 37.5H481.5L458 61" stroke="white"/>
<circle cx="458" cy="61" r="2" transform="rotate(180 458 61)" fill="white"/>
</g>
</svg>
