<svg width="164" height="46" viewBox="0 0 164 46" fill="none" xmlns="http://www.w3.org/2000/svg">
<path d="M16.0767 36.5211C13.7491 37.6053 10.9639 36.5908 9.87967 34.2634L1.02682 15.2562C-0.0574017 12.9387 0.957194 10.1538 3.27485 9.06963C5.60245 7.9855 8.38762 9.00001 9.47184 11.3175L18.3346 30.3247C19.4189 32.6421 18.4043 35.437 16.0767 36.5211Z" fill="white"/>
<path d="M31.594 36.5211C29.2664 37.6053 26.4812 36.5907 25.397 34.2633L16.5441 15.2561C15.4599 12.9287 16.4745 10.1438 18.8021 9.05967C21.1297 7.97553 23.9149 8.99004 24.9991 11.3175L33.8619 30.3246C34.9362 32.6421 33.9216 35.437 31.594 36.5211Z" fill="white"/>
<path fill-rule="evenodd" clip-rule="evenodd" d="M45.7287 15.6837C45.7287 19.5783 42.5712 22.7355 38.6763 22.7355C34.7813 22.7355 31.6238 19.5783 31.6238 15.6837C31.6238 11.7891 34.7813 8.63184 38.6763 8.63184C42.5712 8.63184 45.7287 11.7891 45.7287 15.6837ZM40.4667 15.6837C40.4667 16.6725 39.6651 17.474 38.6763 17.474C37.6874 17.474 36.8858 16.6725 36.8858 15.6837C36.8858 14.6949 37.6874 13.8934 38.6763 13.8934C39.6651 13.8934 40.4667 14.6949 40.4667 15.6837Z" fill="white"/>
<path d="M60.6203 33.0626L55.151 14.4326H58.4378L62.1663 27.8876L65.8818 14.4585L69.1686 14.4326L72.8971 27.8876L76.6126 14.4326H79.8994L74.4431 33.0626H71.3512L67.5187 19.8146L63.7123 33.0626H60.6203Z" fill="white"/>
<path d="M87.3717 33.4119C86.4363 33.4119 85.5529 33.2308 84.7214 32.8686C83.89 32.5063 83.1668 31.9931 82.5519 31.329C81.9456 30.6649 81.5083 29.88 81.2398 28.9744L84.2667 28.1593C84.4833 28.9011 84.8773 29.4746 85.449 29.88C86.0292 30.2767 86.6658 30.4708 87.3587 30.4622C87.9736 30.4622 88.5236 30.3199 89.0086 30.0352C89.4936 29.7506 89.8747 29.3668 90.1518 28.8838C90.429 28.3922 90.5675 27.8445 90.5675 27.2407C90.5675 26.3179 90.2687 25.5459 89.6711 24.9249C89.0735 24.3039 88.3027 23.9934 87.3587 23.9934C87.0729 23.9934 86.7914 24.0322 86.5142 24.1099C86.2458 24.1875 85.9859 24.2953 85.7348 24.4333L84.3057 21.9752L90.5935 16.6191L90.8663 17.3694H81.9673V14.4326H93.4386V17.3824L88.385 22.221L88.359 21.3024C89.4936 21.3801 90.4593 21.6949 91.2561 22.2469C92.0615 22.7989 92.6764 23.5104 93.1008 24.3816C93.5339 25.2527 93.7504 26.2057 93.7504 27.2407C93.7504 28.4137 93.4603 29.466 92.88 30.3975C92.3084 31.329 91.5375 32.0664 90.5675 32.6098C89.6062 33.1446 88.5409 33.4119 87.3717 33.4119Z" fill="white"/>
<path d="M97.1166 33.0626V14.4326H103.08C103.235 14.4326 103.543 14.4369 104.002 14.4456C104.47 14.4542 104.92 14.4844 105.353 14.5361C106.834 14.7259 108.086 15.252 109.108 16.1145C110.138 16.9684 110.918 18.0594 111.446 19.3877C111.974 20.7159 112.238 22.1692 112.238 23.7476C112.238 25.326 111.974 26.7793 111.446 28.1076C110.918 29.4358 110.138 30.5312 109.108 31.3937C108.086 32.2476 106.834 32.7694 105.353 32.9591C104.929 33.0109 104.483 33.0411 104.015 33.0497C103.547 33.0583 103.235 33.0626 103.08 33.0626H97.1166ZM100.299 30.1258H103.08C103.339 30.1258 103.669 30.1172 104.067 30.0999C104.474 30.0827 104.833 30.0439 105.145 29.9835C106.029 29.8196 106.747 29.4272 107.302 28.8062C107.856 28.1852 108.263 27.4305 108.523 26.5421C108.791 25.6537 108.926 24.7222 108.926 23.7476C108.926 22.7385 108.791 21.7897 108.523 20.9014C108.254 20.013 107.839 19.2669 107.276 18.6632C106.721 18.0594 106.011 17.6756 105.145 17.5117C104.833 17.4427 104.474 17.4039 104.067 17.3953C103.669 17.3781 103.339 17.3694 103.08 17.3694H100.299V30.1258Z" fill="white"/>
<path d="M113.503 33.0626L119.401 14.4326H123.987L129.885 33.0626H126.663L121.311 16.3474H122.012L116.725 33.0626H113.503ZM116.79 29.0261V26.1152H126.611V29.0261H116.79Z" fill="white"/>
<path d="M132.234 33.0626V14.4326H139.964C140.145 14.4326 140.379 14.4412 140.665 14.4585C140.951 14.4671 141.215 14.493 141.458 14.5361C142.54 14.7 143.432 15.0579 144.134 15.6099C144.844 16.1619 145.368 16.8606 145.706 17.7058C146.052 18.5424 146.225 19.4739 146.225 20.5003C146.225 22.0183 145.84 23.325 145.069 24.4204C144.298 25.5071 143.116 26.1799 141.522 26.4386L140.184 26.5551H135.365V33.0626H132.234ZM142.978 33.0626L139.288 25.4812L142.471 24.7826L146.524 33.0626H142.978ZM135.365 23.6441H139.834C140.007 23.6441 140.202 23.6355 140.418 23.6182C140.635 23.601 140.834 23.5665 141.016 23.5147C141.535 23.3854 141.943 23.1568 142.237 22.8291C142.54 22.5013 142.752 22.1304 142.874 21.7164C143.003 21.3024 143.068 20.8971 143.068 20.5003C143.068 20.1036 143.003 19.6982 142.874 19.2842C142.752 18.8616 142.54 18.4864 142.237 18.1586C141.943 17.8309 141.535 17.6023 141.016 17.4729C140.834 17.4212 140.635 17.391 140.418 17.3824C140.202 17.3651 140.007 17.3565 139.834 17.3565H135.365V23.6441Z" fill="white"/>
<path d="M153.881 33.0626V17.3565H147.827V14.4326H163.066V17.3565H157.012V33.0626H153.881Z" fill="white"/>
</svg>
