<svg width="33" height="36" viewBox="0 0 33 36" fill="none" xmlns="http://www.w3.org/2000/svg">
<path d="M28.6703 17.154C27.6334 16.8841 26.4146 16.7401 24.9592 16.7401C22.9399 16.7401 22.194 17.226 21.1571 18C21.1025 18.036 21.048 18.09 20.9934 18.144L19.2652 19.962C17.828 21.492 15.1902 21.492 13.7348 19.962L12.0066 18.162C11.952 18.09 11.8975 18.036 11.8429 18C10.7878 17.226 10.0419 16.7401 8.04079 16.7401C6.58545 16.7401 5.36659 16.8661 4.32966 17.154C-4.33727e-07 18.306 0 21.708 0 24.696V26.37C0 30.888 -8.67455e-07 36 9.73263 36H23.2674C29.7255 36 33 32.76 33 26.37V24.696C33 21.708 33 18.306 28.6703 17.154Z" fill="white"/>
<path opacity="0.4" d="M21.5756 0H11.4246C3.38379 0 3.38379 4.22999 3.38379 7.95598V18.378C3.38379 18.774 3.56571 19.134 3.87497 19.368C4.18423 19.602 4.60264 19.692 4.98467 19.584C5.8033 19.368 6.82205 19.26 8.0409 19.26C9.25975 19.26 9.51444 19.404 10.2421 19.944L11.8976 21.6719C13.08 22.9319 14.7719 23.6519 16.5183 23.6519C18.2647 23.6519 19.9384 22.9319 21.139 21.6719L22.7945 19.944C23.5222 19.404 23.7768 19.26 24.9957 19.26C26.2146 19.26 27.2333 19.368 28.0519 19.584C28.434 19.692 28.8342 19.602 29.1616 19.368C29.4709 19.134 29.6528 18.756 29.6528 18.378V7.95598C29.6164 4.22999 29.6164 0 21.5756 0Z" fill="white"/>
<path d="M19.3201 14.238H13.6807C12.9712 14.238 12.4072 13.68 12.4072 12.978C12.4072 12.276 12.9712 11.718 13.6807 11.718H19.3201C20.0296 11.718 20.5936 12.276 20.5936 12.978C20.5936 13.662 20.0114 14.238 19.3201 14.238Z" fill="white"/>
<path d="M20.7391 9.21592H12.2617C11.5522 9.21592 10.9883 8.65792 10.9883 7.95592C10.9883 7.25392 11.5522 6.69592 12.2617 6.69592H20.7209C21.4304 6.69592 21.9943 7.25392 21.9943 7.95592C21.9943 8.63992 21.4304 9.21592 20.7391 9.21592Z" fill="white"/>
</svg>
