<svg width="16" height="16" viewBox="0 0 16 16" fill="none" xmlns="http://www.w3.org/2000/svg">
<path d="M16 8C16 9.5 15.58 10.92 14.84 12.12C14.42 12.84 13.88 13.48 13.26 14C11.86 15.26 10.02 16 8 16C5.08 16 2.54 14.44 1.16 12.12C0.420004 10.92 0 9.5 0 8C0 5.48 1.16 3.22001 3 1.76001C4.38 0.66001 6.12 0 8 0C12.42 0 16 3.58 16 8Z" fill="#FF0036"/>
<path fill-rule="evenodd" clip-rule="evenodd" d="M8 12H8.00898H8Z" fill="#FF0036"/>
<path d="M8.00537 4V9M8 12H8.00898" stroke="white" stroke-width="1.4" stroke-linecap="round" stroke-linejoin="round"/>
</svg>
