<svg width="24" height="24" viewBox="0 0 24 24" fill="none" xmlns="http://www.w3.org/2000/svg">
<path d="M7.17239 16.9639C5.24475 15.6681 4 13.7155 4 12.0026C4 9.09146 7.57867 5.52356 11.9958 5.52356C13.8024 5.52356 15.4794 6.11821 16.8279 7.04125M18.7812 8.86992C19.5514 9.87283 20 10.9823 20 12.0029C20 14.914 16.4127 18.4819 11.9955 18.4819C11.2089 18.4819 10.4405 18.3666 9.72214 18.1624M10.0645 13.9793C9.55015 13.4566 9.2623 12.7439 9.26489 12.001C9.26143 10.4522 10.482 9.19371 11.9912 9.19105C12.7174 9.18928 13.4141 9.48482 13.9275 10.012M14.6837 12.499C14.4814 13.6457 13.6075 14.5448 12.4907 14.7551M18.8175 5L5.18224 19" stroke="white" stroke-width="1.4" stroke-linecap="round" stroke-linejoin="round"/>
</svg>
