<svg width="24" height="24" viewBox="0 0 24 24" fill="none" xmlns="http://www.w3.org/2000/svg">
<path d="M14.9271 12.0043C14.9271 13.6792 13.619 15.0327 12.0002 15.0327C10.3814 15.0327 9.07324 13.6792 9.07324 12.0043C9.07324 10.3294 10.3814 8.97589 12.0002 8.97589C13.619 8.97589 14.9271 10.3294 14.9271 12.0043Z" stroke="white" stroke-width="1.4" stroke-linecap="round" stroke-linejoin="round"/>
<path d="M12 19C14.8861 19 17.5759 17.2405 19.4481 14.1952C20.184 13.0024 20.184 10.9976 19.4481 9.80483C17.5759 6.75952 14.8861 5 12 5C9.11395 5 6.42412 6.75952 4.55187 9.80483C3.81604 10.9976 3.81604 13.0024 4.55187 14.1952C6.42412 17.2405 9.11395 19 12 19Z" stroke="white" stroke-width="1.4" stroke-linecap="round" stroke-linejoin="round"/>
</svg>
