<svg width="493" height="234" viewBox="0 0 493 234" fill="none" xmlns="http://www.w3.org/2000/svg">
<path d="M457.27 227.21C456.649 227.21 456.089 227.065 455.59 226.776C455.095 226.487 454.703 226.095 454.414 225.6C454.125 225.101 453.98 224.541 453.98 223.92V220C453.98 219.379 454.125 218.822 454.414 218.327C454.703 217.828 455.095 217.433 455.59 217.144C456.089 216.855 456.649 216.71 457.27 216.71C457.891 216.71 458.448 216.855 458.943 217.144C459.442 217.433 459.837 217.828 460.126 218.327C460.415 218.822 460.56 219.379 460.56 220V223.92C460.56 224.541 460.415 225.101 460.126 225.6C459.837 226.095 459.442 226.487 458.943 226.776C458.448 227.065 457.891 227.21 457.27 227.21ZM457.27 226.216C457.685 226.216 458.063 226.116 458.404 225.915C458.745 225.71 459.015 225.437 459.216 225.096C459.417 224.755 459.517 224.38 459.517 223.969V219.951C459.517 219.536 459.417 219.158 459.216 218.817C459.015 218.476 458.745 218.206 458.404 218.005C458.063 217.8 457.685 217.697 457.27 217.697C456.855 217.697 456.477 217.8 456.136 218.005C455.795 218.206 455.525 218.476 455.324 218.817C455.123 219.158 455.023 219.536 455.023 219.951V223.969C455.023 224.38 455.123 224.755 455.324 225.096C455.525 225.437 455.795 225.71 456.136 225.915C456.477 226.116 456.855 226.216 457.27 226.216ZM462.245 226.993L462.252 226.055L466.809 221.939C467.201 221.584 467.46 221.248 467.586 220.931C467.717 220.609 467.782 220.273 467.782 219.923C467.782 219.508 467.684 219.132 467.488 218.796C467.292 218.46 467.028 218.194 466.697 217.998C466.366 217.797 465.995 217.697 465.584 217.697C465.155 217.697 464.772 217.8 464.436 218.005C464.1 218.21 463.834 218.481 463.638 218.817C463.447 219.153 463.353 219.519 463.358 219.916H462.308C462.308 219.305 462.453 218.756 462.742 218.271C463.031 217.786 463.423 217.405 463.918 217.13C464.413 216.85 464.973 216.71 465.598 216.71C466.209 216.71 466.758 216.855 467.243 217.144C467.733 217.429 468.118 217.816 468.398 218.306C468.683 218.791 468.825 219.333 468.825 219.93C468.825 220.35 468.774 220.721 468.671 221.043C468.573 221.36 468.417 221.657 468.202 221.932C467.992 222.203 467.724 222.483 467.397 222.772L463.351 226.426L463.19 226.006H468.825V226.993H462.245ZM473.057 216.92H474.114L471.426 227H470.369L473.057 216.92ZM479.227 227.21C478.606 227.21 478.046 227.065 477.547 226.776C477.052 226.487 476.66 226.095 476.371 225.6C476.082 225.101 475.937 224.541 475.937 223.92V220C475.937 219.379 476.082 218.822 476.371 218.327C476.66 217.828 477.052 217.433 477.547 217.144C478.046 216.855 478.606 216.71 479.227 216.71C479.848 216.71 480.405 216.855 480.9 217.144C481.399 217.433 481.794 217.828 482.083 218.327C482.372 218.822 482.517 219.379 482.517 220V223.92C482.517 224.541 482.372 225.101 482.083 225.6C481.794 226.095 481.399 226.487 480.9 226.776C480.405 227.065 479.848 227.21 479.227 227.21ZM479.227 226.216C479.642 226.216 480.02 226.116 480.361 225.915C480.702 225.71 480.972 225.437 481.173 225.096C481.374 224.755 481.474 224.38 481.474 223.969V219.951C481.474 219.536 481.374 219.158 481.173 218.817C480.972 218.476 480.702 218.206 480.361 218.005C480.02 217.8 479.642 217.697 479.227 217.697C478.812 217.697 478.434 217.8 478.093 218.005C477.752 218.206 477.482 218.476 477.281 218.817C477.08 219.158 476.98 219.536 476.98 219.951V223.969C476.98 224.38 477.08 224.755 477.281 225.096C477.482 225.437 477.752 225.71 478.093 225.915C478.434 226.116 478.812 226.216 479.227 226.216ZM487.191 227.203C486.692 227.203 486.232 227.114 485.812 226.937C485.392 226.76 485.03 226.508 484.727 226.181C484.424 225.85 484.202 225.455 484.062 224.998L485.042 224.704C485.21 225.203 485.485 225.581 485.868 225.838C486.255 226.095 486.692 226.218 487.177 226.209C487.625 226.2 488.01 226.099 488.332 225.908C488.659 225.717 488.908 225.451 489.081 225.11C489.254 224.769 489.34 224.375 489.34 223.927C489.34 223.241 489.139 222.69 488.738 222.275C488.341 221.855 487.816 221.645 487.163 221.645C486.981 221.645 486.79 221.671 486.589 221.722C486.388 221.769 486.202 221.836 486.029 221.925L485.511 221.106L489.431 217.487L489.599 217.907H484.461V216.92H490.285V217.921L486.869 221.183L486.855 220.777C487.555 220.688 488.171 220.768 488.703 221.015C489.235 221.262 489.65 221.64 489.949 222.149C490.252 222.653 490.404 223.246 490.404 223.927C490.404 224.571 490.264 225.14 489.984 225.635C489.709 226.125 489.328 226.51 488.843 226.79C488.358 227.065 487.807 227.203 487.191 227.203Z" fill="white"/>
<line x1="23" y1="11.5" x2="492" y2="11.5" stroke="white" stroke-dasharray="4 4"/>
<path d="M4.737 17V8.068L2.84 9.209V8.054L4.737 6.92H5.78V17H4.737Z" fill="white"/>
<line x1="23" y1="181.5" x2="492" y2="181.5" stroke="white"/>
<path d="M4.27 187.21C3.64933 187.21 3.08933 187.065 2.59 186.776C2.09533 186.487 1.70333 186.095 1.414 185.6C1.12467 185.101 0.98 184.541 0.98 183.92V180C0.98 179.379 1.12467 178.822 1.414 178.327C1.70333 177.828 2.09533 177.433 2.59 177.144C3.08933 176.855 3.64933 176.71 4.27 176.71C4.89067 176.71 5.44833 176.855 5.943 177.144C6.44233 177.433 6.83667 177.828 7.126 178.327C7.41533 178.822 7.56 179.379 7.56 180V183.92C7.56 184.541 7.41533 185.101 7.126 185.6C6.83667 186.095 6.44233 186.487 5.943 186.776C5.44833 187.065 4.89067 187.21 4.27 187.21ZM4.27 186.216C4.68533 186.216 5.06333 186.116 5.404 185.915C5.74467 185.71 6.01533 185.437 6.216 185.096C6.41667 184.755 6.517 184.38 6.517 183.969V179.951C6.517 179.536 6.41667 179.158 6.216 178.817C6.01533 178.476 5.74467 178.206 5.404 178.005C5.06333 177.8 4.68533 177.697 4.27 177.697C3.85467 177.697 3.47667 177.8 3.136 178.005C2.79533 178.206 2.52467 178.476 2.324 178.817C2.12333 179.158 2.023 179.536 2.023 179.951V183.969C2.023 184.38 2.12333 184.755 2.324 185.096C2.52467 185.437 2.79533 185.71 3.136 185.915C3.47667 186.116 3.85467 186.216 4.27 186.216Z" fill="white"/>
<path d="M28.27 227.21C27.6493 227.21 27.0893 227.065 26.59 226.776C26.0953 226.487 25.7033 226.095 25.414 225.6C25.1247 225.101 24.98 224.541 24.98 223.92V220C24.98 219.379 25.1247 218.822 25.414 218.327C25.7033 217.828 26.0953 217.433 26.59 217.144C27.0893 216.855 27.6493 216.71 28.27 216.71C28.8907 216.71 29.4483 216.855 29.943 217.144C30.4423 217.433 30.8367 217.828 31.126 218.327C31.4153 218.822 31.56 219.379 31.56 220V223.92C31.56 224.541 31.4153 225.101 31.126 225.6C30.8367 226.095 30.4423 226.487 29.943 226.776C29.4483 227.065 28.8907 227.21 28.27 227.21ZM28.27 226.216C28.6853 226.216 29.0633 226.116 29.404 225.915C29.7447 225.71 30.0153 225.437 30.216 225.096C30.4167 224.755 30.517 224.38 30.517 223.969V219.951C30.517 219.536 30.4167 219.158 30.216 218.817C30.0153 218.476 29.7447 218.206 29.404 218.005C29.0633 217.8 28.6853 217.697 28.27 217.697C27.8547 217.697 27.4767 217.8 27.136 218.005C26.7953 218.206 26.5247 218.476 26.324 218.817C26.1233 219.158 26.023 219.536 26.023 219.951V223.969C26.023 224.38 26.1233 224.755 26.324 225.096C26.5247 225.437 26.7953 225.71 27.136 225.915C27.4767 226.116 27.8547 226.216 28.27 226.216ZM35.2819 227V218.068L33.3849 219.209V218.054L35.2819 216.92H36.3249V227H35.2819ZM41.528 216.92H42.585L39.897 227H38.84L41.528 216.92ZM47.6977 227.21C47.0771 227.21 46.5171 227.065 46.0177 226.776C45.5231 226.487 45.1311 226.095 44.8417 225.6C44.5524 225.101 44.4077 224.541 44.4077 223.92V220C44.4077 219.379 44.5524 218.822 44.8417 218.327C45.1311 217.828 45.5231 217.433 46.0177 217.144C46.5171 216.855 47.0771 216.71 47.6977 216.71C48.3184 216.71 48.8761 216.855 49.3707 217.144C49.8701 217.433 50.2644 217.828 50.5537 218.327C50.8431 218.822 50.9877 219.379 50.9877 220V223.92C50.9877 224.541 50.8431 225.101 50.5537 225.6C50.2644 226.095 49.8701 226.487 49.3707 226.776C48.8761 227.065 48.3184 227.21 47.6977 227.21ZM47.6977 226.216C48.1131 226.216 48.4911 226.116 48.8317 225.915C49.1724 225.71 49.4431 225.437 49.6437 225.096C49.8444 224.755 49.9447 224.38 49.9447 223.969V219.951C49.9447 219.536 49.8444 219.158 49.6437 218.817C49.4431 218.476 49.1724 218.206 48.8317 218.005C48.4911 217.8 48.1131 217.697 47.6977 217.697C47.2824 217.697 46.9044 217.8 46.5637 218.005C46.2231 218.206 45.9524 218.476 45.7517 218.817C45.5511 219.158 45.4507 219.536 45.4507 219.951V223.969C45.4507 224.38 45.5511 224.755 45.7517 225.096C45.9524 225.437 46.2231 225.71 46.5637 225.915C46.9044 226.116 47.2824 226.216 47.6977 226.216ZM56.2707 216.717C56.9053 216.717 57.4793 216.871 57.9927 217.179C58.5107 217.482 58.9213 217.898 59.2247 218.425C59.528 218.948 59.6797 219.536 59.6797 220.189V223.689C59.6797 224.361 59.528 224.963 59.2247 225.495C58.9213 226.027 58.506 226.447 57.9787 226.755C57.456 227.058 56.861 227.21 56.1937 227.21C55.6197 227.21 55.0877 227.084 54.5977 226.832C54.1123 226.575 53.711 226.223 53.3937 225.775L54.1777 225.124C54.3923 225.455 54.677 225.721 55.0317 225.922C55.391 226.123 55.7783 226.223 56.1937 226.223C56.6697 226.223 57.0897 226.111 57.4537 225.887C57.8223 225.658 58.1117 225.36 58.3217 224.991C58.5363 224.618 58.6437 224.214 58.6437 223.78V221.582L58.8957 221.876C58.6063 222.338 58.2213 222.711 57.7407 222.996C57.2647 223.281 56.742 223.423 56.1727 223.423C55.552 223.423 54.9897 223.274 54.4857 222.975C53.9863 222.676 53.5897 222.275 53.2957 221.771C53.0063 221.267 52.8617 220.705 52.8617 220.084C52.8617 219.463 53.0157 218.899 53.3237 218.39C53.6317 217.877 54.0447 217.471 54.5627 217.172C55.0807 216.869 55.65 216.717 56.2707 216.717ZM56.2707 217.711C55.832 217.711 55.433 217.818 55.0737 218.033C54.7143 218.243 54.4273 218.528 54.2127 218.887C54.0027 219.246 53.8977 219.645 53.8977 220.084C53.8977 220.523 54.0027 220.922 54.2127 221.281C54.4227 221.64 54.7073 221.927 55.0667 222.142C55.426 222.352 55.825 222.457 56.2637 222.457C56.7023 222.457 57.1013 222.352 57.4607 222.142C57.8247 221.927 58.1117 221.64 58.3217 221.281C58.5363 220.922 58.6437 220.523 58.6437 220.084C58.6437 219.65 58.5363 219.253 58.3217 218.894C58.1117 218.535 57.827 218.248 57.4677 218.033C57.1083 217.818 56.7093 217.711 56.2707 217.711Z" fill="white"/>
<path d="M114.27 227.21C113.649 227.21 113.089 227.065 112.59 226.776C112.095 226.487 111.703 226.095 111.414 225.6C111.125 225.101 110.98 224.541 110.98 223.92V220C110.98 219.379 111.125 218.822 111.414 218.327C111.703 217.828 112.095 217.433 112.59 217.144C113.089 216.855 113.649 216.71 114.27 216.71C114.891 216.71 115.448 216.855 115.943 217.144C116.442 217.433 116.837 217.828 117.126 218.327C117.415 218.822 117.56 219.379 117.56 220V223.92C117.56 224.541 117.415 225.101 117.126 225.6C116.837 226.095 116.442 226.487 115.943 226.776C115.448 227.065 114.891 227.21 114.27 227.21ZM114.27 226.216C114.685 226.216 115.063 226.116 115.404 225.915C115.745 225.71 116.015 225.437 116.216 225.096C116.417 224.755 116.517 224.38 116.517 223.969V219.951C116.517 219.536 116.417 219.158 116.216 218.817C116.015 218.476 115.745 218.206 115.404 218.005C115.063 217.8 114.685 217.697 114.27 217.697C113.855 217.697 113.477 217.8 113.136 218.005C112.795 218.206 112.525 218.476 112.324 218.817C112.123 219.158 112.023 219.536 112.023 219.951V223.969C112.023 224.38 112.123 224.755 112.324 225.096C112.525 225.437 112.795 225.71 113.136 225.915C113.477 226.116 113.855 226.216 114.27 226.216ZM121.282 227V218.068L119.385 219.209V218.054L121.282 216.92H122.325V227H121.282ZM127.528 216.92H128.585L125.897 227H124.84L127.528 216.92ZM132.165 227V218.068L130.268 219.209V218.054L132.165 216.92H133.208V227H132.165ZM140.301 227V225.047H135.583V224.067L138.957 216.92H140.112L136.738 224.067H140.301V221.127H141.337V224.067H142.436V225.047H141.337V227H140.301Z" fill="white"/>
<path d="M198.27 227.21C197.649 227.21 197.089 227.065 196.59 226.776C196.095 226.487 195.703 226.095 195.414 225.6C195.125 225.101 194.98 224.541 194.98 223.92V220C194.98 219.379 195.125 218.822 195.414 218.327C195.703 217.828 196.095 217.433 196.59 217.144C197.089 216.855 197.649 216.71 198.27 216.71C198.891 216.71 199.448 216.855 199.943 217.144C200.442 217.433 200.837 217.828 201.126 218.327C201.415 218.822 201.56 219.379 201.56 220V223.92C201.56 224.541 201.415 225.101 201.126 225.6C200.837 226.095 200.442 226.487 199.943 226.776C199.448 227.065 198.891 227.21 198.27 227.21ZM198.27 226.216C198.685 226.216 199.063 226.116 199.404 225.915C199.745 225.71 200.015 225.437 200.216 225.096C200.417 224.755 200.517 224.38 200.517 223.969V219.951C200.517 219.536 200.417 219.158 200.216 218.817C200.015 218.476 199.745 218.206 199.404 218.005C199.063 217.8 198.685 217.697 198.27 217.697C197.855 217.697 197.477 217.8 197.136 218.005C196.795 218.206 196.525 218.476 196.324 218.817C196.123 219.158 196.023 219.536 196.023 219.951V223.969C196.023 224.38 196.123 224.755 196.324 225.096C196.525 225.437 196.795 225.71 197.136 225.915C197.477 226.116 197.855 226.216 198.27 226.216ZM205.282 227V218.068L203.385 219.209V218.054L205.282 216.92H206.325V227H205.282ZM211.528 216.92H212.585L209.897 227H208.84L211.528 216.92ZM216.165 227V218.068L214.268 219.209V218.054L216.165 216.92H217.208V227H216.165ZM223.181 216.717C223.815 216.717 224.389 216.871 224.903 217.179C225.421 217.482 225.831 217.898 226.135 218.425C226.438 218.948 226.59 219.536 226.59 220.189V223.689C226.59 224.361 226.438 224.963 226.135 225.495C225.831 226.027 225.416 226.447 224.889 226.755C224.366 227.058 223.771 227.21 223.104 227.21C222.53 227.21 221.998 227.084 221.508 226.832C221.022 226.575 220.621 226.223 220.304 225.775L221.088 225.124C221.302 225.455 221.587 225.721 221.942 225.922C222.301 226.123 222.688 226.223 223.104 226.223C223.58 226.223 224 226.111 224.364 225.887C224.732 225.658 225.022 225.36 225.232 224.991C225.446 224.618 225.554 224.214 225.554 223.78V221.582L225.806 221.876C225.516 222.338 225.131 222.711 224.651 222.996C224.175 223.281 223.652 223.423 223.083 223.423C222.462 223.423 221.9 223.274 221.396 222.975C220.896 222.676 220.5 222.275 220.206 221.771C219.916 221.267 219.772 220.705 219.772 220.084C219.772 219.463 219.926 218.899 220.234 218.39C220.542 217.877 220.955 217.471 221.473 217.172C221.991 216.869 222.56 216.717 223.181 216.717ZM223.181 217.711C222.742 217.711 222.343 217.818 221.984 218.033C221.624 218.243 221.337 218.528 221.123 218.887C220.913 219.246 220.808 219.645 220.808 220.084C220.808 220.523 220.913 220.922 221.123 221.281C221.333 221.64 221.617 221.927 221.977 222.142C222.336 222.352 222.735 222.457 223.174 222.457C223.612 222.457 224.011 222.352 224.371 222.142C224.735 221.927 225.022 221.64 225.232 221.281C225.446 220.922 225.554 220.523 225.554 220.084C225.554 219.65 225.446 219.253 225.232 218.894C225.022 218.535 224.737 218.248 224.378 218.033C224.018 217.818 223.619 217.711 223.181 217.711Z" fill="white"/>
<path d="M282.27 227.21C281.649 227.21 281.089 227.065 280.59 226.776C280.095 226.487 279.703 226.095 279.414 225.6C279.125 225.101 278.98 224.541 278.98 223.92V220C278.98 219.379 279.125 218.822 279.414 218.327C279.703 217.828 280.095 217.433 280.59 217.144C281.089 216.855 281.649 216.71 282.27 216.71C282.891 216.71 283.448 216.855 283.943 217.144C284.442 217.433 284.837 217.828 285.126 218.327C285.415 218.822 285.56 219.379 285.56 220V223.92C285.56 224.541 285.415 225.101 285.126 225.6C284.837 226.095 284.442 226.487 283.943 226.776C283.448 227.065 282.891 227.21 282.27 227.21ZM282.27 226.216C282.685 226.216 283.063 226.116 283.404 225.915C283.745 225.71 284.015 225.437 284.216 225.096C284.417 224.755 284.517 224.38 284.517 223.969V219.951C284.517 219.536 284.417 219.158 284.216 218.817C284.015 218.476 283.745 218.206 283.404 218.005C283.063 217.8 282.685 217.697 282.27 217.697C281.855 217.697 281.477 217.8 281.136 218.005C280.795 218.206 280.525 218.476 280.324 218.817C280.123 219.158 280.023 219.536 280.023 219.951V223.969C280.023 224.38 280.123 224.755 280.324 225.096C280.525 225.437 280.795 225.71 281.136 225.915C281.477 226.116 281.855 226.216 282.27 226.216ZM289.282 227V218.068L287.385 219.209V218.054L289.282 216.92H290.325V227H289.282ZM295.528 216.92H296.585L293.897 227H292.84L295.528 216.92ZM298.128 226.993L298.135 226.055L302.692 221.939C303.084 221.584 303.343 221.248 303.469 220.931C303.599 220.609 303.665 220.273 303.665 219.923C303.665 219.508 303.567 219.132 303.371 218.796C303.175 218.46 302.911 218.194 302.58 217.998C302.248 217.797 301.877 217.697 301.467 217.697C301.037 217.697 300.655 217.8 300.319 218.005C299.983 218.21 299.717 218.481 299.521 218.817C299.329 219.153 299.236 219.519 299.241 219.916H298.191C298.191 219.305 298.335 218.756 298.625 218.271C298.914 217.786 299.306 217.405 299.801 217.13C300.295 216.85 300.855 216.71 301.481 216.71C302.092 216.71 302.64 216.855 303.126 217.144C303.616 217.429 304.001 217.816 304.281 218.306C304.565 218.791 304.708 219.333 304.708 219.93C304.708 220.35 304.656 220.721 304.554 221.043C304.456 221.36 304.299 221.657 304.085 221.932C303.875 222.203 303.606 222.483 303.28 222.772L299.234 226.426L299.073 226.006H304.708V226.993H298.128ZM310.557 227V225.047H305.839V224.067L309.213 216.92H310.368L306.994 224.067H310.557V221.127H311.593V224.067H312.692V225.047H311.593V227H310.557Z" fill="white"/>
<path d="M368.27 227.21C367.649 227.21 367.089 227.065 366.59 226.776C366.095 226.487 365.703 226.095 365.414 225.6C365.125 225.101 364.98 224.541 364.98 223.92V220C364.98 219.379 365.125 218.822 365.414 218.327C365.703 217.828 366.095 217.433 366.59 217.144C367.089 216.855 367.649 216.71 368.27 216.71C368.891 216.71 369.448 216.855 369.943 217.144C370.442 217.433 370.837 217.828 371.126 218.327C371.415 218.822 371.56 219.379 371.56 220V223.92C371.56 224.541 371.415 225.101 371.126 225.6C370.837 226.095 370.442 226.487 369.943 226.776C369.448 227.065 368.891 227.21 368.27 227.21ZM368.27 226.216C368.685 226.216 369.063 226.116 369.404 225.915C369.745 225.71 370.015 225.437 370.216 225.096C370.417 224.755 370.517 224.38 370.517 223.969V219.951C370.517 219.536 370.417 219.158 370.216 218.817C370.015 218.476 369.745 218.206 369.404 218.005C369.063 217.8 368.685 217.697 368.27 217.697C367.855 217.697 367.477 217.8 367.136 218.005C366.795 218.206 366.525 218.476 366.324 218.817C366.123 219.158 366.023 219.536 366.023 219.951V223.969C366.023 224.38 366.123 224.755 366.324 225.096C366.525 225.437 366.795 225.71 367.136 225.915C367.477 226.116 367.855 226.216 368.27 226.216ZM375.282 227V218.068L373.385 219.209V218.054L375.282 216.92H376.325V227H375.282ZM381.528 216.92H382.585L379.897 227H378.84L381.528 216.92ZM384.128 226.993L384.135 226.055L388.692 221.939C389.084 221.584 389.343 221.248 389.469 220.931C389.599 220.609 389.665 220.273 389.665 219.923C389.665 219.508 389.567 219.132 389.371 218.796C389.175 218.46 388.911 218.194 388.58 217.998C388.248 217.797 387.877 217.697 387.467 217.697C387.037 217.697 386.655 217.8 386.319 218.005C385.983 218.21 385.717 218.481 385.521 218.817C385.329 219.153 385.236 219.519 385.241 219.916H384.191C384.191 219.305 384.335 218.756 384.625 218.271C384.914 217.786 385.306 217.405 385.801 217.13C386.295 216.85 386.855 216.71 387.481 216.71C388.092 216.71 388.64 216.855 389.126 217.144C389.616 217.429 390.001 217.816 390.281 218.306C390.565 218.791 390.708 219.333 390.708 219.93C390.708 220.35 390.656 220.721 390.554 221.043C390.456 221.36 390.299 221.657 390.085 221.932C389.875 222.203 389.606 222.483 389.28 222.772L385.234 226.426L385.073 226.006H390.708V226.993H384.128ZM395.71 216.717C396.345 216.717 396.919 216.871 397.432 217.179C397.95 217.482 398.361 217.898 398.664 218.425C398.967 218.948 399.119 219.536 399.119 220.189V223.689C399.119 224.361 398.967 224.963 398.664 225.495C398.361 226.027 397.945 226.447 397.418 226.755C396.895 227.058 396.3 227.21 395.633 227.21C395.059 227.21 394.527 227.084 394.037 226.832C393.552 226.575 393.15 226.223 392.833 225.775L393.617 225.124C393.832 225.455 394.116 225.721 394.471 225.922C394.83 226.123 395.218 226.223 395.633 226.223C396.109 226.223 396.529 226.111 396.893 225.887C397.262 225.658 397.551 225.36 397.761 224.991C397.976 224.618 398.083 224.214 398.083 223.78V221.582L398.335 221.876C398.046 222.338 397.661 222.711 397.18 222.996C396.704 223.281 396.181 223.423 395.612 223.423C394.991 223.423 394.429 223.274 393.925 222.975C393.426 222.676 393.029 222.275 392.735 221.771C392.446 221.267 392.301 220.705 392.301 220.084C392.301 219.463 392.455 218.899 392.763 218.39C393.071 217.877 393.484 217.471 394.002 217.172C394.52 216.869 395.089 216.717 395.71 216.717ZM395.71 217.711C395.271 217.711 394.872 217.818 394.513 218.033C394.154 218.243 393.867 218.528 393.652 218.887C393.442 219.246 393.337 219.645 393.337 220.084C393.337 220.523 393.442 220.922 393.652 221.281C393.862 221.64 394.147 221.927 394.506 222.142C394.865 222.352 395.264 222.457 395.703 222.457C396.142 222.457 396.541 222.352 396.9 222.142C397.264 221.927 397.551 221.64 397.761 221.281C397.976 220.922 398.083 220.523 398.083 220.084C398.083 219.65 397.976 219.253 397.761 218.894C397.551 218.535 397.266 218.248 396.907 218.033C396.548 217.818 396.149 217.711 395.71 217.711Z" fill="white"/>
<path d="M24 150.558C33.2066 149.987 41.7555 150.939 50.0852 159.89C58.8534 169.221 66.5255 167.507 75.7321 159.318C87.3499 148.654 92.3916 144.655 104.886 149.797C113.874 153.415 117.819 144.655 124.834 134.562C129.218 128.278 134.698 129.992 139.52 132.848C145.439 136.657 152.453 142.37 158.591 142.37C166.702 142.179 175.031 131.706 182.484 125.802C194.979 115.9 209.446 112.853 220.187 128.849C227.859 140.085 233.12 160.08 242.108 165.603C253.287 172.458 264.905 153.034 271.043 130.373C280.249 96.2852 282.66 38.9651 303.046 28.3009C305.458 26.9679 308.088 26.2062 310.499 28.3009C313.568 30.7765 315.322 37.4417 316.637 43.9164C317.952 50.3911 319.048 57.4371 321.021 62.5787C324.309 70.7673 324.09 86.3828 329.351 90.9531C336.804 97.2374 342.503 72.1003 350.175 68.4821C361.355 63.15 366.177 101.236 376.918 108.854C388.536 117.042 398.619 87.1445 410.456 78.3846C419.224 71.9099 428.65 77.6229 437.857 79.5272C442.46 80.4794 447.502 79.9081 451.886 76.2899C455.393 73.6238 460.435 60.6744 463.942 62.3883C468.545 64.6735 471.833 71.9099 476.656 73.4334C481.697 74.9568 487.178 73.4334 492 68.4821" stroke="url(#paint0_linear_444_219)" stroke-width="2" stroke-miterlimit="10" stroke-linecap="round"/>
<defs>
<linearGradient id="paint0_linear_444_219" x1="24" y1="97.0012" x2="492" y2="97.0012" gradientUnits="userSpaceOnUse">
<stop stop-color="#0052CC"/>
<stop offset="1" stop-color="#0099FF"/>
</linearGradient>
</defs>
</svg>
