<svg width="493" height="234" viewBox="0 0 493 234" fill="none" xmlns="http://www.w3.org/2000/svg">
<path d="M36.27 227.21C35.6493 227.21 35.0893 227.065 34.59 226.776C34.0953 226.487 33.7033 226.095 33.414 225.6C33.1247 225.101 32.98 224.541 32.98 223.92V220C32.98 219.379 33.1247 218.822 33.414 218.327C33.7033 217.828 34.0953 217.433 34.59 217.144C35.0893 216.855 35.6493 216.71 36.27 216.71C36.8907 216.71 37.4483 216.855 37.943 217.144C38.4423 217.433 38.8367 217.828 39.126 218.327C39.4153 218.822 39.56 219.379 39.56 220V223.92C39.56 224.541 39.4153 225.101 39.126 225.6C38.8367 226.095 38.4423 226.487 37.943 226.776C37.4483 227.065 36.8907 227.21 36.27 227.21ZM36.27 226.216C36.6853 226.216 37.0633 226.116 37.404 225.915C37.7447 225.71 38.0153 225.437 38.216 225.096C38.4167 224.755 38.517 224.38 38.517 223.969V219.951C38.517 219.536 38.4167 219.158 38.216 218.817C38.0153 218.476 37.7447 218.206 37.404 218.005C37.0633 217.8 36.6853 217.697 36.27 217.697C35.8547 217.697 35.4767 217.8 35.136 218.005C34.7953 218.206 34.5247 218.476 34.324 218.817C34.1233 219.158 34.023 219.536 34.023 219.951V223.969C34.023 224.38 34.1233 224.755 34.324 225.096C34.5247 225.437 34.7953 225.71 35.136 225.915C35.4767 226.116 35.8547 226.216 36.27 226.216ZM43.2819 227V218.068L41.3849 219.209V218.054L43.2819 216.92H44.3249V227H43.2819ZM49.528 216.92H50.585L47.897 227H46.84L49.528 216.92ZM54.1647 227V218.068L52.2677 219.209V218.054L54.1647 216.92H55.2077V227H54.1647ZM60.8378 227.21C60.3151 227.21 59.8321 227.103 59.3888 226.888C58.9455 226.673 58.5675 226.377 58.2548 225.999C57.9421 225.621 57.7181 225.187 57.5828 224.697L58.5698 224.431C58.6585 224.795 58.8195 225.11 59.0528 225.376C59.2861 225.637 59.5591 225.84 59.8718 225.985C60.1891 226.13 60.5205 226.202 60.8658 226.202C61.3138 226.202 61.7151 226.095 62.0698 225.88C62.4291 225.661 62.7138 225.371 62.9238 225.012C63.1338 224.653 63.2388 224.258 63.2388 223.829C63.2388 223.386 63.1291 222.987 62.9098 222.632C62.6905 222.273 62.4011 221.988 62.0418 221.778C61.6825 221.568 61.2905 221.463 60.8658 221.463C60.3898 221.463 59.9791 221.568 59.6338 221.778C59.2885 221.983 59.0131 222.242 58.8078 222.555L57.8698 222.163L58.1778 216.92H63.5608V217.907H58.6328L59.1438 217.424L58.8708 221.897L58.6118 221.554C58.9011 221.223 59.2511 220.964 59.6618 220.777C60.0725 220.59 60.5041 220.497 60.9568 220.497C61.5775 220.497 62.1375 220.646 62.6368 220.945C63.1361 221.239 63.5328 221.638 63.8268 222.142C64.1208 222.646 64.2678 223.208 64.2678 223.829C64.2678 224.445 64.1115 225.01 63.7988 225.523C63.4861 226.032 63.0708 226.44 62.5528 226.748C62.0348 227.056 61.4631 227.21 60.8378 227.21Z" fill="white"/>
<path d="M138.27 227.21C137.649 227.21 137.089 227.065 136.59 226.776C136.095 226.487 135.703 226.095 135.414 225.6C135.125 225.101 134.98 224.541 134.98 223.92V220C134.98 219.379 135.125 218.822 135.414 218.327C135.703 217.828 136.095 217.433 136.59 217.144C137.089 216.855 137.649 216.71 138.27 216.71C138.891 216.71 139.448 216.855 139.943 217.144C140.442 217.433 140.837 217.828 141.126 218.327C141.415 218.822 141.56 219.379 141.56 220V223.92C141.56 224.541 141.415 225.101 141.126 225.6C140.837 226.095 140.442 226.487 139.943 226.776C139.448 227.065 138.891 227.21 138.27 227.21ZM138.27 226.216C138.685 226.216 139.063 226.116 139.404 225.915C139.745 225.71 140.015 225.437 140.216 225.096C140.417 224.755 140.517 224.38 140.517 223.969V219.951C140.517 219.536 140.417 219.158 140.216 218.817C140.015 218.476 139.745 218.206 139.404 218.005C139.063 217.8 138.685 217.697 138.27 217.697C137.855 217.697 137.477 217.8 137.136 218.005C136.795 218.206 136.525 218.476 136.324 218.817C136.123 219.158 136.023 219.536 136.023 219.951V223.969C136.023 224.38 136.123 224.755 136.324 225.096C136.525 225.437 136.795 225.71 137.136 225.915C137.477 226.116 137.855 226.216 138.27 226.216ZM145.282 227V218.068L143.385 219.209V218.054L145.282 216.92H146.325V227H145.282ZM151.528 216.92H152.585L149.897 227H148.84L151.528 216.92ZM156.165 227V218.068L154.268 219.209V218.054L156.165 216.92H157.208V227H156.165ZM162.936 227.21C162.306 227.21 161.748 227.084 161.263 226.832C160.782 226.58 160.404 226.228 160.129 225.775C159.858 225.318 159.723 224.783 159.723 224.172C159.723 223.547 159.874 222.991 160.178 222.506C160.481 222.016 160.943 221.645 161.564 221.393L161.55 221.799C161.032 221.608 160.637 221.295 160.367 220.861C160.096 220.427 159.961 219.946 159.961 219.419C159.961 218.859 160.089 218.378 160.346 217.977C160.602 217.571 160.952 217.258 161.396 217.039C161.844 216.82 162.357 216.71 162.936 216.71C163.514 216.71 164.028 216.82 164.476 217.039C164.924 217.258 165.276 217.571 165.533 217.977C165.789 218.378 165.918 218.859 165.918 219.419C165.918 219.946 165.787 220.425 165.526 220.854C165.269 221.283 164.875 221.598 164.343 221.799L164.308 221.393C164.928 221.64 165.393 222.009 165.701 222.499C166.013 222.989 166.17 223.547 166.17 224.172C166.17 224.783 166.032 225.318 165.757 225.775C165.481 226.228 165.101 226.58 164.616 226.832C164.13 227.084 163.57 227.21 162.936 227.21ZM162.936 226.223C163.57 226.223 164.086 226.048 164.483 225.698C164.879 225.343 165.078 224.835 165.078 224.172C165.078 223.5 164.882 222.991 164.49 222.646C164.098 222.296 163.58 222.121 162.936 222.121C162.292 222.121 161.776 222.296 161.389 222.646C161.001 222.991 160.808 223.5 160.808 224.172C160.808 224.835 161.004 225.343 161.396 225.698C161.788 226.048 162.301 226.223 162.936 226.223ZM162.936 221.127C163.496 221.127 163.951 220.985 164.301 220.7C164.651 220.411 164.826 219.984 164.826 219.419C164.826 218.854 164.651 218.432 164.301 218.152C163.951 217.867 163.496 217.725 162.936 217.725C162.376 217.725 161.921 217.867 161.571 218.152C161.225 218.432 161.053 218.854 161.053 219.419C161.053 219.984 161.225 220.411 161.571 220.7C161.921 220.985 162.376 221.127 162.936 221.127Z" fill="white"/>
<path d="M241.27 227.21C240.649 227.21 240.089 227.065 239.59 226.776C239.095 226.487 238.703 226.095 238.414 225.6C238.125 225.101 237.98 224.541 237.98 223.92V220C237.98 219.379 238.125 218.822 238.414 218.327C238.703 217.828 239.095 217.433 239.59 217.144C240.089 216.855 240.649 216.71 241.27 216.71C241.891 216.71 242.448 216.855 242.943 217.144C243.442 217.433 243.837 217.828 244.126 218.327C244.415 218.822 244.56 219.379 244.56 220V223.92C244.56 224.541 244.415 225.101 244.126 225.6C243.837 226.095 243.442 226.487 242.943 226.776C242.448 227.065 241.891 227.21 241.27 227.21ZM241.27 226.216C241.685 226.216 242.063 226.116 242.404 225.915C242.745 225.71 243.015 225.437 243.216 225.096C243.417 224.755 243.517 224.38 243.517 223.969V219.951C243.517 219.536 243.417 219.158 243.216 218.817C243.015 218.476 242.745 218.206 242.404 218.005C242.063 217.8 241.685 217.697 241.27 217.697C240.855 217.697 240.477 217.8 240.136 218.005C239.795 218.206 239.525 218.476 239.324 218.817C239.123 219.158 239.023 219.536 239.023 219.951V223.969C239.023 224.38 239.123 224.755 239.324 225.096C239.525 225.437 239.795 225.71 240.136 225.915C240.477 226.116 240.855 226.216 241.27 226.216ZM246.245 226.993L246.252 226.055L250.809 221.939C251.201 221.584 251.46 221.248 251.586 220.931C251.717 220.609 251.782 220.273 251.782 219.923C251.782 219.508 251.684 219.132 251.488 218.796C251.292 218.46 251.028 218.194 250.697 217.998C250.366 217.797 249.995 217.697 249.584 217.697C249.155 217.697 248.772 217.8 248.436 218.005C248.1 218.21 247.834 218.481 247.638 218.817C247.447 219.153 247.353 219.519 247.358 219.916H246.308C246.308 219.305 246.453 218.756 246.742 218.271C247.031 217.786 247.423 217.405 247.918 217.13C248.413 216.85 248.973 216.71 249.598 216.71C250.209 216.71 250.758 216.855 251.243 217.144C251.733 217.429 252.118 217.816 252.398 218.306C252.683 218.791 252.825 219.333 252.825 219.93C252.825 220.35 252.774 220.721 252.671 221.043C252.573 221.36 252.417 221.657 252.202 221.932C251.992 222.203 251.724 222.483 251.397 222.772L247.351 226.426L247.19 226.006H252.825V226.993H246.245ZM257.057 216.92H258.114L255.426 227H254.369L257.057 216.92ZM263.227 227.21C262.606 227.21 262.046 227.065 261.547 226.776C261.052 226.487 260.66 226.095 260.371 225.6C260.082 225.101 259.937 224.541 259.937 223.92V220C259.937 219.379 260.082 218.822 260.371 218.327C260.66 217.828 261.052 217.433 261.547 217.144C262.046 216.855 262.606 216.71 263.227 216.71C263.848 216.71 264.405 216.855 264.9 217.144C265.399 217.433 265.794 217.828 266.083 218.327C266.372 218.822 266.517 219.379 266.517 220V223.92C266.517 224.541 266.372 225.101 266.083 225.6C265.794 226.095 265.399 226.487 264.9 226.776C264.405 227.065 263.848 227.21 263.227 227.21ZM263.227 226.216C263.642 226.216 264.02 226.116 264.361 225.915C264.702 225.71 264.972 225.437 265.173 225.096C265.374 224.755 265.474 224.38 265.474 223.969V219.951C265.474 219.536 265.374 219.158 265.173 218.817C264.972 218.476 264.702 218.206 264.361 218.005C264.02 217.8 263.642 217.697 263.227 217.697C262.812 217.697 262.434 217.8 262.093 218.005C261.752 218.206 261.482 218.476 261.281 218.817C261.08 219.158 260.98 219.536 260.98 219.951V223.969C260.98 224.38 261.08 224.755 261.281 225.096C261.482 225.437 261.752 225.71 262.093 225.915C262.434 226.116 262.812 226.216 263.227 226.216ZM270.239 227V218.068L268.342 219.209V218.054L270.239 216.92H271.282V227H270.239Z" fill="white"/>
<path d="M346.27 227.21C345.649 227.21 345.089 227.065 344.59 226.776C344.095 226.487 343.703 226.095 343.414 225.6C343.125 225.101 342.98 224.541 342.98 223.92V220C342.98 219.379 343.125 218.822 343.414 218.327C343.703 217.828 344.095 217.433 344.59 217.144C345.089 216.855 345.649 216.71 346.27 216.71C346.891 216.71 347.448 216.855 347.943 217.144C348.442 217.433 348.837 217.828 349.126 218.327C349.415 218.822 349.56 219.379 349.56 220V223.92C349.56 224.541 349.415 225.101 349.126 225.6C348.837 226.095 348.442 226.487 347.943 226.776C347.448 227.065 346.891 227.21 346.27 227.21ZM346.27 226.216C346.685 226.216 347.063 226.116 347.404 225.915C347.745 225.71 348.015 225.437 348.216 225.096C348.417 224.755 348.517 224.38 348.517 223.969V219.951C348.517 219.536 348.417 219.158 348.216 218.817C348.015 218.476 347.745 218.206 347.404 218.005C347.063 217.8 346.685 217.697 346.27 217.697C345.855 217.697 345.477 217.8 345.136 218.005C344.795 218.206 344.525 218.476 344.324 218.817C344.123 219.158 344.023 219.536 344.023 219.951V223.969C344.023 224.38 344.123 224.755 344.324 225.096C344.525 225.437 344.795 225.71 345.136 225.915C345.477 226.116 345.855 226.216 346.27 226.216ZM351.245 226.993L351.252 226.055L355.809 221.939C356.201 221.584 356.46 221.248 356.586 220.931C356.717 220.609 356.782 220.273 356.782 219.923C356.782 219.508 356.684 219.132 356.488 218.796C356.292 218.46 356.028 218.194 355.697 217.998C355.366 217.797 354.995 217.697 354.584 217.697C354.155 217.697 353.772 217.8 353.436 218.005C353.1 218.21 352.834 218.481 352.638 218.817C352.447 219.153 352.353 219.519 352.358 219.916H351.308C351.308 219.305 351.453 218.756 351.742 218.271C352.031 217.786 352.423 217.405 352.918 217.13C353.413 216.85 353.973 216.71 354.598 216.71C355.209 216.71 355.758 216.855 356.243 217.144C356.733 217.429 357.118 217.816 357.398 218.306C357.683 218.791 357.825 219.333 357.825 219.93C357.825 220.35 357.774 220.721 357.671 221.043C357.573 221.36 357.417 221.657 357.202 221.932C356.992 222.203 356.724 222.483 356.397 222.772L352.351 226.426L352.19 226.006H357.825V226.993H351.245ZM362.057 216.92H363.114L360.426 227H359.369L362.057 216.92ZM368.227 227.21C367.606 227.21 367.046 227.065 366.547 226.776C366.052 226.487 365.66 226.095 365.371 225.6C365.082 225.101 364.937 224.541 364.937 223.92V220C364.937 219.379 365.082 218.822 365.371 218.327C365.66 217.828 366.052 217.433 366.547 217.144C367.046 216.855 367.606 216.71 368.227 216.71C368.848 216.71 369.405 216.855 369.9 217.144C370.399 217.433 370.794 217.828 371.083 218.327C371.372 218.822 371.517 219.379 371.517 220V223.92C371.517 224.541 371.372 225.101 371.083 225.6C370.794 226.095 370.399 226.487 369.9 226.776C369.405 227.065 368.848 227.21 368.227 227.21ZM368.227 226.216C368.642 226.216 369.02 226.116 369.361 225.915C369.702 225.71 369.972 225.437 370.173 225.096C370.374 224.755 370.474 224.38 370.474 223.969V219.951C370.474 219.536 370.374 219.158 370.173 218.817C369.972 218.476 369.702 218.206 369.361 218.005C369.02 217.8 368.642 217.697 368.227 217.697C367.812 217.697 367.434 217.8 367.093 218.005C366.752 218.206 366.482 218.476 366.281 218.817C366.08 219.158 365.98 219.536 365.98 219.951V223.969C365.98 224.38 366.08 224.755 366.281 225.096C366.482 225.437 366.752 225.71 367.093 225.915C367.434 226.116 367.812 226.216 368.227 226.216ZM376.891 227.21C376.261 227.21 375.687 227.058 375.169 226.755C374.656 226.447 374.245 226.032 373.937 225.509C373.634 224.982 373.482 224.389 373.482 223.731V220.238C373.482 219.561 373.634 218.959 373.937 218.432C374.24 217.9 374.653 217.482 375.176 217.179C375.703 216.871 376.301 216.717 376.968 216.717C377.542 216.717 378.074 216.843 378.564 217.095C379.059 217.347 379.462 217.699 379.775 218.152L378.984 218.803C378.769 218.467 378.485 218.199 378.13 217.998C377.775 217.797 377.388 217.697 376.968 217.697C376.497 217.697 376.077 217.811 375.708 218.04C375.339 218.269 375.05 218.57 374.84 218.943C374.63 219.312 374.525 219.713 374.525 220.147V222.345L374.266 222.051C374.56 221.589 374.945 221.216 375.421 220.931C375.902 220.646 376.424 220.504 376.989 220.504C377.614 220.504 378.177 220.653 378.676 220.952C379.175 221.246 379.572 221.645 379.866 222.149C380.16 222.653 380.307 223.218 380.307 223.843C380.307 224.464 380.151 225.028 379.838 225.537C379.53 226.046 379.117 226.452 378.599 226.755C378.086 227.058 377.516 227.21 376.891 227.21ZM376.891 226.209C377.33 226.209 377.729 226.104 378.088 225.894C378.452 225.684 378.739 225.399 378.949 225.04C379.164 224.681 379.271 224.282 379.271 223.843C379.271 223.404 379.164 223.005 378.949 222.646C378.739 222.282 378.454 221.995 378.095 221.785C377.736 221.57 377.337 221.463 376.898 221.463C376.459 221.463 376.06 221.57 375.701 221.785C375.342 221.995 375.055 222.282 374.84 222.646C374.63 223.005 374.525 223.404 374.525 223.843C374.525 224.277 374.63 224.674 374.84 225.033C375.05 225.392 375.335 225.679 375.694 225.894C376.053 226.104 376.452 226.209 376.891 226.209Z" fill="white"/>
<path d="M457.27 227.21C456.649 227.21 456.089 227.065 455.59 226.776C455.095 226.487 454.703 226.095 454.414 225.6C454.125 225.101 453.98 224.541 453.98 223.92V220C453.98 219.379 454.125 218.822 454.414 218.327C454.703 217.828 455.095 217.433 455.59 217.144C456.089 216.855 456.649 216.71 457.27 216.71C457.891 216.71 458.448 216.855 458.943 217.144C459.442 217.433 459.837 217.828 460.126 218.327C460.415 218.822 460.56 219.379 460.56 220V223.92C460.56 224.541 460.415 225.101 460.126 225.6C459.837 226.095 459.442 226.487 458.943 226.776C458.448 227.065 457.891 227.21 457.27 227.21ZM457.27 226.216C457.685 226.216 458.063 226.116 458.404 225.915C458.745 225.71 459.015 225.437 459.216 225.096C459.417 224.755 459.517 224.38 459.517 223.969V219.951C459.517 219.536 459.417 219.158 459.216 218.817C459.015 218.476 458.745 218.206 458.404 218.005C458.063 217.8 457.685 217.697 457.27 217.697C456.855 217.697 456.477 217.8 456.136 218.005C455.795 218.206 455.525 218.476 455.324 218.817C455.123 219.158 455.023 219.536 455.023 219.951V223.969C455.023 224.38 455.123 224.755 455.324 225.096C455.525 225.437 455.795 225.71 456.136 225.915C456.477 226.116 456.855 226.216 457.27 226.216ZM462.245 226.993L462.252 226.055L466.809 221.939C467.201 221.584 467.46 221.248 467.586 220.931C467.717 220.609 467.782 220.273 467.782 219.923C467.782 219.508 467.684 219.132 467.488 218.796C467.292 218.46 467.028 218.194 466.697 217.998C466.366 217.797 465.995 217.697 465.584 217.697C465.155 217.697 464.772 217.8 464.436 218.005C464.1 218.21 463.834 218.481 463.638 218.817C463.447 219.153 463.353 219.519 463.358 219.916H462.308C462.308 219.305 462.453 218.756 462.742 218.271C463.031 217.786 463.423 217.405 463.918 217.13C464.413 216.85 464.973 216.71 465.598 216.71C466.209 216.71 466.758 216.855 467.243 217.144C467.733 217.429 468.118 217.816 468.398 218.306C468.683 218.791 468.825 219.333 468.825 219.93C468.825 220.35 468.774 220.721 468.671 221.043C468.573 221.36 468.417 221.657 468.202 221.932C467.992 222.203 467.724 222.483 467.397 222.772L463.351 226.426L463.19 226.006H468.825V226.993H462.245ZM473.057 216.92H474.114L471.426 227H470.369L473.057 216.92ZM479.227 227.21C478.606 227.21 478.046 227.065 477.547 226.776C477.052 226.487 476.66 226.095 476.371 225.6C476.082 225.101 475.937 224.541 475.937 223.92V220C475.937 219.379 476.082 218.822 476.371 218.327C476.66 217.828 477.052 217.433 477.547 217.144C478.046 216.855 478.606 216.71 479.227 216.71C479.848 216.71 480.405 216.855 480.9 217.144C481.399 217.433 481.794 217.828 482.083 218.327C482.372 218.822 482.517 219.379 482.517 220V223.92C482.517 224.541 482.372 225.101 482.083 225.6C481.794 226.095 481.399 226.487 480.9 226.776C480.405 227.065 479.848 227.21 479.227 227.21ZM479.227 226.216C479.642 226.216 480.02 226.116 480.361 225.915C480.702 225.71 480.972 225.437 481.173 225.096C481.374 224.755 481.474 224.38 481.474 223.969V219.951C481.474 219.536 481.374 219.158 481.173 218.817C480.972 218.476 480.702 218.206 480.361 218.005C480.02 217.8 479.642 217.697 479.227 217.697C478.812 217.697 478.434 217.8 478.093 218.005C477.752 218.206 477.482 218.476 477.281 218.817C477.08 219.158 476.98 219.536 476.98 219.951V223.969C476.98 224.38 477.08 224.755 477.281 225.096C477.482 225.437 477.752 225.71 478.093 225.915C478.434 226.116 478.812 226.216 479.227 226.216ZM487.555 227.21C486.925 227.21 486.367 227.084 485.882 226.832C485.401 226.58 485.023 226.228 484.748 225.775C484.477 225.318 484.342 224.783 484.342 224.172C484.342 223.547 484.494 222.991 484.797 222.506C485.1 222.016 485.562 221.645 486.183 221.393L486.169 221.799C485.651 221.608 485.257 221.295 484.986 220.861C484.715 220.427 484.58 219.946 484.58 219.419C484.58 218.859 484.708 218.378 484.965 217.977C485.222 217.571 485.572 217.258 486.015 217.039C486.463 216.82 486.976 216.71 487.555 216.71C488.134 216.71 488.647 216.82 489.095 217.039C489.543 217.258 489.895 217.571 490.152 217.977C490.409 218.378 490.537 218.859 490.537 219.419C490.537 219.946 490.406 220.425 490.145 220.854C489.888 221.283 489.494 221.598 488.962 221.799L488.927 221.393C489.548 221.64 490.012 222.009 490.32 222.499C490.633 222.989 490.789 223.547 490.789 224.172C490.789 224.783 490.651 225.318 490.376 225.775C490.101 226.228 489.72 226.58 489.235 226.832C488.75 227.084 488.19 227.21 487.555 227.21ZM487.555 226.223C488.19 226.223 488.705 226.048 489.102 225.698C489.499 225.343 489.697 224.835 489.697 224.172C489.697 223.5 489.501 222.991 489.109 222.646C488.717 222.296 488.199 222.121 487.555 222.121C486.911 222.121 486.395 222.296 486.008 222.646C485.621 222.991 485.427 223.5 485.427 224.172C485.427 224.835 485.623 225.343 486.015 225.698C486.407 226.048 486.92 226.223 487.555 226.223ZM487.555 221.127C488.115 221.127 488.57 220.985 488.92 220.7C489.27 220.411 489.445 219.984 489.445 219.419C489.445 218.854 489.27 218.432 488.92 218.152C488.57 217.867 488.115 217.725 487.555 217.725C486.995 217.725 486.54 217.867 486.19 218.152C485.845 218.432 485.672 218.854 485.672 219.419C485.672 219.984 485.845 220.411 486.19 220.7C486.54 220.985 486.995 221.127 487.555 221.127Z" fill="white"/>
<path d="M13.27 197.21C12.6493 197.21 12.0893 197.065 11.59 196.776C11.0953 196.487 10.7033 196.095 10.414 195.6C10.1247 195.101 9.98 194.541 9.98 193.92V190C9.98 189.379 10.1247 188.822 10.414 188.327C10.7033 187.828 11.0953 187.433 11.59 187.144C12.0893 186.855 12.6493 186.71 13.27 186.71C13.8907 186.71 14.4483 186.855 14.943 187.144C15.4423 187.433 15.8367 187.828 16.126 188.327C16.4153 188.822 16.56 189.379 16.56 190V193.92C16.56 194.541 16.4153 195.101 16.126 195.6C15.8367 196.095 15.4423 196.487 14.943 196.776C14.4483 197.065 13.8907 197.21 13.27 197.21ZM13.27 196.216C13.6853 196.216 14.0633 196.116 14.404 195.915C14.7447 195.71 15.0153 195.437 15.216 195.096C15.4167 194.755 15.517 194.38 15.517 193.969V189.951C15.517 189.536 15.4167 189.158 15.216 188.817C15.0153 188.476 14.7447 188.206 14.404 188.005C14.0633 187.8 13.6853 187.697 13.27 187.697C12.8547 187.697 12.4767 187.8 12.136 188.005C11.7953 188.206 11.5247 188.476 11.324 188.817C11.1233 189.158 11.023 189.536 11.023 189.951V193.969C11.023 194.38 11.1233 194.755 11.324 195.096C11.5247 195.437 11.7953 195.71 12.136 195.915C12.4767 196.116 12.8547 196.216 13.27 196.216Z" fill="white"/>
<path d="M5.737 161V152.068L3.84 153.209V152.054L5.737 150.92H6.78V161H5.737ZM12.7251 161.21C12.1044 161.21 11.5444 161.065 11.0451 160.776C10.5504 160.487 10.1584 160.095 9.86908 159.6C9.57974 159.101 9.43508 158.541 9.43508 157.92V154C9.43508 153.379 9.57974 152.822 9.86908 152.327C10.1584 151.828 10.5504 151.433 11.0451 151.144C11.5444 150.855 12.1044 150.71 12.7251 150.71C13.3457 150.71 13.9034 150.855 14.3981 151.144C14.8974 151.433 15.2917 151.828 15.5811 152.327C15.8704 152.822 16.0151 153.379 16.0151 154V157.92C16.0151 158.541 15.8704 159.101 15.5811 159.6C15.2917 160.095 14.8974 160.487 14.3981 160.776C13.9034 161.065 13.3457 161.21 12.7251 161.21ZM12.7251 160.216C13.1404 160.216 13.5184 160.116 13.8591 159.915C14.1997 159.71 14.4704 159.437 14.6711 159.096C14.8717 158.755 14.9721 158.38 14.9721 157.969V153.951C14.9721 153.536 14.8717 153.158 14.6711 152.817C14.4704 152.476 14.1997 152.206 13.8591 152.005C13.5184 151.8 13.1404 151.697 12.7251 151.697C12.3097 151.697 11.9317 151.8 11.5911 152.005C11.2504 152.206 10.9797 152.476 10.7791 152.817C10.5784 153.158 10.4781 153.536 10.4781 153.951V157.969C10.4781 158.38 10.5784 158.755 10.7791 159.096C10.9797 159.437 11.2504 159.71 11.5911 159.915C11.9317 160.116 12.3097 160.216 12.7251 160.216Z" fill="white"/>
<path d="M0.7 124.993L0.707 124.055L5.264 119.939C5.656 119.584 5.915 119.248 6.041 118.931C6.17167 118.609 6.237 118.273 6.237 117.923C6.237 117.508 6.139 117.132 5.943 116.796C5.747 116.46 5.48333 116.194 5.152 115.998C4.82067 115.797 4.44967 115.697 4.039 115.697C3.60967 115.697 3.227 115.8 2.891 116.005C2.555 116.21 2.289 116.481 2.093 116.817C1.90167 117.153 1.80833 117.519 1.813 117.916H0.763C0.763 117.305 0.907667 116.756 1.197 116.271C1.48633 115.786 1.87833 115.405 2.373 115.13C2.86767 114.85 3.42767 114.71 4.053 114.71C4.66433 114.71 5.21267 114.855 5.698 115.144C6.188 115.429 6.573 115.816 6.853 116.306C7.13767 116.791 7.28 117.333 7.28 117.93C7.28 118.35 7.22867 118.721 7.126 119.043C7.028 119.36 6.87167 119.657 6.657 119.932C6.447 120.203 6.17867 120.483 5.852 120.772L1.806 124.426L1.645 124.006H7.28V124.993H0.7ZM12.2544 125.21C11.6337 125.21 11.0737 125.065 10.5744 124.776C10.0797 124.487 9.68771 124.095 9.39838 123.6C9.10904 123.101 8.96438 122.541 8.96438 121.92V118C8.96438 117.379 9.10904 116.822 9.39838 116.327C9.68771 115.828 10.0797 115.433 10.5744 115.144C11.0737 114.855 11.6337 114.71 12.2544 114.71C12.875 114.71 13.4327 114.855 13.9274 115.144C14.4267 115.433 14.821 115.828 15.1104 116.327C15.3997 116.822 15.5444 117.379 15.5444 118V121.92C15.5444 122.541 15.3997 123.101 15.1104 123.6C14.821 124.095 14.4267 124.487 13.9274 124.776C13.4327 125.065 12.875 125.21 12.2544 125.21ZM12.2544 124.216C12.6697 124.216 13.0477 124.116 13.3884 123.915C13.729 123.71 13.9997 123.437 14.2004 123.096C14.401 122.755 14.5014 122.38 14.5014 121.969V117.951C14.5014 117.536 14.401 117.158 14.2004 116.817C13.9997 116.476 13.729 116.206 13.3884 116.005C13.0477 115.8 12.6697 115.697 12.2544 115.697C11.839 115.697 11.461 115.8 11.1204 116.005C10.7797 116.206 10.509 116.476 10.3084 116.817C10.1077 117.158 10.0074 117.536 10.0074 117.951V121.969C10.0074 122.38 10.1077 122.755 10.3084 123.096C10.509 123.437 10.7797 123.71 11.1204 123.915C11.461 124.116 11.839 124.216 12.2544 124.216Z" fill="white"/>
<path d="M4.689 89.203C4.18967 89.203 3.73 89.1143 3.31 88.937C2.89 88.7597 2.52833 88.5077 2.225 88.181C1.92167 87.8497 1.7 87.4553 1.56 86.998L2.54 86.704C2.708 87.2033 2.98333 87.5813 3.366 87.838C3.75333 88.0947 4.18967 88.2183 4.675 88.209C5.123 88.1997 5.508 88.0993 5.83 87.908C6.15667 87.7167 6.40633 87.4507 6.579 87.11C6.75167 86.7693 6.838 86.375 6.838 85.927C6.838 85.241 6.63733 84.6903 6.236 84.275C5.83933 83.855 5.31433 83.645 4.661 83.645C4.479 83.645 4.28767 83.6707 4.087 83.722C3.88633 83.7687 3.69967 83.8363 3.527 83.925L3.009 83.106L6.929 79.487L7.097 79.907H1.959V78.92H7.783V79.921L4.367 83.183L4.353 82.777C5.053 82.6883 5.669 82.7677 6.201 83.015C6.733 83.2623 7.14833 83.6403 7.447 84.149C7.75033 84.653 7.902 85.2457 7.902 85.927C7.902 86.571 7.762 87.1403 7.482 87.635C7.20667 88.125 6.82633 88.51 6.341 88.79C5.85567 89.0653 5.305 89.203 4.689 89.203ZM13.0083 89.21C12.3876 89.21 11.8276 89.0653 11.3283 88.776C10.8336 88.4867 10.4416 88.0947 10.1523 87.6C9.86295 87.1007 9.71828 86.5407 9.71828 85.92V82C9.71828 81.3793 9.86295 80.8217 10.1523 80.327C10.4416 79.8277 10.8336 79.4333 11.3283 79.144C11.8276 78.8547 12.3876 78.71 13.0083 78.71C13.6289 78.71 14.1866 78.8547 14.6813 79.144C15.1806 79.4333 15.5749 79.8277 15.8643 80.327C16.1536 80.8217 16.2983 81.3793 16.2983 82V85.92C16.2983 86.5407 16.1536 87.1007 15.8643 87.6C15.5749 88.0947 15.1806 88.4867 14.6813 88.776C14.1866 89.0653 13.6289 89.21 13.0083 89.21ZM13.0083 88.216C13.4236 88.216 13.8016 88.1157 14.1423 87.915C14.4829 87.7097 14.7536 87.4367 14.9543 87.096C15.1549 86.7553 15.2553 86.3797 15.2553 85.969V81.951C15.2553 81.5357 15.1549 81.1577 14.9543 80.817C14.7536 80.4763 14.4829 80.2057 14.1423 80.005C13.8016 79.7997 13.4236 79.697 13.0083 79.697C12.5929 79.697 12.2149 79.7997 11.8743 80.005C11.5336 80.2057 11.2629 80.4763 11.0623 80.817C10.8616 81.1577 10.7613 81.5357 10.7613 81.951V85.969C10.7613 86.3797 10.8616 86.7553 11.0623 87.096C11.2629 87.4367 11.5336 87.7097 11.8743 87.915C12.2149 88.1157 12.5929 88.216 13.0083 88.216Z" fill="white"/>
<path d="M5.418 53V51.047H0.7V50.067L4.074 42.92H5.229L1.855 50.067H5.418V47.127H6.454V50.067H7.553V51.047H6.454V53H5.418ZM12.5278 53.21C11.9071 53.21 11.3471 53.0653 10.8478 52.776C10.3531 52.4867 9.96115 52.0947 9.67181 51.6C9.38248 51.1007 9.23781 50.5407 9.23781 49.92V46C9.23781 45.3793 9.38248 44.8217 9.67181 44.327C9.96115 43.8277 10.3531 43.4333 10.8478 43.144C11.3471 42.8547 11.9071 42.71 12.5278 42.71C13.1485 42.71 13.7061 42.8547 14.2008 43.144C14.7001 43.4333 15.0945 43.8277 15.3838 44.327C15.6731 44.8217 15.8178 45.3793 15.8178 46V49.92C15.8178 50.5407 15.6731 51.1007 15.3838 51.6C15.0945 52.0947 14.7001 52.4867 14.2008 52.776C13.7061 53.0653 13.1485 53.21 12.5278 53.21ZM12.5278 52.216C12.9431 52.216 13.3211 52.1157 13.6618 51.915C14.0025 51.7097 14.2731 51.4367 14.4738 51.096C14.6745 50.7553 14.7748 50.3797 14.7748 49.969V45.951C14.7748 45.5357 14.6745 45.1577 14.4738 44.817C14.2731 44.4763 14.0025 44.2057 13.6618 44.005C13.3211 43.7997 12.9431 43.697 12.5278 43.697C12.1125 43.697 11.7345 43.7997 11.3938 44.005C11.0531 44.2057 10.7825 44.4763 10.5818 44.817C10.3811 45.1577 10.2808 45.5357 10.2808 45.951V49.969C10.2808 50.3797 10.3811 50.7553 10.5818 51.096C10.7825 51.4367 11.0531 51.7097 11.3938 51.915C11.7345 52.1157 12.1125 52.216 12.5278 52.216Z" fill="white"/>
<path d="M3.955 17.21C3.43233 17.21 2.94933 17.1027 2.506 16.888C2.06267 16.6733 1.68467 16.377 1.372 15.999C1.05933 15.621 0.835333 15.187 0.7 14.697L1.687 14.431C1.77567 14.795 1.93667 15.11 2.17 15.376C2.40333 15.6373 2.67633 15.8403 2.989 15.985C3.30633 16.1297 3.63767 16.202 3.983 16.202C4.431 16.202 4.83233 16.0947 5.187 15.88C5.54633 15.6607 5.831 15.3713 6.041 15.012C6.251 14.6527 6.356 14.2583 6.356 13.829C6.356 13.3857 6.24633 12.9867 6.027 12.632C5.80767 12.2727 5.51833 11.988 5.159 11.778C4.79967 11.568 4.40767 11.463 3.983 11.463C3.507 11.463 3.09633 11.568 2.751 11.778C2.40567 11.9833 2.13033 12.2423 1.925 12.555L0.987 12.163L1.295 6.92H6.678V7.907H1.75L2.261 7.424L1.988 11.897L1.729 11.554C2.01833 11.2227 2.36833 10.9637 2.779 10.777C3.18967 10.5903 3.62133 10.497 4.074 10.497C4.69467 10.497 5.25467 10.6463 5.754 10.945C6.25333 11.239 6.65 11.638 6.944 12.142C7.238 12.646 7.385 13.2083 7.385 13.829C7.385 14.445 7.22867 15.0097 6.916 15.523C6.60333 16.0317 6.188 16.44 5.67 16.748C5.152 17.056 4.58033 17.21 3.955 17.21ZM12.3501 17.21C11.7294 17.21 11.1694 17.0653 10.6701 16.776C10.1754 16.4867 9.78341 16.0947 9.49408 15.6C9.20474 15.1007 9.06008 14.5407 9.06008 13.92V10C9.06008 9.37933 9.20474 8.82167 9.49408 8.327C9.78341 7.82767 10.1754 7.43333 10.6701 7.144C11.1694 6.85467 11.7294 6.71 12.3501 6.71C12.9707 6.71 13.5284 6.85467 14.0231 7.144C14.5224 7.43333 14.9167 7.82767 15.2061 8.327C15.4954 8.82167 15.6401 9.37933 15.6401 10V13.92C15.6401 14.5407 15.4954 15.1007 15.2061 15.6C14.9167 16.0947 14.5224 16.4867 14.0231 16.776C13.5284 17.0653 12.9707 17.21 12.3501 17.21ZM12.3501 16.216C12.7654 16.216 13.1434 16.1157 13.4841 15.915C13.8247 15.7097 14.0954 15.4367 14.2961 15.096C14.4967 14.7553 14.5971 14.3797 14.5971 13.969V9.951C14.5971 9.53567 14.4967 9.15767 14.2961 8.817C14.0954 8.47633 13.8247 8.20567 13.4841 8.005C13.1434 7.79967 12.7654 7.697 12.3501 7.697C11.9347 7.697 11.5567 7.79967 11.2161 8.005C10.8754 8.20567 10.6047 8.47633 10.4041 8.817C10.2034 9.15767 10.1031 9.53567 10.1031 9.951V13.969C10.1031 14.3797 10.2034 14.7553 10.4041 15.096C10.6047 15.4367 10.8754 15.7097 11.2161 15.915C11.5567 16.1157 11.9347 16.216 12.3501 16.216Z" fill="white"/>
<path d="M32 191.5H492M32 155.5H492M32 119.5H492M32 83.5H492M32 47.5H492M32 11.5H492M32.5 12L32.5 192M89.5 12L89.5 192M203.5 12L203.5 192M146.5 12L146.5 192M260.5 12L260.5 192M317.5 12V192M431.5 12V192M374.5 12V192M491.5 12V192" stroke="#252526" stroke-dasharray="4 4"/>
<g style="mix-blend-mode:overlay">
<path d="M105.782 114.538C83.5 99.9721 46.5743 69.0489 32 50V192H492V122.65C434.5 111.352 399.5 126.69 380.507 124.093C345.95 119.367 308.971 104.905 235.675 120.307C153.5 137.575 131.626 131.432 105.782 114.538Z" fill="url(#paint0_linear_444_222)"/>
</g>
<path d="M32 50C46.5743 69.2502 83.5 100.5 105.782 115.22C131.626 132.292 153.5 138.5 235.675 121.05C308.971 105.485 345.95 120.1 380.507 124.875C399.5 127.5 434.5 112 492 123.418" stroke="url(#paint1_linear_444_222)" stroke-width="2" stroke-linecap="round"/>
<path d="M32 192H492" stroke="white"/>
<defs>
<linearGradient id="paint0_linear_444_222" x1="262" y1="50" x2="252.126" y2="191.807" gradientUnits="userSpaceOnUse">
<stop stop-color="white" stop-opacity="0.2"/>
<stop offset="1" stop-color="white" stop-opacity="0"/>
</linearGradient>
<linearGradient id="paint1_linear_444_222" x1="32" y1="90.7338" x2="492" y2="90.7338" gradientUnits="userSpaceOnUse">
<stop stop-color="#0052CC"/>
<stop offset="1" stop-color="#0099FF"/>
</linearGradient>
</defs>
</svg>
