<svg width="339" height="237" viewBox="0 0 339 237" fill="none" xmlns="http://www.w3.org/2000/svg">
<path d="M136.212 109.36C135.084 109.36 134.084 109.136 133.212 108.688C132.348 108.232 131.668 107.6 131.172 106.792C130.684 105.984 130.44 105.048 130.44 103.984C130.44 102.992 130.672 102.084 131.136 101.26C131.6 100.436 132.292 99.788 133.212 99.316L133.164 100.18C132.428 99.724 131.86 99.156 131.46 98.476C131.068 97.788 130.872 97.02 130.872 96.172C130.872 95.188 131.1 94.336 131.556 93.616C132.012 92.896 132.64 92.34 133.44 91.948C134.248 91.556 135.172 91.36 136.212 91.36C137.252 91.36 138.172 91.556 138.972 91.948C139.772 92.34 140.4 92.896 140.856 93.616C141.312 94.336 141.54 95.188 141.54 96.172C141.54 97.02 141.352 97.784 140.976 98.464C140.6 99.144 140.024 99.716 139.248 100.18L139.212 99.34C140.124 99.788 140.816 100.428 141.288 101.26C141.76 102.084 141.996 102.992 141.996 103.984C141.996 105.048 141.748 105.984 141.252 106.792C140.756 107.6 140.072 108.232 139.2 108.688C138.328 109.136 137.332 109.36 136.212 109.36ZM136.212 106.972C137.14 106.972 137.892 106.72 138.468 106.216C139.044 105.704 139.332 104.96 139.332 103.984C139.332 103.008 139.044 102.264 138.468 101.752C137.9 101.232 137.148 100.972 136.212 100.972C135.276 100.972 134.52 101.232 133.944 101.752C133.376 102.264 133.092 103.008 133.092 103.984C133.092 104.96 133.38 105.704 133.956 106.216C134.532 106.72 135.284 106.972 136.212 106.972ZM136.212 98.572C137.004 98.572 137.644 98.376 138.132 97.984C138.628 97.584 138.876 96.98 138.876 96.172C138.876 95.364 138.628 94.76 138.132 94.36C137.644 93.952 137.004 93.748 136.212 93.748C135.42 93.748 134.776 93.952 134.28 94.36C133.784 94.76 133.536 95.364 133.536 96.172C133.536 96.98 133.784 97.584 134.28 97.984C134.776 98.376 135.42 98.572 136.212 98.572ZM150.242 109.36C149.354 109.36 148.526 109.18 147.758 108.82C146.998 108.452 146.346 107.948 145.802 107.308C145.258 106.66 144.87 105.916 144.638 105.076L147.05 104.428C147.186 104.94 147.418 105.384 147.746 105.76C148.082 106.136 148.474 106.428 148.922 106.636C149.37 106.836 149.834 106.936 150.314 106.936C150.946 106.936 151.518 106.784 152.03 106.48C152.55 106.176 152.958 105.768 153.254 105.256C153.558 104.744 153.71 104.18 153.71 103.564C153.71 102.932 153.554 102.36 153.242 101.848C152.938 101.336 152.526 100.932 152.006 100.636C151.494 100.332 150.93 100.18 150.314 100.18C149.61 100.18 149.014 100.32 148.526 100.6C148.038 100.88 147.658 101.204 147.386 101.572L145.201 100.804L145.73 91.72H155.054V94.084H147.014L148.034 93.136L147.614 99.94L147.122 99.304C147.578 98.848 148.122 98.5 148.754 98.26C149.386 98.02 150.014 97.9 150.638 97.9C151.71 97.9 152.666 98.148 153.506 98.644C154.354 99.14 155.022 99.816 155.51 100.672C155.998 101.52 156.242 102.484 156.242 103.564C156.242 104.636 155.966 105.612 155.414 106.492C154.862 107.364 154.13 108.06 153.218 108.58C152.306 109.1 151.314 109.36 150.242 109.36ZM159.542 109V106.348H162.194V109H159.542ZM166.877 109L172.949 94.108H165.257V91.72H175.649V94.108L169.589 109H166.877ZM181.551 109V94.48L178.299 96.46V93.664L181.551 91.72H184.107V109H181.551ZM190.824 109L189.144 107.32L204.756 91.72L206.436 93.412L190.824 109ZM202.836 109.36C202.044 109.36 201.32 109.168 200.664 108.784C200.016 108.392 199.496 107.872 199.104 107.224C198.712 106.568 198.516 105.84 198.516 105.04C198.516 104.256 198.716 103.536 199.116 102.88C199.516 102.224 200.044 101.7 200.7 101.308C201.356 100.916 202.068 100.72 202.836 100.72C203.628 100.72 204.352 100.916 205.008 101.308C205.664 101.692 206.184 102.212 206.568 102.868C206.96 103.516 207.156 104.24 207.156 105.04C207.156 105.84 206.96 106.568 206.568 107.224C206.184 107.872 205.664 108.392 205.008 108.784C204.352 109.168 203.628 109.36 202.836 109.36ZM202.836 107.188C203.228 107.188 203.584 107.092 203.904 106.9C204.232 106.7 204.492 106.436 204.684 106.108C204.884 105.78 204.984 105.424 204.984 105.04C204.984 104.656 204.884 104.3 204.684 103.972C204.492 103.644 204.232 103.384 203.904 103.192C203.584 102.992 203.228 102.892 202.836 102.892C202.452 102.892 202.096 102.992 201.768 103.192C201.448 103.384 201.188 103.644 200.988 103.972C200.796 104.3 200.7 104.656 200.7 105.04C200.7 105.424 200.796 105.78 200.988 106.108C201.188 106.436 201.448 106.7 201.768 106.9C202.096 107.092 202.452 107.188 202.836 107.188ZM192.744 100C191.952 100 191.228 99.808 190.572 99.424C189.916 99.032 189.392 98.512 189 97.864C188.616 97.208 188.424 96.48 188.424 95.68C188.424 94.896 188.624 94.176 189.024 93.52C189.424 92.864 189.952 92.34 190.608 91.948C191.264 91.556 191.976 91.36 192.744 91.36C193.536 91.36 194.256 91.556 194.904 91.948C195.56 92.332 196.084 92.852 196.476 93.508C196.868 94.156 197.064 94.88 197.064 95.68C197.064 96.48 196.868 97.208 196.476 97.864C196.084 98.512 195.56 99.032 194.904 99.424C194.256 99.808 193.536 100 192.744 100ZM192.744 97.828C193.128 97.828 193.484 97.732 193.812 97.54C194.14 97.34 194.4 97.076 194.592 96.748C194.792 96.42 194.892 96.064 194.892 95.68C194.892 95.296 194.792 94.94 194.592 94.612C194.4 94.284 194.14 94.024 193.812 93.832C193.484 93.632 193.128 93.532 192.744 93.532C192.36 93.532 192.004 93.632 191.676 93.832C191.356 94.024 191.096 94.284 190.896 94.612C190.696 94.94 190.596 95.296 190.596 95.68C190.596 96.064 190.696 96.42 190.896 96.748C191.096 97.076 191.356 97.34 191.676 97.54C191.996 97.732 192.352 97.828 192.744 97.828Z" fill="white"/>
<path d="M16 225C16 225.75 15.79 226.46 15.42 227.06C15.21 227.42 14.94 227.74 14.63 228C13.93 228.63 13.01 229 12 229C10.54 229 9.27 228.22 8.58 227.06C8.21 226.46 8 225.75 8 225C8 223.74 8.58 222.61 9.5 221.88C10.19 221.33 11.06 221 12 221C14.21 221 16 222.79 16 225Z" fill="url(#paint0_linear_444_221)"/>
<path d="M37.019 230.21C36.3097 230.21 35.6703 230.086 35.101 229.839C34.5317 229.592 34.0463 229.239 33.645 228.782C33.2483 228.325 32.945 227.774 32.735 227.13C32.525 226.481 32.42 225.758 32.42 224.96C32.42 223.905 32.602 222.986 32.966 222.202C33.3347 221.413 33.862 220.802 34.548 220.368C35.234 219.934 36.0577 219.717 37.019 219.717C38.0923 219.717 38.965 219.969 39.637 220.473C40.3137 220.972 40.785 221.644 41.051 222.489L40.015 222.741C39.7957 222.125 39.434 221.633 38.93 221.264C38.4307 220.895 37.8077 220.711 37.061 220.711C36.2723 220.706 35.6167 220.884 35.094 221.243C34.5713 221.598 34.177 222.097 33.911 222.741C33.6497 223.38 33.5167 224.12 33.512 224.96C33.5073 225.8 33.6357 226.54 33.897 227.179C34.163 227.814 34.5597 228.313 35.087 228.677C35.6143 229.036 36.2723 229.218 37.061 229.223C37.7843 229.223 38.3817 229.083 38.853 228.803C39.3243 228.523 39.6813 228.122 39.924 227.599C40.1713 227.076 40.3113 226.458 40.344 225.744H38.02V224.862H41.422C41.436 224.969 41.443 225.084 41.443 225.205C41.4477 225.322 41.45 225.406 41.45 225.457C41.45 226.367 41.2867 227.181 40.96 227.9C40.6333 228.614 40.141 229.179 39.483 229.594C38.8297 230.005 38.0083 230.21 37.019 230.21ZM46.0081 230.21C45.2568 230.21 44.6151 230.04 44.0831 229.699C43.5511 229.358 43.1428 228.887 42.8581 228.285C42.5734 227.683 42.4311 226.992 42.4311 226.213C42.4311 225.42 42.5758 224.724 42.8651 224.127C43.1544 223.53 43.5651 223.065 44.0971 222.734C44.6338 222.398 45.2708 222.23 46.0081 222.23C46.7641 222.23 47.4081 222.4 47.9401 222.741C48.4768 223.077 48.8851 223.546 49.1651 224.148C49.4498 224.745 49.5921 225.434 49.5921 226.213C49.5921 227.006 49.4498 227.704 49.1651 228.306C48.8804 228.903 48.4698 229.37 47.9331 229.706C47.3964 230.042 46.7548 230.21 46.0081 230.21ZM46.0081 229.223C46.8481 229.223 47.4734 228.945 47.8841 228.39C48.2948 227.83 48.5001 227.104 48.5001 226.213C48.5001 225.298 48.2924 224.57 47.8771 224.029C47.4664 223.488 46.8434 223.217 46.0081 223.217C45.4434 223.217 44.9768 223.345 44.6081 223.602C44.2441 223.854 43.9711 224.206 43.7891 224.659C43.6118 225.107 43.5231 225.625 43.5231 226.213C43.5231 227.123 43.7331 227.853 44.1531 228.404C44.5731 228.95 45.1914 229.223 46.0081 229.223ZM54.0693 230.21C53.3646 230.21 52.7626 230.035 52.2633 229.685C51.7639 229.33 51.3813 228.852 51.1153 228.25C50.8493 227.648 50.7163 226.969 50.7163 226.213C50.7163 225.462 50.8469 224.785 51.1083 224.183C51.3743 223.581 51.7546 223.105 52.2493 222.755C52.7439 222.405 53.3366 222.23 54.0273 222.23C54.7366 222.23 55.3339 222.403 55.8193 222.748C56.3046 223.093 56.6709 223.567 56.9183 224.169C57.1703 224.766 57.2963 225.448 57.2963 226.213C57.2963 226.964 57.1726 227.643 56.9253 228.25C56.6779 228.852 56.3139 229.33 55.8333 229.685C55.3526 230.035 54.7646 230.21 54.0693 230.21ZM54.1743 229.251C54.7109 229.251 55.1543 229.12 55.5043 228.859C55.8543 228.598 56.1156 228.238 56.2883 227.781C56.4609 227.319 56.5473 226.796 56.5473 226.213C56.5473 225.62 56.4609 225.098 56.2883 224.645C56.1156 224.188 55.8543 223.831 55.5043 223.574C55.1589 223.317 54.7226 223.189 54.1953 223.189C53.6539 223.189 53.2059 223.322 52.8513 223.588C52.4966 223.854 52.2329 224.216 52.0603 224.673C51.8923 225.13 51.8083 225.644 51.8083 226.213C51.8083 226.787 51.8946 227.305 52.0673 227.767C52.2446 228.224 52.5083 228.586 52.8583 228.852C53.2083 229.118 53.6469 229.251 54.1743 229.251ZM56.5473 230V224.309H56.4353V219.92H57.4713V230H56.5473ZM61.5981 230.21C61.0287 230.21 60.5504 230.107 60.1631 229.902C59.7804 229.697 59.4934 229.424 59.3021 229.083C59.1107 228.742 59.0151 228.371 59.0151 227.97C59.0151 227.559 59.0967 227.209 59.2601 226.92C59.4281 226.626 59.6544 226.386 59.9391 226.199C60.2284 226.012 60.5621 225.87 60.9401 225.772C61.3227 225.679 61.7451 225.597 62.2071 225.527C62.6737 225.452 63.1287 225.389 63.5721 225.338C64.0201 225.282 64.4121 225.228 64.7481 225.177L64.3841 225.401C64.3981 224.654 64.2534 224.101 63.9501 223.742C63.6467 223.383 63.1194 223.203 62.3681 223.203C61.8501 223.203 61.4114 223.32 61.0521 223.553C60.6974 223.786 60.4477 224.155 60.3031 224.659L59.3021 224.365C59.4747 223.688 59.8224 223.163 60.3451 222.79C60.8677 222.417 61.5467 222.23 62.3821 222.23C63.0727 222.23 63.6584 222.361 64.1391 222.622C64.6244 222.879 64.9674 223.252 65.1681 223.742C65.2614 223.961 65.3221 224.206 65.3501 224.477C65.3781 224.748 65.3921 225.023 65.3921 225.303V230H64.4751V228.103L64.7411 228.215C64.4844 228.864 64.0854 229.358 63.5441 229.699C63.0027 230.04 62.3541 230.21 61.5981 230.21ZM61.7171 229.321C62.1977 229.321 62.6177 229.235 62.9771 229.062C63.3364 228.889 63.6257 228.654 63.8451 228.355C64.0644 228.052 64.2067 227.711 64.2721 227.333C64.3281 227.09 64.3584 226.824 64.3631 226.535C64.3677 226.241 64.3701 226.022 64.3701 225.877L64.7621 226.08C64.4121 226.127 64.0317 226.173 63.6211 226.22C63.2151 226.267 62.8137 226.32 62.4171 226.381C62.0251 226.442 61.6704 226.514 61.3531 226.598C61.1384 226.659 60.9307 226.745 60.7301 226.857C60.5294 226.964 60.3637 227.109 60.2331 227.291C60.1071 227.473 60.0441 227.699 60.0441 227.97C60.0441 228.189 60.0977 228.402 60.2051 228.607C60.3171 228.812 60.4944 228.983 60.7371 229.118C60.9844 229.253 61.3111 229.321 61.7171 229.321ZM70.1474 230.21C69.4427 230.21 68.8407 230.035 68.3414 229.685C67.842 229.33 67.4594 228.852 67.1934 228.25C66.9274 227.648 66.7944 226.969 66.7944 226.213C66.7944 225.462 66.925 224.785 67.1864 224.183C67.4524 223.581 67.8327 223.105 68.3274 222.755C68.822 222.405 69.4147 222.23 70.1054 222.23C70.8147 222.23 71.412 222.403 71.8974 222.748C72.3827 223.093 72.749 223.567 72.9964 224.169C73.2484 224.766 73.3744 225.448 73.3744 226.213C73.3744 226.964 73.2507 227.643 73.0034 228.25C72.756 228.852 72.392 229.33 71.9114 229.685C71.4307 230.035 70.8427 230.21 70.1474 230.21ZM70.2524 229.251C70.789 229.251 71.2324 229.12 71.5824 228.859C71.9324 228.598 72.1937 228.238 72.3664 227.781C72.539 227.319 72.6254 226.796 72.6254 226.213C72.6254 225.62 72.539 225.098 72.3664 224.645C72.1937 224.188 71.9324 223.831 71.5824 223.574C71.237 223.317 70.8007 223.189 70.2734 223.189C69.732 223.189 69.284 223.322 68.9294 223.588C68.5747 223.854 68.311 224.216 68.1384 224.673C67.9704 225.13 67.8864 225.644 67.8864 226.213C67.8864 226.787 67.9727 227.305 68.1454 227.767C68.3227 228.224 68.5864 228.586 68.9364 228.852C69.2864 229.118 69.725 229.251 70.2524 229.251ZM72.6254 230V224.309H72.5134V219.92H73.5494V230H72.6254ZM78.4462 230.21C77.7415 230.21 77.1395 230.035 76.6402 229.685C76.1409 229.33 75.7582 228.852 75.4922 228.25C75.2262 227.648 75.0932 226.969 75.0932 226.213C75.0932 225.462 75.2239 224.785 75.4852 224.183C75.7512 223.581 76.1315 223.105 76.6262 222.755C77.1209 222.405 77.7135 222.23 78.4042 222.23C79.1135 222.23 79.7109 222.403 80.1962 222.748C80.6815 223.093 81.0479 223.567 81.2952 224.169C81.5472 224.766 81.6732 225.448 81.6732 226.213C81.6732 226.964 81.5495 227.643 81.3022 228.25C81.0549 228.852 80.6909 229.33 80.2102 229.685C79.7295 230.035 79.1415 230.21 78.4462 230.21ZM78.5512 229.251C79.0879 229.251 79.5312 229.12 79.8812 228.859C80.2312 228.598 80.4925 228.238 80.6652 227.781C80.8379 227.319 80.9242 226.796 80.9242 226.213C80.9242 225.62 80.8379 225.098 80.6652 224.645C80.4925 224.188 80.2312 223.831 79.8812 223.574C79.5359 223.317 79.0995 223.189 78.5722 223.189C78.0309 223.189 77.5829 223.322 77.2282 223.588C76.8735 223.854 76.6099 224.216 76.4372 224.673C76.2692 225.13 76.1852 225.644 76.1852 226.213C76.1852 226.787 76.2715 227.305 76.4442 227.767C76.6215 228.224 76.8852 228.586 77.2352 228.852C77.5852 229.118 78.0239 229.251 78.5512 229.251ZM80.9242 230V224.309H80.8122V219.92H81.8482V230H80.9242ZM84.89 233.36L86.353 229.391L86.374 230.567L83.063 222.44H84.155L86.871 229.237H86.423L88.929 222.44H89.979L85.919 233.36H84.89ZM93.8576 226.031V225.149H98.0576V226.031H93.8576ZM105.752 230.21C105.122 230.21 104.565 230.084 104.079 229.832C103.599 229.58 103.221 229.228 102.945 228.775C102.675 228.318 102.539 227.783 102.539 227.172C102.539 226.547 102.691 225.991 102.994 225.506C103.298 225.016 103.76 224.645 104.38 224.393L104.366 224.799C103.848 224.608 103.454 224.295 103.183 223.861C102.913 223.427 102.777 222.946 102.777 222.419C102.777 221.859 102.906 221.378 103.162 220.977C103.419 220.571 103.769 220.258 104.212 220.039C104.66 219.82 105.174 219.71 105.752 219.71C106.331 219.71 106.844 219.82 107.292 220.039C107.74 220.258 108.093 220.571 108.349 220.977C108.606 221.378 108.734 221.859 108.734 222.419C108.734 222.946 108.604 223.425 108.342 223.854C108.086 224.283 107.691 224.598 107.159 224.799L107.124 224.393C107.745 224.64 108.209 225.009 108.517 225.499C108.83 225.989 108.986 226.547 108.986 227.172C108.986 227.783 108.849 228.318 108.573 228.775C108.298 229.228 107.918 229.58 107.432 229.832C106.947 230.084 106.387 230.21 105.752 230.21ZM105.752 229.223C106.387 229.223 106.903 229.048 107.299 228.698C107.696 228.343 107.894 227.835 107.894 227.172C107.894 226.5 107.698 225.991 107.306 225.646C106.914 225.296 106.396 225.121 105.752 225.121C105.108 225.121 104.593 225.296 104.205 225.646C103.818 225.991 103.624 226.5 103.624 227.172C103.624 227.835 103.82 228.343 104.212 228.698C104.604 229.048 105.118 229.223 105.752 229.223ZM105.752 224.127C106.312 224.127 106.767 223.985 107.117 223.7C107.467 223.411 107.642 222.984 107.642 222.419C107.642 221.854 107.467 221.432 107.117 221.152C106.767 220.867 106.312 220.725 105.752 220.725C105.192 220.725 104.737 220.867 104.387 221.152C104.042 221.432 103.869 221.854 103.869 222.419C103.869 222.984 104.042 223.411 104.387 223.7C104.737 223.985 105.192 224.127 105.752 224.127ZM113.775 230.21C113.253 230.21 112.77 230.103 112.326 229.888C111.883 229.673 111.505 229.377 111.192 228.999C110.88 228.621 110.656 228.187 110.52 227.697L111.507 227.431C111.596 227.795 111.757 228.11 111.99 228.376C112.224 228.637 112.497 228.84 112.809 228.985C113.127 229.13 113.458 229.202 113.803 229.202C114.251 229.202 114.653 229.095 115.007 228.88C115.367 228.661 115.651 228.371 115.861 228.012C116.071 227.653 116.176 227.258 116.176 226.829C116.176 226.386 116.067 225.987 115.847 225.632C115.628 225.273 115.339 224.988 114.979 224.778C114.62 224.568 114.228 224.463 113.803 224.463C113.327 224.463 112.917 224.568 112.571 224.778C112.226 224.983 111.951 225.242 111.745 225.555L110.807 225.163L111.115 219.92H116.498V220.907H111.57L112.081 220.424L111.808 224.897L111.549 224.554C111.839 224.223 112.189 223.964 112.599 223.777C113.01 223.59 113.442 223.497 113.894 223.497C114.515 223.497 115.075 223.646 115.574 223.945C116.074 224.239 116.47 224.638 116.764 225.142C117.058 225.646 117.205 226.208 117.205 226.829C117.205 227.445 117.049 228.01 116.736 228.523C116.424 229.032 116.008 229.44 115.49 229.748C114.972 230.056 114.401 230.21 113.775 230.21ZM119.076 230V228.803H120.273V230H119.076ZM122.974 230L126.684 220.921H122.015V219.92H127.783V220.921L124.08 230H122.974ZM131.219 230V221.068L129.322 222.209V221.054L131.219 219.92H132.262V230H131.219ZM135.898 230L135.198 229.3L144.599 219.92L145.299 220.613L135.898 230ZM143.199 230.21C142.737 230.21 142.314 230.098 141.932 229.874C141.554 229.645 141.25 229.342 141.022 228.964C140.793 228.581 140.679 228.157 140.679 227.69C140.679 227.233 140.795 226.813 141.029 226.43C141.262 226.047 141.57 225.742 141.953 225.513C142.335 225.284 142.751 225.17 143.199 225.17C143.661 225.17 144.083 225.284 144.466 225.513C144.848 225.737 145.152 226.04 145.376 226.423C145.604 226.801 145.719 227.223 145.719 227.69C145.719 228.157 145.604 228.581 145.376 228.964C145.152 229.342 144.848 229.645 144.466 229.874C144.083 230.098 143.661 230.21 143.199 230.21ZM143.199 229.279C143.483 229.279 143.747 229.207 143.99 229.062C144.232 228.917 144.426 228.726 144.571 228.488C144.715 228.245 144.788 227.979 144.788 227.69C144.788 227.401 144.715 227.137 144.571 226.899C144.426 226.656 144.232 226.463 143.99 226.318C143.747 226.173 143.483 226.101 143.199 226.101C142.909 226.101 142.643 226.173 142.401 226.318C142.163 226.463 141.969 226.656 141.82 226.899C141.675 227.137 141.603 227.401 141.603 227.69C141.603 227.979 141.675 228.245 141.82 228.488C141.969 228.726 142.163 228.917 142.401 229.062C142.643 229.207 142.909 229.279 143.199 229.279ZM137.298 224.75C136.836 224.75 136.413 224.638 136.031 224.414C135.648 224.185 135.342 223.882 135.114 223.504C134.89 223.121 134.778 222.697 134.778 222.23C134.778 221.773 134.894 221.353 135.128 220.97C135.361 220.587 135.669 220.282 136.052 220.053C136.434 219.824 136.85 219.71 137.298 219.71C137.76 219.71 138.18 219.824 138.558 220.053C138.94 220.277 139.246 220.58 139.475 220.963C139.703 221.341 139.818 221.763 139.818 222.23C139.818 222.697 139.703 223.121 139.475 223.504C139.246 223.882 138.94 224.185 138.558 224.414C138.18 224.638 137.76 224.75 137.298 224.75ZM137.298 223.819C137.587 223.819 137.851 223.747 138.089 223.602C138.331 223.457 138.525 223.266 138.67 223.028C138.814 222.785 138.887 222.519 138.887 222.23C138.887 221.941 138.814 221.677 138.67 221.439C138.525 221.196 138.331 221.003 138.089 220.858C137.851 220.713 137.587 220.641 137.298 220.641C137.008 220.641 136.742 220.713 136.5 220.858C136.262 221.003 136.07 221.196 135.926 221.439C135.781 221.677 135.709 221.941 135.709 222.23C135.709 222.519 135.781 222.785 135.926 223.028C136.07 223.266 136.262 223.457 136.5 223.602C136.742 223.747 137.008 223.819 137.298 223.819Z" fill="white"/>
<path d="M187 225C187 225.75 186.79 226.46 186.42 227.06C186.21 227.42 185.94 227.74 185.63 228C184.93 228.63 184.01 229 183 229C181.54 229 180.27 228.22 179.58 227.06C179.21 226.46 179 225.75 179 225C179 223.74 179.58 222.61 180.5 221.88C181.19 221.33 182.06 221 183 221C185.21 221 187 222.79 187 225Z" fill="#252526"/>
<path d="M203.98 230V219.92H205.016L210.567 228.18V219.92H211.603V230H210.567L205.016 221.733V230H203.98ZM215.727 230.21C215.158 230.21 214.679 230.107 214.292 229.902C213.909 229.697 213.622 229.424 213.431 229.083C213.24 228.742 213.144 228.371 213.144 227.97C213.144 227.559 213.226 227.209 213.389 226.92C213.557 226.626 213.783 226.386 214.068 226.199C214.357 226.012 214.691 225.87 215.069 225.772C215.452 225.679 215.874 225.597 216.336 225.527C216.803 225.452 217.258 225.389 217.701 225.338C218.149 225.282 218.541 225.228 218.877 225.177L218.513 225.401C218.527 224.654 218.382 224.101 218.079 223.742C217.776 223.383 217.248 223.203 216.497 223.203C215.979 223.203 215.54 223.32 215.181 223.553C214.826 223.786 214.577 224.155 214.432 224.659L213.431 224.365C213.604 223.688 213.951 223.163 214.474 222.79C214.997 222.417 215.676 222.23 216.511 222.23C217.202 222.23 217.787 222.361 218.268 222.622C218.753 222.879 219.096 223.252 219.297 223.742C219.39 223.961 219.451 224.206 219.479 224.477C219.507 224.748 219.521 225.023 219.521 225.303V230H218.604V228.103L218.87 228.215C218.613 228.864 218.214 229.358 217.673 229.699C217.132 230.04 216.483 230.21 215.727 230.21ZM215.846 229.321C216.327 229.321 216.747 229.235 217.106 229.062C217.465 228.889 217.755 228.654 217.974 228.355C218.193 228.052 218.336 227.711 218.401 227.333C218.457 227.09 218.487 226.824 218.492 226.535C218.497 226.241 218.499 226.022 218.499 225.877L218.891 226.08C218.541 226.127 218.161 226.173 217.75 226.22C217.344 226.267 216.943 226.32 216.546 226.381C216.154 226.442 215.799 226.514 215.482 226.598C215.267 226.659 215.06 226.745 214.859 226.857C214.658 226.964 214.493 227.109 214.362 227.291C214.236 227.473 214.173 227.699 214.173 227.97C214.173 228.189 214.227 228.402 214.334 228.607C214.446 228.812 214.623 228.983 214.866 229.118C215.113 229.253 215.44 229.321 215.846 229.321ZM230.359 230L230.366 225.037C230.366 224.454 230.203 223.996 229.876 223.665C229.554 223.329 229.144 223.161 228.644 223.161C228.36 223.161 228.082 223.226 227.811 223.357C227.541 223.488 227.317 223.698 227.139 223.987C226.967 224.276 226.88 224.654 226.88 225.121L226.271 224.946C226.257 224.405 226.362 223.931 226.586 223.525C226.815 223.119 227.128 222.804 227.524 222.58C227.926 222.351 228.378 222.237 228.882 222.237C229.643 222.237 230.252 222.473 230.709 222.944C231.167 223.411 231.395 224.043 231.395 224.841L231.388 230H230.359ZM221.336 230V222.44H222.26V224.302H222.372V230H221.336ZM225.858 230L225.865 225.107C225.865 224.505 225.704 224.031 225.382 223.686C225.065 223.336 224.645 223.161 224.122 223.161C223.6 223.161 223.177 223.341 222.855 223.7C222.533 224.055 222.372 224.528 222.372 225.121L221.756 224.785C221.756 224.3 221.871 223.866 222.099 223.483C222.328 223.096 222.641 222.792 223.037 222.573C223.434 222.349 223.884 222.237 224.388 222.237C224.869 222.237 225.296 222.34 225.669 222.545C226.047 222.75 226.344 223.049 226.558 223.441C226.773 223.833 226.88 224.309 226.88 224.869L226.873 230H225.858ZM236.355 230.21C235.617 230.21 234.978 230.047 234.437 229.72C233.9 229.393 233.482 228.934 233.184 228.341C232.885 227.748 232.736 227.053 232.736 226.255C232.736 225.429 232.883 224.715 233.177 224.113C233.471 223.511 233.884 223.047 234.416 222.72C234.952 222.393 235.585 222.23 236.313 222.23C237.059 222.23 237.696 222.403 238.224 222.748C238.751 223.089 239.15 223.579 239.421 224.218C239.691 224.857 239.815 225.62 239.792 226.507H238.742V226.143C238.723 225.163 238.511 224.423 238.105 223.924C237.703 223.425 237.115 223.175 236.341 223.175C235.529 223.175 234.906 223.439 234.472 223.966C234.042 224.493 233.828 225.245 233.828 226.22C233.828 227.172 234.042 227.912 234.472 228.439C234.906 228.962 235.519 229.223 236.313 229.223C236.854 229.223 237.325 229.099 237.727 228.852C238.133 228.6 238.452 228.238 238.686 227.767L239.645 228.138C239.346 228.796 238.905 229.307 238.322 229.671C237.743 230.03 237.087 230.21 236.355 230.21ZM233.464 226.507V225.646H239.239V226.507H233.464ZM244.481 230.21C243.721 230.21 243.077 230.04 242.549 229.699C242.022 229.358 241.621 228.889 241.345 228.292C241.075 227.69 240.935 226.999 240.925 226.22C240.935 225.427 241.079 224.731 241.359 224.134C241.639 223.532 242.043 223.065 242.57 222.734C243.098 222.398 243.737 222.23 244.488 222.23C245.254 222.23 245.919 222.417 246.483 222.79C247.053 223.163 247.442 223.674 247.652 224.323L246.644 224.645C246.467 224.192 246.185 223.842 245.797 223.595C245.415 223.343 244.976 223.217 244.481 223.217C243.926 223.217 243.466 223.345 243.102 223.602C242.738 223.854 242.468 224.206 242.29 224.659C242.113 225.112 242.022 225.632 242.017 226.22C242.027 227.125 242.237 227.853 242.647 228.404C243.058 228.95 243.669 229.223 244.481 229.223C244.995 229.223 245.431 229.106 245.79 228.873C246.154 228.635 246.43 228.29 246.616 227.837L247.652 228.145C247.372 228.817 246.962 229.33 246.42 229.685C245.879 230.035 245.233 230.21 244.481 230.21ZM254.557 230V226.143C254.557 225.723 254.518 225.338 254.438 224.988C254.359 224.633 254.231 224.325 254.053 224.064C253.881 223.798 253.654 223.593 253.374 223.448C253.099 223.303 252.763 223.231 252.366 223.231C252.002 223.231 251.68 223.294 251.4 223.42C251.125 223.546 250.892 223.728 250.7 223.966C250.514 224.199 250.371 224.484 250.273 224.82C250.175 225.156 250.126 225.539 250.126 225.968L249.398 225.807C249.398 225.032 249.534 224.381 249.804 223.854C250.075 223.327 250.448 222.928 250.924 222.657C251.4 222.386 251.946 222.251 252.562 222.251C253.015 222.251 253.409 222.321 253.745 222.461C254.086 222.601 254.373 222.79 254.606 223.028C254.844 223.266 255.036 223.539 255.18 223.847C255.325 224.15 255.43 224.475 255.495 224.82C255.561 225.161 255.593 225.501 255.593 225.842V230H254.557ZM249.09 230V219.92H250.021V225.611H250.126V230H249.09ZM260.609 230.21C259.871 230.21 259.232 230.047 258.691 229.72C258.154 229.393 257.736 228.934 257.438 228.341C257.139 227.748 256.99 227.053 256.99 226.255C256.99 225.429 257.137 224.715 257.431 224.113C257.725 223.511 258.138 223.047 258.67 222.72C259.206 222.393 259.839 222.23 260.567 222.23C261.313 222.23 261.95 222.403 262.478 222.748C263.005 223.089 263.404 223.579 263.675 224.218C263.945 224.857 264.069 225.62 264.046 226.507H262.996V226.143C262.977 225.163 262.765 224.423 262.359 223.924C261.957 223.425 261.369 223.175 260.595 223.175C259.783 223.175 259.16 223.439 258.726 223.966C258.296 224.493 258.082 225.245 258.082 226.22C258.082 227.172 258.296 227.912 258.726 228.439C259.16 228.962 259.773 229.223 260.567 229.223C261.108 229.223 261.579 229.099 261.981 228.852C262.387 228.6 262.706 228.238 262.94 227.767L263.899 228.138C263.6 228.796 263.159 229.307 262.576 229.671C261.997 230.03 261.341 230.21 260.609 230.21ZM257.718 226.507V225.646H263.493V226.507H257.718ZM267.625 230.21C267.056 230.21 266.578 230.107 266.19 229.902C265.808 229.697 265.521 229.424 265.329 229.083C265.138 228.742 265.042 228.371 265.042 227.97C265.042 227.559 265.124 227.209 265.287 226.92C265.455 226.626 265.682 226.386 265.966 226.199C266.256 226.012 266.589 225.87 266.967 225.772C267.35 225.679 267.772 225.597 268.234 225.527C268.701 225.452 269.156 225.389 269.599 225.338C270.047 225.282 270.439 225.228 270.775 225.177L270.411 225.401C270.425 224.654 270.281 224.101 269.977 223.742C269.674 223.383 269.147 223.203 268.395 223.203C267.877 223.203 267.439 223.32 267.079 223.553C266.725 223.786 266.475 224.155 266.33 224.659L265.329 224.365C265.502 223.688 265.85 223.163 266.372 222.79C266.895 222.417 267.574 222.23 268.409 222.23C269.1 222.23 269.686 222.361 270.166 222.622C270.652 222.879 270.995 223.252 271.195 223.742C271.289 223.961 271.349 224.206 271.377 224.477C271.405 224.748 271.419 225.023 271.419 225.303V230H270.502V228.103L270.768 228.215C270.512 228.864 270.113 229.358 269.571 229.699C269.03 230.04 268.381 230.21 267.625 230.21ZM267.744 229.321C268.225 229.321 268.645 229.235 269.004 229.062C269.364 228.889 269.653 228.654 269.872 228.355C270.092 228.052 270.234 227.711 270.299 227.333C270.355 227.09 270.386 226.824 270.39 226.535C270.395 226.241 270.397 226.022 270.397 225.877L270.789 226.08C270.439 226.127 270.059 226.173 269.648 226.22C269.242 226.267 268.841 226.32 268.444 226.381C268.052 226.442 267.698 226.514 267.38 226.598C267.166 226.659 266.958 226.745 266.757 226.857C266.557 226.964 266.391 227.109 266.26 227.291C266.134 227.473 266.071 227.699 266.071 227.97C266.071 228.189 266.125 228.402 266.232 228.607C266.344 228.812 266.522 228.983 266.764 229.118C267.012 229.253 267.338 229.321 267.744 229.321ZM276.637 230.21C275.941 230.21 275.353 230.035 274.873 229.685C274.392 229.33 274.028 228.852 273.781 228.25C273.533 227.643 273.41 226.964 273.41 226.213C273.41 225.448 273.533 224.766 273.781 224.169C274.033 223.567 274.401 223.093 274.887 222.748C275.372 222.403 275.969 222.23 276.679 222.23C277.369 222.23 277.962 222.405 278.457 222.755C278.951 223.105 279.329 223.581 279.591 224.183C279.857 224.785 279.99 225.462 279.99 226.213C279.99 226.969 279.857 227.648 279.591 228.25C279.325 228.852 278.942 229.33 278.443 229.685C277.943 230.035 277.341 230.21 276.637 230.21ZM273.235 233.36V222.44H274.159V228.131H274.271V233.36H273.235ZM276.532 229.251C277.059 229.251 277.498 229.118 277.848 228.852C278.198 228.586 278.459 228.224 278.632 227.767C278.809 227.305 278.898 226.787 278.898 226.213C278.898 225.644 278.811 225.13 278.639 224.673C278.466 224.216 278.202 223.854 277.848 223.588C277.498 223.322 277.052 223.189 276.511 223.189C275.983 223.189 275.545 223.317 275.195 223.574C274.849 223.831 274.59 224.188 274.418 224.645C274.245 225.098 274.159 225.62 274.159 226.213C274.159 226.796 274.245 227.319 274.418 227.781C274.59 228.238 274.852 228.598 275.202 228.859C275.552 229.12 275.995 229.251 276.532 229.251ZM284.19 226.031V225.149H288.39V226.031H284.19ZM294.768 230V221.068L292.871 222.209V221.054L294.768 219.92H295.811V230H294.768ZM302.904 230V228.047H298.186V227.067L301.56 219.92H302.715L299.341 227.067H302.904V224.127H303.94V227.067H305.039V228.047H303.94V230H302.904ZM306.647 230V228.803H307.844V230H306.647ZM309.725 229.993L309.732 229.055L314.289 224.939C314.681 224.584 314.94 224.248 315.066 223.931C315.197 223.609 315.262 223.273 315.262 222.923C315.262 222.508 315.164 222.132 314.968 221.796C314.772 221.46 314.509 221.194 314.177 220.998C313.846 220.797 313.475 220.697 313.064 220.697C312.635 220.697 312.252 220.8 311.916 221.005C311.58 221.21 311.314 221.481 311.118 221.817C310.927 222.153 310.834 222.519 310.838 222.916H309.788C309.788 222.305 309.933 221.756 310.222 221.271C310.512 220.786 310.904 220.405 311.398 220.13C311.893 219.85 312.453 219.71 313.078 219.71C313.69 219.71 314.238 219.855 314.723 220.144C315.213 220.429 315.598 220.816 315.878 221.306C316.163 221.791 316.305 222.333 316.305 222.93C316.305 223.35 316.254 223.721 316.151 224.043C316.053 224.36 315.897 224.657 315.682 224.932C315.472 225.203 315.204 225.483 314.877 225.772L310.831 229.426L310.67 229.006H316.305V229.993H309.725ZM321.308 219.717C321.942 219.717 322.516 219.871 323.03 220.179C323.548 220.482 323.958 220.898 324.262 221.425C324.565 221.948 324.717 222.536 324.717 223.189V226.689C324.717 227.361 324.565 227.963 324.262 228.495C323.958 229.027 323.543 229.447 323.016 229.755C322.493 230.058 321.898 230.21 321.231 230.21C320.657 230.21 320.125 230.084 319.635 229.832C319.149 229.575 318.748 229.223 318.431 228.775L319.215 228.124C319.429 228.455 319.714 228.721 320.069 228.922C320.428 229.123 320.815 229.223 321.231 229.223C321.707 229.223 322.127 229.111 322.491 228.887C322.859 228.658 323.149 228.36 323.359 227.991C323.573 227.618 323.681 227.214 323.681 226.78V224.582L323.933 224.876C323.643 225.338 323.258 225.711 322.778 225.996C322.302 226.281 321.779 226.423 321.21 226.423C320.589 226.423 320.027 226.274 319.523 225.975C319.023 225.676 318.627 225.275 318.333 224.771C318.043 224.267 317.899 223.705 317.899 223.084C317.899 222.463 318.053 221.899 318.361 221.39C318.669 220.877 319.082 220.471 319.6 220.172C320.118 219.869 320.687 219.717 321.308 219.717ZM321.308 220.711C320.869 220.711 320.47 220.818 320.111 221.033C319.751 221.243 319.464 221.528 319.25 221.887C319.04 222.246 318.935 222.645 318.935 223.084C318.935 223.523 319.04 223.922 319.25 224.281C319.46 224.64 319.744 224.927 320.104 225.142C320.463 225.352 320.862 225.457 321.301 225.457C321.739 225.457 322.138 225.352 322.498 225.142C322.862 224.927 323.149 224.64 323.359 224.281C323.573 223.922 323.681 223.523 323.681 223.084C323.681 222.65 323.573 222.253 323.359 221.894C323.149 221.535 322.864 221.248 322.505 221.033C322.145 220.818 321.746 220.711 321.308 220.711ZM327.651 230L326.951 229.3L336.352 219.92L337.052 220.613L327.651 230ZM334.952 230.21C334.49 230.21 334.068 230.098 333.685 229.874C333.307 229.645 333.004 229.342 332.775 228.964C332.547 228.581 332.432 228.157 332.432 227.69C332.432 227.233 332.549 226.813 332.782 226.43C333.016 226.047 333.324 225.742 333.706 225.513C334.089 225.284 334.504 225.17 334.952 225.17C335.414 225.17 335.837 225.284 336.219 225.513C336.602 225.737 336.905 226.04 337.129 226.423C337.358 226.801 337.472 227.223 337.472 227.69C337.472 228.157 337.358 228.581 337.129 228.964C336.905 229.342 336.602 229.645 336.219 229.874C335.837 230.098 335.414 230.21 334.952 230.21ZM334.952 229.279C335.237 229.279 335.501 229.207 335.743 229.062C335.986 228.917 336.18 228.726 336.324 228.488C336.469 228.245 336.541 227.979 336.541 227.69C336.541 227.401 336.469 227.137 336.324 226.899C336.18 226.656 335.986 226.463 335.743 226.318C335.501 226.173 335.237 226.101 334.952 226.101C334.663 226.101 334.397 226.173 334.154 226.318C333.916 226.463 333.723 226.656 333.573 226.899C333.429 227.137 333.356 227.401 333.356 227.69C333.356 227.979 333.429 228.245 333.573 228.488C333.723 228.726 333.916 228.917 334.154 229.062C334.397 229.207 334.663 229.279 334.952 229.279ZM329.051 224.75C328.589 224.75 328.167 224.638 327.784 224.414C327.402 224.185 327.096 223.882 326.867 223.504C326.643 223.121 326.531 222.697 326.531 222.23C326.531 221.773 326.648 221.353 326.881 220.97C327.115 220.587 327.423 220.282 327.805 220.053C328.188 219.824 328.603 219.71 329.051 219.71C329.513 219.71 329.933 219.824 330.311 220.053C330.694 220.277 331 220.58 331.228 220.963C331.457 221.341 331.571 221.763 331.571 222.23C331.571 222.697 331.457 223.121 331.228 223.504C331 223.882 330.694 224.185 330.311 224.414C329.933 224.638 329.513 224.75 329.051 224.75ZM329.051 223.819C329.341 223.819 329.604 223.747 329.842 223.602C330.085 223.457 330.279 223.266 330.423 223.028C330.568 222.785 330.64 222.519 330.64 222.23C330.64 221.941 330.568 221.677 330.423 221.439C330.279 221.196 330.085 221.003 329.842 220.858C329.604 220.713 329.341 220.641 329.051 220.641C328.762 220.641 328.496 220.713 328.253 220.858C328.015 221.003 327.824 221.196 327.679 221.439C327.535 221.677 327.462 221.941 327.462 222.23C327.462 222.519 327.535 222.785 327.679 223.028C327.824 223.266 328.015 223.457 328.253 223.602C328.496 223.747 328.762 223.819 329.051 223.819Z" fill="white"/>
<circle cx="169" cy="100" r="97" stroke="#252526" stroke-width="5"/>
<path d="M169 3C222.572 3 266 46.4284 266 100C266 153.572 222.572 197 169 197C115.428 197 72 153.572 72 100C72 73.6805 82.4824 49.8093 99.5 32.3335" stroke="url(#paint1_linear_444_221)" stroke-width="5" stroke-linecap="round"/>
<defs>
<linearGradient id="paint0_linear_444_221" x1="8" y1="225" x2="16" y2="225" gradientUnits="userSpaceOnUse">
<stop stop-color="#0052CC"/>
<stop offset="1" stop-color="#0099FF"/>
</linearGradient>
<linearGradient id="paint1_linear_444_221" x1="72" y1="100.002" x2="266" y2="100.002" gradientUnits="userSpaceOnUse">
<stop stop-color="#0052CC"/>
<stop offset="1" stop-color="#0099FF"/>
</linearGradient>
</defs>
</svg>
