<svg width="1025" height="439" viewBox="0 0 1025 439" fill="none" xmlns="http://www.w3.org/2000/svg">
<path d="M32 399.92H1024M32 322.136H1024M32 244.352H1024M32 166.568H1024M32 88.7839H1024M32 11H1024M33.0783 12.0803L33.0782 401M156 12.0803L156 401M401.844 12.0803L401.843 401M278.922 12.0803L278.922 401M524.765 12.0803L524.765 401M647.687 12.0803V401M893.53 12.0803V401M770.609 12.0803V401M1022.92 12.0803V401" stroke="#252526" stroke-dasharray="4 4"/>
<path d="M4.6725 16.195C4.18717 16.195 3.73867 16.0953 3.327 15.896C2.91533 15.6967 2.56433 15.4215 2.274 15.0705C1.98367 14.7195 1.77567 14.3165 1.65 13.8615L2.5665 13.6145C2.64883 13.9525 2.79833 14.245 3.015 14.492C3.23167 14.7347 3.48517 14.9232 3.7755 15.0575C4.07017 15.1918 4.37783 15.259 4.6985 15.259C5.1145 15.259 5.48717 15.1593 5.8165 14.96C6.15017 14.7563 6.4145 14.4877 6.6095 14.154C6.8045 13.8203 6.902 13.4542 6.902 13.0555C6.902 12.6438 6.80017 12.2733 6.5965 11.944C6.39283 11.6103 6.12417 11.346 5.7905 11.151C5.45683 10.956 5.09283 10.8585 4.6985 10.8585C4.2565 10.8585 3.87517 10.956 3.5545 11.151C3.23383 11.3417 2.97817 11.5822 2.7875 11.8725L1.9165 11.5085L2.2025 6.64H7.201V7.5565H2.625L3.0995 7.108L2.846 11.2615L2.6055 10.943C2.87417 10.6353 3.19917 10.3948 3.5805 10.2215C3.96183 10.0482 4.36267 9.9615 4.783 9.9615C5.35933 9.9615 5.87933 10.1002 6.343 10.3775C6.80667 10.6505 7.175 11.021 7.448 11.489C7.721 11.957 7.8575 12.4792 7.8575 13.0555C7.8575 13.6275 7.71233 14.1518 7.422 14.6285C7.13167 15.1008 6.746 15.48 6.265 15.766C5.784 16.052 5.25317 16.195 4.6725 16.195ZM12.4679 16.195C11.8916 16.195 11.3716 16.0607 10.9079 15.792C10.4486 15.5233 10.0846 15.1593 9.81593 14.7C9.54726 14.2363 9.41293 13.7163 9.41293 13.14V9.5C9.41293 8.92367 9.54726 8.40583 9.81593 7.9465C10.0846 7.48283 10.4486 7.11667 10.9079 6.848C11.3716 6.57933 11.8916 6.445 12.4679 6.445C13.0443 6.445 13.5621 6.57933 14.0214 6.848C14.4851 7.11667 14.8513 7.48283 15.1199 7.9465C15.3886 8.40583 15.5229 8.92367 15.5229 9.5V13.14C15.5229 13.7163 15.3886 14.2363 15.1199 14.7C14.8513 15.1593 14.4851 15.5233 14.0214 15.792C13.5621 16.0607 13.0443 16.195 12.4679 16.195ZM12.4679 15.272C12.8536 15.272 13.2046 15.1788 13.5209 14.9925C13.8373 14.8018 14.0886 14.5483 14.2749 14.232C14.4613 13.9157 14.5544 13.5668 14.5544 13.1855V9.4545C14.5544 9.06883 14.4613 8.71783 14.2749 8.4015C14.0886 8.08517 13.8373 7.83383 13.5209 7.6475C13.2046 7.45683 12.8536 7.3615 12.4679 7.3615C12.0823 7.3615 11.7313 7.45683 11.4149 7.6475C11.0986 7.83383 10.8473 8.08517 10.6609 8.4015C10.4746 8.71783 10.3814 9.06883 10.3814 9.4545V13.1855C10.3814 13.5668 10.4746 13.9157 10.6609 14.232C10.8473 14.5483 11.0986 14.8018 11.4149 14.9925C11.7313 15.1788 12.0823 15.272 12.4679 15.272Z" fill="white"/>
<path d="M5.031 93V91.1865H0.65V90.2765L3.783 83.64H4.8555L1.7225 90.2765H5.031V87.5465H5.993V90.2765H7.0135V91.1865H5.993V93H5.031ZM11.633 93.195C11.0566 93.195 10.5366 93.0607 10.073 92.792C9.61364 92.5233 9.24964 92.1593 8.98097 91.7C8.7123 91.2363 8.57797 90.7163 8.57797 90.14V86.5C8.57797 85.9237 8.7123 85.4058 8.98097 84.9465C9.24964 84.4828 9.61364 84.1167 10.073 83.848C10.5366 83.5793 11.0566 83.445 11.633 83.445C12.2093 83.445 12.7271 83.5793 13.1865 83.848C13.6501 84.1167 14.0163 84.4828 14.285 84.9465C14.5536 85.4058 14.688 85.9237 14.688 86.5V90.14C14.688 90.7163 14.5536 91.2363 14.285 91.7C14.0163 92.1593 13.6501 92.5233 13.1865 92.792C12.7271 93.0607 12.2093 93.195 11.633 93.195ZM11.633 92.272C12.0186 92.272 12.3696 92.1788 12.686 91.9925C13.0023 91.8018 13.2536 91.5483 13.44 91.232C13.6263 90.9157 13.7195 90.5668 13.7195 90.1855V86.4545C13.7195 86.0688 13.6263 85.7178 13.44 85.4015C13.2536 85.0852 13.0023 84.8338 12.686 84.6475C12.3696 84.4568 12.0186 84.3615 11.633 84.3615C11.2473 84.3615 10.8963 84.4568 10.58 84.6475C10.2636 84.8338 10.0123 85.0852 9.82597 85.4015C9.63964 85.7178 9.54647 86.0688 9.54647 86.4545V90.1855C9.54647 90.5668 9.63964 90.9157 9.82597 91.232C10.0123 91.5483 10.2636 91.8018 10.58 91.9925C10.8963 92.1788 11.2473 92.272 11.633 92.272Z" fill="white"/>
<path d="M3.4255 170.189C2.96183 170.189 2.535 170.106 2.145 169.941C1.755 169.777 1.41917 169.543 1.1375 169.239C0.855833 168.932 0.65 168.566 0.52 168.141L1.43 167.868C1.586 168.332 1.84167 168.683 2.197 168.921C2.55667 169.159 2.96183 169.274 3.4125 169.265C3.8285 169.257 4.186 169.164 4.485 168.986C4.78833 168.808 5.02017 168.561 5.1805 168.245C5.34083 167.929 5.421 167.562 5.421 167.146C5.421 166.509 5.23467 165.998 4.862 165.612C4.49367 165.222 4.00617 165.027 3.3995 165.027C3.2305 165.027 3.05283 165.051 2.8665 165.099C2.68017 165.142 2.50683 165.205 2.3465 165.287L1.8655 164.527L5.5055 161.166L5.6615 161.556H0.8905V160.64H6.2985V161.569L3.1265 164.598L3.1135 164.221C3.7635 164.139 4.3355 164.213 4.8295 164.442C5.3235 164.672 5.70917 165.023 5.9865 165.495C6.26817 165.963 6.409 166.514 6.409 167.146C6.409 167.744 6.279 168.273 6.019 168.732C5.76333 169.187 5.41017 169.545 4.9595 169.805C4.50883 170.061 3.9975 170.189 3.4255 170.189ZM11.1505 170.195C10.5742 170.195 10.0542 170.061 9.59055 169.792C9.13121 169.523 8.76721 169.159 8.49855 168.7C8.22988 168.236 8.09555 167.716 8.09555 167.14V163.5C8.09555 162.924 8.22988 162.406 8.49855 161.946C8.76721 161.483 9.13121 161.117 9.59055 160.848C10.0542 160.579 10.5742 160.445 11.1505 160.445C11.7269 160.445 12.2447 160.579 12.704 160.848C13.1677 161.117 13.5339 161.483 13.8025 161.946C14.0712 162.406 14.2055 162.924 14.2055 163.5V167.14C14.2055 167.716 14.0712 168.236 13.8025 168.7C13.5339 169.159 13.1677 169.523 12.704 169.792C12.2447 170.061 11.7269 170.195 11.1505 170.195ZM11.1505 169.272C11.5362 169.272 11.8872 169.179 12.2035 168.992C12.5199 168.802 12.7712 168.548 12.9575 168.232C13.1439 167.916 13.237 167.567 13.237 167.185V163.454C13.237 163.069 13.1439 162.718 12.9575 162.401C12.7712 162.085 12.5199 161.834 12.2035 161.647C11.8872 161.457 11.5362 161.361 11.1505 161.361C10.7649 161.361 10.4139 161.457 10.0975 161.647C9.78121 161.834 9.52988 162.085 9.34355 162.401C9.15721 162.718 9.06405 163.069 9.06405 163.454V167.185C9.06405 167.567 9.15721 167.916 9.34355 168.232C9.52988 168.548 9.78121 168.802 10.0975 168.992C10.4139 169.179 10.7649 169.272 11.1505 169.272Z" fill="white"/>
<path d="M0.65 246.993L0.6565 246.122L4.888 242.3C5.252 241.971 5.4925 241.659 5.6095 241.364C5.73083 241.065 5.7915 240.753 5.7915 240.428C5.7915 240.043 5.7005 239.694 5.5185 239.382C5.3365 239.07 5.09167 238.823 4.784 238.641C4.47633 238.455 4.13183 238.361 3.7505 238.361C3.35183 238.361 2.9965 238.457 2.6845 238.647C2.3725 238.838 2.1255 239.089 1.9435 239.401C1.76583 239.713 1.67917 240.054 1.6835 240.422H0.7085C0.7085 239.854 0.842833 239.345 1.1115 238.894C1.38017 238.444 1.74417 238.091 2.2035 237.835C2.66283 237.575 3.18283 237.445 3.7635 237.445C4.33117 237.445 4.84033 237.579 5.291 237.848C5.746 238.112 6.1035 238.472 6.3635 238.927C6.62783 239.378 6.76 239.88 6.76 240.435C6.76 240.825 6.71233 241.169 6.617 241.468C6.526 241.763 6.38083 242.038 6.1815 242.294C5.9865 242.545 5.73733 242.805 5.434 243.074L1.677 246.467L1.5275 246.077H6.76V246.993H0.65ZM11.3791 247.195C10.8027 247.195 10.2827 247.061 9.81906 246.792C9.35973 246.523 8.99573 246.159 8.72706 245.7C8.4584 245.236 8.32406 244.716 8.32406 244.14V240.5C8.32406 239.924 8.4584 239.406 8.72706 238.946C8.99573 238.483 9.35973 238.117 9.81906 237.848C10.2827 237.579 10.8027 237.445 11.3791 237.445C11.9554 237.445 12.4732 237.579 12.9326 237.848C13.3962 238.117 13.7624 238.483 14.0311 238.946C14.2997 239.406 14.4341 239.924 14.4341 240.5V244.14C14.4341 244.716 14.2997 245.236 14.0311 245.7C13.7624 246.159 13.3962 246.523 12.9326 246.792C12.4732 247.061 11.9554 247.195 11.3791 247.195ZM11.3791 246.272C11.7647 246.272 12.1157 246.179 12.4321 245.992C12.7484 245.802 12.9997 245.548 13.1861 245.232C13.3724 244.916 13.4656 244.567 13.4656 244.185V240.454C13.4656 240.069 13.3724 239.718 13.1861 239.401C12.9997 239.085 12.7484 238.834 12.4321 238.647C12.1157 238.457 11.7647 238.361 11.3791 238.361C10.9934 238.361 10.6424 238.457 10.3261 238.647C10.0097 238.834 9.7584 239.085 9.57206 239.401C9.38573 239.718 9.29256 240.069 9.29256 240.454V244.185C9.29256 244.567 9.38573 244.916 9.57206 245.232C9.7584 245.548 10.0097 245.802 10.3261 245.992C10.6424 246.179 10.9934 246.272 11.3791 246.272Z" fill="white"/>
<path d="M5.5415 324V315.706L3.78 316.765V315.693L5.5415 314.64H6.51V324H5.5415ZM12.0304 324.195C11.4541 324.195 10.9341 324.061 10.4704 323.792C10.0111 323.523 9.6471 323.159 9.37843 322.7C9.10976 322.236 8.97543 321.716 8.97543 321.14V317.5C8.97543 316.924 9.10976 316.406 9.37843 315.946C9.6471 315.483 10.0111 315.117 10.4704 314.848C10.9341 314.579 11.4541 314.445 12.0304 314.445C12.6068 314.445 13.1246 314.579 13.5839 314.848C14.0476 315.117 14.4138 315.483 14.6824 315.946C14.9511 316.406 15.0854 316.924 15.0854 317.5V321.14C15.0854 321.716 14.9511 322.236 14.6824 322.7C14.4138 323.159 14.0476 323.523 13.5839 323.792C13.1246 324.061 12.6068 324.195 12.0304 324.195ZM12.0304 323.272C12.4161 323.272 12.7671 323.179 13.0834 322.992C13.3998 322.802 13.6511 322.548 13.8374 322.232C14.0238 321.916 14.1169 321.567 14.1169 321.185V317.454C14.1169 317.069 14.0238 316.718 13.8374 316.401C13.6511 316.085 13.3998 315.834 13.0834 315.647C12.7671 315.457 12.4161 315.361 12.0304 315.361C11.6448 315.361 11.2938 315.457 10.9774 315.647C10.6611 315.834 10.4098 316.085 10.2234 316.401C10.0371 316.718 9.94393 317.069 9.94393 317.454V321.185C9.94393 321.567 10.0371 321.916 10.2234 322.232C10.4098 322.548 10.6611 322.802 10.9774 322.992C11.2938 323.179 11.6448 323.272 12.0304 323.272Z" fill="white"/>
<path d="M11.965 395.195C11.3887 395.195 10.8687 395.061 10.405 394.792C9.94567 394.523 9.58167 394.159 9.313 393.7C9.04433 393.236 8.91 392.716 8.91 392.14V388.5C8.91 387.924 9.04433 387.406 9.313 386.946C9.58167 386.483 9.94567 386.117 10.405 385.848C10.8687 385.579 11.3887 385.445 11.965 385.445C12.5413 385.445 13.0592 385.579 13.5185 385.848C13.9822 386.117 14.3483 386.483 14.617 386.946C14.8857 387.406 15.02 387.924 15.02 388.5V392.14C15.02 392.716 14.8857 393.236 14.617 393.7C14.3483 394.159 13.9822 394.523 13.5185 394.792C13.0592 395.061 12.5413 395.195 11.965 395.195ZM11.965 394.272C12.3507 394.272 12.7017 394.179 13.018 393.992C13.3343 393.802 13.5857 393.548 13.772 393.232C13.9583 392.916 14.0515 392.567 14.0515 392.185V388.454C14.0515 388.069 13.9583 387.718 13.772 387.401C13.5857 387.085 13.3343 386.834 13.018 386.647C12.7017 386.457 12.3507 386.361 11.965 386.361C11.5793 386.361 11.2283 386.457 10.912 386.647C10.5957 386.834 10.3443 387.085 10.158 387.401C9.97167 387.718 9.8785 388.069 9.8785 388.454V392.185C9.8785 392.567 9.97167 392.916 10.158 393.232C10.3443 393.548 10.5957 393.802 10.912 393.992C11.2283 394.179 11.5793 394.272 11.965 394.272Z" fill="white"/>
<path d="M35.965 433.195C35.3887 433.195 34.8687 433.061 34.405 432.792C33.9457 432.523 33.5817 432.159 33.313 431.7C33.0443 431.236 32.91 430.716 32.91 430.14V426.5C32.91 425.924 33.0443 425.406 33.313 424.946C33.5817 424.483 33.9457 424.117 34.405 423.848C34.8687 423.579 35.3887 423.445 35.965 423.445C36.5413 423.445 37.0592 423.579 37.5185 423.848C37.9822 424.117 38.3483 424.483 38.617 424.946C38.8857 425.406 39.02 425.924 39.02 426.5V430.14C39.02 430.716 38.8857 431.236 38.617 431.7C38.3483 432.159 37.9822 432.523 37.5185 432.792C37.0592 433.061 36.5413 433.195 35.965 433.195ZM35.965 432.272C36.3507 432.272 36.7017 432.179 37.018 431.992C37.3343 431.802 37.5857 431.548 37.772 431.232C37.9583 430.916 38.0515 430.567 38.0515 430.185V426.454C38.0515 426.069 37.9583 425.718 37.772 425.401C37.5857 425.085 37.3343 424.834 37.018 424.647C36.7017 424.457 36.3507 424.361 35.965 424.361C35.5793 424.361 35.2283 424.457 34.912 424.647C34.5957 424.834 34.3443 425.085 34.158 425.401C33.9717 425.718 33.8785 426.069 33.8785 426.454V430.185C33.8785 430.567 33.9717 430.916 34.158 431.232C34.3443 431.548 34.5957 431.802 34.912 431.992C35.2283 432.179 35.5793 432.272 35.965 432.272ZM42.4761 433V424.706L40.7146 425.765V424.693L42.4761 423.64H43.4446V433H42.4761ZM48.276 423.64H49.2575L46.7615 433H45.78L48.276 423.64ZM52.5815 433V424.706L50.82 425.765V424.693L52.5815 423.64H53.55V433H52.5815ZM58.778 433.195C58.2926 433.195 57.8441 433.095 57.4325 432.896C57.0208 432.697 56.6698 432.421 56.3795 432.07C56.0891 431.719 55.8811 431.316 55.7555 430.861L56.672 430.614C56.7543 430.952 56.9038 431.245 57.1205 431.492C57.3371 431.735 57.5906 431.923 57.881 432.057C58.1756 432.192 58.4833 432.259 58.804 432.259C59.22 432.259 59.5926 432.159 59.922 431.96C60.2556 431.756 60.52 431.488 60.715 431.154C60.91 430.82 61.0075 430.454 61.0075 430.055C61.0075 429.644 60.9056 429.273 60.702 428.944C60.4983 428.61 60.2296 428.346 59.896 428.151C59.5623 427.956 59.1983 427.858 58.804 427.858C58.362 427.858 57.9806 427.956 57.66 428.151C57.3393 428.342 57.0836 428.582 56.893 428.872L56.022 428.508L56.308 423.64H61.3065V424.556H56.7305L57.205 424.108L56.9515 428.261L56.711 427.943C56.9796 427.635 57.3046 427.395 57.686 427.221C58.0673 427.048 58.4681 426.961 58.8885 426.961C59.4648 426.961 59.9848 427.1 60.4485 427.377C60.9121 427.65 61.2805 428.021 61.5535 428.489C61.8265 428.957 61.963 429.479 61.963 430.055C61.963 430.627 61.8178 431.152 61.5275 431.628C61.2371 432.101 60.8515 432.48 60.3705 432.766C59.8895 433.052 59.3586 433.195 58.778 433.195Z" fill="white"/>
<path d="M266.142 433.195C265.565 433.195 265.045 433.061 264.582 432.792C264.122 432.523 263.758 432.159 263.49 431.7C263.221 431.236 263.087 430.716 263.087 430.14V426.5C263.087 425.924 263.221 425.406 263.49 424.946C263.758 424.483 264.122 424.117 264.582 423.848C265.045 423.579 265.565 423.445 266.142 423.445C266.718 423.445 267.236 423.579 267.695 423.848C268.159 424.117 268.525 424.483 268.794 424.946C269.062 425.406 269.197 425.924 269.197 426.5V430.14C269.197 430.716 269.062 431.236 268.794 431.7C268.525 432.159 268.159 432.523 267.695 432.792C267.236 433.061 266.718 433.195 266.142 433.195ZM266.142 432.272C266.527 432.272 266.878 432.179 267.195 431.992C267.511 431.802 267.762 431.548 267.949 431.232C268.135 430.916 268.228 430.567 268.228 430.185V426.454C268.228 426.069 268.135 425.718 267.949 425.401C267.762 425.085 267.511 424.834 267.195 424.647C266.878 424.457 266.527 424.361 266.142 424.361C265.756 424.361 265.405 424.457 265.089 424.647C264.772 424.834 264.521 425.085 264.335 425.401C264.148 425.718 264.055 426.069 264.055 426.454V430.185C264.055 430.567 264.148 430.916 264.335 431.232C264.521 431.548 264.772 431.802 265.089 431.992C265.405 432.179 265.756 432.272 266.142 432.272ZM272.653 433V424.706L270.891 425.765V424.693L272.653 423.64H273.621V433H272.653ZM278.453 423.64H279.434L276.938 433H275.957L278.453 423.64ZM282.758 433V424.706L280.997 425.765V424.693L282.758 423.64H283.727V433H282.758ZM289.046 433.195C288.461 433.195 287.943 433.078 287.492 432.844C287.046 432.61 286.695 432.283 286.439 431.862C286.188 431.438 286.062 430.942 286.062 430.374C286.062 429.793 286.203 429.278 286.485 428.827C286.766 428.372 287.195 428.027 287.772 427.793L287.759 428.17C287.278 427.993 286.912 427.702 286.66 427.299C286.409 426.896 286.283 426.45 286.283 425.96C286.283 425.44 286.402 424.994 286.641 424.621C286.879 424.244 287.204 423.954 287.616 423.75C288.032 423.547 288.508 423.445 289.046 423.445C289.583 423.445 290.06 423.547 290.476 423.75C290.892 423.954 291.219 424.244 291.457 424.621C291.696 424.994 291.815 425.44 291.815 425.96C291.815 426.45 291.693 426.894 291.451 427.293C291.212 427.692 290.846 427.984 290.352 428.17L290.32 427.793C290.896 428.023 291.327 428.365 291.613 428.82C291.904 429.275 292.049 429.793 292.049 430.374C292.049 430.942 291.921 431.438 291.665 431.862C291.41 432.283 291.056 432.61 290.606 432.844C290.155 433.078 289.635 433.195 289.046 433.195ZM289.046 432.278C289.635 432.278 290.114 432.116 290.482 431.791C290.851 431.462 291.035 430.989 291.035 430.374C291.035 429.75 290.853 429.278 290.489 428.957C290.125 428.632 289.644 428.469 289.046 428.469C288.448 428.469 287.969 428.632 287.609 428.957C287.25 429.278 287.07 429.75 287.07 430.374C287.07 430.989 287.252 431.462 287.616 431.791C287.98 432.116 288.456 432.278 289.046 432.278ZM289.046 427.546C289.566 427.546 289.988 427.414 290.313 427.15C290.638 426.881 290.801 426.485 290.801 425.96C290.801 425.436 290.638 425.044 290.313 424.784C289.988 424.52 289.566 424.387 289.046 424.387C288.526 424.387 288.103 424.52 287.778 424.784C287.458 425.044 287.297 425.436 287.297 425.96C287.297 426.485 287.458 426.881 287.778 427.15C288.103 427.414 288.526 427.546 289.046 427.546Z" fill="white"/>
<path d="M516.271 433.195C515.694 433.195 515.174 433.061 514.711 432.792C514.251 432.523 513.887 432.159 513.619 431.7C513.35 431.236 513.216 430.716 513.216 430.14V426.5C513.216 425.924 513.35 425.406 513.619 424.946C513.887 424.483 514.251 424.117 514.711 423.848C515.174 423.579 515.694 423.445 516.271 423.445C516.847 423.445 517.365 423.579 517.824 423.848C518.288 424.117 518.654 424.483 518.923 424.946C519.191 425.406 519.326 425.924 519.326 426.5V430.14C519.326 430.716 519.191 431.236 518.923 431.7C518.654 432.159 518.288 432.523 517.824 432.792C517.365 433.061 516.847 433.195 516.271 433.195ZM516.271 432.272C516.656 432.272 517.007 432.179 517.324 431.992C517.64 431.802 517.891 431.548 518.078 431.232C518.264 430.916 518.357 430.567 518.357 430.185V426.454C518.357 426.069 518.264 425.718 518.078 425.401C517.891 425.085 517.64 424.834 517.324 424.647C517.007 424.457 516.656 424.361 516.271 424.361C515.885 424.361 515.534 424.457 515.218 424.647C514.901 424.834 514.65 425.085 514.464 425.401C514.277 425.718 514.184 426.069 514.184 426.454V430.185C514.184 430.567 514.277 430.916 514.464 431.232C514.65 431.548 514.901 431.802 515.218 431.992C515.534 432.179 515.885 432.272 516.271 432.272ZM520.89 432.993L520.897 432.122L525.128 428.3C525.492 427.971 525.733 427.659 525.85 427.364C525.971 427.065 526.032 426.753 526.032 426.428C526.032 426.043 525.941 425.694 525.759 425.382C525.577 425.07 525.332 424.823 525.024 424.641C524.717 424.455 524.372 424.361 523.991 424.361C523.592 424.361 523.237 424.457 522.925 424.647C522.613 424.838 522.366 425.089 522.184 425.401C522.006 425.713 521.919 426.054 521.924 426.422H520.949C520.949 425.854 521.083 425.345 521.352 424.894C521.62 424.444 521.984 424.091 522.444 423.835C522.903 423.575 523.423 423.445 524.004 423.445C524.571 423.445 525.081 423.579 525.531 423.848C525.986 424.112 526.344 424.472 526.604 424.927C526.868 425.378 527 425.88 527 426.435C527 426.825 526.953 427.169 526.857 427.468C526.766 427.763 526.621 428.038 526.422 428.294C526.227 428.545 525.978 428.805 525.674 429.074L521.917 432.467L521.768 432.077H527V432.993H520.89ZM530.93 423.64H531.912L529.416 433H528.434L530.93 423.64ZM536.659 433.195C536.083 433.195 535.563 433.061 535.099 432.792C534.64 432.523 534.276 432.159 534.007 431.7C533.739 431.236 533.604 430.716 533.604 430.14V426.5C533.604 425.924 533.739 425.406 534.007 424.946C534.276 424.483 534.64 424.117 535.099 423.848C535.563 423.579 536.083 423.445 536.659 423.445C537.236 423.445 537.754 423.579 538.213 423.848C538.677 424.117 539.043 424.483 539.311 424.946C539.58 425.406 539.714 425.924 539.714 426.5V430.14C539.714 430.716 539.58 431.236 539.311 431.7C539.043 432.159 538.677 432.523 538.213 432.792C537.754 433.061 537.236 433.195 536.659 433.195ZM536.659 432.272C537.045 432.272 537.396 432.179 537.712 431.992C538.029 431.802 538.28 431.548 538.466 431.232C538.653 430.916 538.746 430.567 538.746 430.185V426.454C538.746 426.069 538.653 425.718 538.466 425.401C538.28 425.085 538.029 424.834 537.712 424.647C537.396 424.457 537.045 424.361 536.659 424.361C536.274 424.361 535.923 424.457 535.606 424.647C535.29 424.834 535.039 425.085 534.852 425.401C534.666 425.718 534.573 426.069 534.573 426.454V430.185C534.573 430.567 534.666 430.916 534.852 431.232C535.039 431.548 535.29 431.802 535.606 431.992C535.923 432.179 536.274 432.272 536.659 432.272ZM543.17 433V424.706L541.409 425.765V424.693L543.17 423.64H544.139V433H543.17Z" fill="white"/>
<path d="M757.273 433.195C756.696 433.195 756.176 433.061 755.713 432.792C755.253 432.523 754.889 432.159 754.621 431.7C754.352 431.236 754.218 430.716 754.218 430.14V426.5C754.218 425.924 754.352 425.406 754.621 424.946C754.889 424.483 755.253 424.117 755.713 423.848C756.176 423.579 756.696 423.445 757.273 423.445C757.849 423.445 758.367 423.579 758.826 423.848C759.29 424.117 759.656 424.483 759.925 424.946C760.193 425.406 760.328 425.924 760.328 426.5V430.14C760.328 430.716 760.193 431.236 759.925 431.7C759.656 432.159 759.29 432.523 758.826 432.792C758.367 433.061 757.849 433.195 757.273 433.195ZM757.273 432.272C757.658 432.272 758.009 432.179 758.326 431.992C758.642 431.802 758.893 431.548 759.08 431.232C759.266 430.916 759.359 430.567 759.359 430.185V426.454C759.359 426.069 759.266 425.718 759.08 425.401C758.893 425.085 758.642 424.834 758.326 424.647C758.009 424.457 757.658 424.361 757.273 424.361C756.887 424.361 756.536 424.457 756.22 424.647C755.903 424.834 755.652 425.085 755.466 425.401C755.279 425.718 755.186 426.069 755.186 426.454V430.185C755.186 430.567 755.279 430.916 755.466 431.232C755.652 431.548 755.903 431.802 756.22 431.992C756.536 432.179 756.887 432.272 757.273 432.272ZM761.892 432.993L761.899 432.122L766.13 428.3C766.494 427.971 766.735 427.659 766.852 427.364C766.973 427.065 767.034 426.753 767.034 426.428C767.034 426.043 766.943 425.694 766.761 425.382C766.579 425.07 766.334 424.823 766.026 424.641C765.719 424.455 765.374 424.361 764.993 424.361C764.594 424.361 764.239 424.457 763.927 424.647C763.615 424.838 763.368 425.089 763.186 425.401C763.008 425.713 762.921 426.054 762.926 426.422H761.951C761.951 425.854 762.085 425.345 762.354 424.894C762.622 424.444 762.986 424.091 763.446 423.835C763.905 423.575 764.425 423.445 765.006 423.445C765.573 423.445 766.083 423.579 766.533 423.848C766.988 424.112 767.346 424.472 767.606 424.927C767.87 425.378 768.002 425.88 768.002 426.435C768.002 426.825 767.955 427.169 767.859 427.468C767.768 427.763 767.623 428.038 767.424 428.294C767.229 428.545 766.98 428.805 766.676 429.074L762.919 432.467L762.77 432.077H768.002V432.993H761.892ZM771.932 423.64H772.914L770.418 433H769.436L771.932 423.64ZM777.661 433.195C777.085 433.195 776.565 433.061 776.101 432.792C775.642 432.523 775.278 432.159 775.009 431.7C774.741 431.236 774.606 430.716 774.606 430.14V426.5C774.606 425.924 774.741 425.406 775.009 424.946C775.278 424.483 775.642 424.117 776.101 423.848C776.565 423.579 777.085 423.445 777.661 423.445C778.238 423.445 778.755 423.579 779.215 423.848C779.678 424.117 780.045 424.483 780.313 424.946C780.582 425.406 780.716 425.924 780.716 426.5V430.14C780.716 430.716 780.582 431.236 780.313 431.7C780.045 432.159 779.678 432.523 779.215 432.792C778.755 433.061 778.238 433.195 777.661 433.195ZM777.661 432.272C778.047 432.272 778.398 432.179 778.714 431.992C779.031 431.802 779.282 431.548 779.468 431.232C779.655 430.916 779.748 430.567 779.748 430.185V426.454C779.748 426.069 779.655 425.718 779.468 425.401C779.282 425.085 779.031 424.834 778.714 424.647C778.398 424.457 778.047 424.361 777.661 424.361C777.276 424.361 776.925 424.457 776.608 424.647C776.292 424.834 776.041 425.085 775.854 425.401C775.668 425.718 775.575 426.069 775.575 426.454V430.185C775.575 430.567 775.668 430.916 775.854 431.232C776.041 431.548 776.292 431.802 776.608 431.992C776.925 432.179 777.276 432.272 777.661 432.272ZM785.706 433.195C785.121 433.195 784.588 433.054 784.107 432.772C783.631 432.486 783.249 432.101 782.963 431.615C782.682 431.126 782.541 430.575 782.541 429.964V426.721C782.541 426.093 782.682 425.534 782.963 425.044C783.245 424.55 783.629 424.162 784.114 423.88C784.604 423.594 785.158 423.451 785.778 423.451C786.311 423.451 786.805 423.568 787.26 423.802C787.719 424.036 788.094 424.364 788.384 424.784L787.65 425.388C787.451 425.076 787.186 424.827 786.857 424.641C786.528 424.455 786.168 424.361 785.778 424.361C785.34 424.361 784.95 424.468 784.608 424.68C784.266 424.892 783.997 425.172 783.802 425.518C783.607 425.861 783.509 426.233 783.509 426.636V428.677L783.269 428.404C783.542 427.975 783.899 427.629 784.341 427.364C784.788 427.1 785.273 426.968 785.797 426.968C786.378 426.968 786.9 427.107 787.364 427.384C787.828 427.657 788.196 428.027 788.469 428.495C788.742 428.963 788.878 429.488 788.878 430.068C788.878 430.645 788.733 431.169 788.443 431.641C788.157 432.114 787.773 432.491 787.292 432.772C786.816 433.054 786.287 433.195 785.706 433.195ZM785.706 432.265C786.114 432.265 786.484 432.168 786.818 431.973C787.156 431.778 787.422 431.514 787.617 431.18C787.817 430.846 787.916 430.476 787.916 430.068C787.916 429.661 787.817 429.291 787.617 428.957C787.422 428.619 787.158 428.352 786.824 428.157C786.491 427.958 786.12 427.858 785.713 427.858C785.306 427.858 784.935 427.958 784.601 428.157C784.268 428.352 784.001 428.619 783.802 428.957C783.607 429.291 783.509 429.661 783.509 430.068C783.509 430.471 783.607 430.84 783.802 431.173C783.997 431.507 784.261 431.774 784.595 431.973C784.929 432.168 785.299 432.265 785.706 432.265Z" fill="white"/>
<path d="M991.965 433.195C991.389 433.195 990.869 433.061 990.405 432.792C989.946 432.523 989.582 432.159 989.313 431.7C989.044 431.236 988.91 430.716 988.91 430.14V426.5C988.91 425.924 989.044 425.406 989.313 424.946C989.582 424.483 989.946 424.117 990.405 423.848C990.869 423.579 991.389 423.445 991.965 423.445C992.541 423.445 993.059 423.579 993.519 423.848C993.982 424.117 994.348 424.483 994.617 424.946C994.886 425.406 995.02 425.924 995.02 426.5V430.14C995.02 430.716 994.886 431.236 994.617 431.7C994.348 432.159 993.982 432.523 993.519 432.792C993.059 433.061 992.541 433.195 991.965 433.195ZM991.965 432.272C992.351 432.272 992.702 432.179 993.018 431.992C993.334 431.802 993.586 431.548 993.772 431.232C993.958 430.916 994.052 430.567 994.052 430.185V426.454C994.052 426.069 993.958 425.718 993.772 425.401C993.586 425.085 993.334 424.834 993.018 424.647C992.702 424.457 992.351 424.361 991.965 424.361C991.579 424.361 991.228 424.457 990.912 424.647C990.596 424.834 990.344 425.085 990.158 425.401C989.972 425.718 989.879 426.069 989.879 426.454V430.185C989.879 430.567 989.972 430.916 990.158 431.232C990.344 431.548 990.596 431.802 990.912 431.992C991.228 432.179 991.579 432.272 991.965 432.272ZM996.585 432.993L996.591 432.122L1000.82 428.3C1001.19 427.971 1001.43 427.659 1001.54 427.364C1001.67 427.065 1001.73 426.753 1001.73 426.428C1001.73 426.043 1001.64 425.694 1001.45 425.382C1001.27 425.07 1001.03 424.823 1000.72 424.641C1000.41 424.455 1000.07 424.361 999.685 424.361C999.286 424.361 998.931 424.457 998.619 424.647C998.307 424.838 998.06 425.089 997.878 425.401C997.7 425.713 997.614 426.054 997.618 426.422H996.643C996.643 425.854 996.777 425.345 997.046 424.894C997.315 424.444 997.679 424.091 998.138 423.835C998.597 423.575 999.117 423.445 999.698 423.445C1000.27 423.445 1000.77 423.579 1001.23 423.848C1001.68 424.112 1002.04 424.472 1002.3 424.927C1002.56 425.378 1002.69 425.88 1002.69 426.435C1002.69 426.825 1002.65 427.169 1002.55 427.468C1002.46 427.763 1002.32 428.038 1002.12 428.294C1001.92 428.545 1001.67 428.805 1001.37 429.074L997.612 432.467L997.462 432.077H1002.69V432.993H996.585ZM1006.62 423.64H1007.61L1005.11 433H1004.13L1006.62 423.64ZM1012.35 433.195C1011.78 433.195 1011.26 433.061 1010.79 432.792C1010.33 432.523 1009.97 432.159 1009.7 431.7C1009.43 431.236 1009.3 430.716 1009.3 430.14V426.5C1009.3 425.924 1009.43 425.406 1009.7 424.946C1009.97 424.483 1010.33 424.117 1010.79 423.848C1011.26 423.579 1011.78 423.445 1012.35 423.445C1012.93 423.445 1013.45 423.579 1013.91 423.848C1014.37 424.117 1014.74 424.483 1015.01 424.946C1015.27 425.406 1015.41 425.924 1015.41 426.5V430.14C1015.41 430.716 1015.27 431.236 1015.01 431.7C1014.74 432.159 1014.37 432.523 1013.91 432.792C1013.45 433.061 1012.93 433.195 1012.35 433.195ZM1012.35 432.272C1012.74 432.272 1013.09 432.179 1013.41 431.992C1013.72 431.802 1013.97 431.548 1014.16 431.232C1014.35 430.916 1014.44 430.567 1014.44 430.185V426.454C1014.44 426.069 1014.35 425.718 1014.16 425.401C1013.97 425.085 1013.72 424.834 1013.41 424.647C1013.09 424.457 1012.74 424.361 1012.35 424.361C1011.97 424.361 1011.62 424.457 1011.3 424.647C1010.98 424.834 1010.73 425.085 1010.55 425.401C1010.36 425.718 1010.27 426.069 1010.27 426.454V430.185C1010.27 430.567 1010.36 430.916 1010.55 431.232C1010.73 431.548 1010.98 431.802 1011.3 431.992C1011.62 432.179 1011.97 432.272 1012.35 432.272ZM1020.09 433.195C1019.5 433.195 1018.98 433.078 1018.53 432.844C1018.09 432.61 1017.74 432.283 1017.48 431.862C1017.23 431.438 1017.1 430.942 1017.1 430.374C1017.1 429.793 1017.24 429.278 1017.53 428.827C1017.81 428.372 1018.24 428.027 1018.81 427.793L1018.8 428.17C1018.32 427.993 1017.95 427.702 1017.7 427.299C1017.45 426.896 1017.32 426.45 1017.32 425.96C1017.32 425.44 1017.44 424.994 1017.68 424.621C1017.92 424.244 1018.25 423.954 1018.66 423.75C1019.07 423.547 1019.55 423.445 1020.09 423.445C1020.62 423.445 1021.1 423.547 1021.52 423.75C1021.93 423.954 1022.26 424.244 1022.5 424.621C1022.74 424.994 1022.86 425.44 1022.86 425.96C1022.86 426.45 1022.73 426.894 1022.49 427.293C1022.25 427.692 1021.89 427.984 1021.39 428.17L1021.36 427.793C1021.94 428.023 1022.37 428.365 1022.65 428.82C1022.94 429.275 1023.09 429.793 1023.09 430.374C1023.09 430.942 1022.96 431.438 1022.71 431.862C1022.45 432.283 1022.1 432.61 1021.65 432.844C1021.2 433.078 1020.68 433.195 1020.09 433.195ZM1020.09 432.278C1020.68 432.278 1021.15 432.116 1021.52 431.791C1021.89 431.462 1022.08 430.989 1022.08 430.374C1022.08 429.75 1021.89 429.278 1021.53 428.957C1021.17 428.632 1020.68 428.469 1020.09 428.469C1019.49 428.469 1019.01 428.632 1018.65 428.957C1018.29 429.278 1018.11 429.75 1018.11 430.374C1018.11 430.989 1018.29 431.462 1018.66 431.791C1019.02 432.116 1019.5 432.278 1020.09 432.278ZM1020.09 427.546C1020.61 427.546 1021.03 427.414 1021.35 427.15C1021.68 426.881 1021.84 426.485 1021.84 425.96C1021.84 425.436 1021.68 425.044 1021.35 424.784C1021.03 424.52 1020.61 424.387 1020.09 424.387C1019.57 424.387 1019.14 424.52 1018.82 424.784C1018.5 425.044 1018.34 425.436 1018.34 425.96C1018.34 426.485 1018.5 426.881 1018.82 427.15C1019.14 427.414 1019.57 427.546 1020.09 427.546Z" fill="white"/>
<g style="mix-blend-mode:overlay">
<path d="M191.113 234.075C143.061 202.686 63.4297 136.049 32 95V401H1024V251.556C900 227.209 824.522 260.261 783.563 254.664C709.04 244.481 629.294 213.316 471.23 246.506C294.017 283.718 246.845 270.48 191.113 234.075Z" fill="url(#paint0_linear_428_1220)"/>
</g>
<path d="M32 95C63.4297 136.588 143.061 204.1 191.113 235.901C246.845 272.785 294.017 286.196 471.23 248.496C629.294 214.869 709.04 246.444 783.563 256.761C824.522 262.431 900 228.945 1024 253.612" stroke="url(#paint1_linear_428_1220)" stroke-width="2" stroke-linecap="round"/>
<defs>
<linearGradient id="paint0_linear_428_1220" x1="528" y1="95" x2="506.737" y2="400.587" gradientUnits="userSpaceOnUse">
<stop stop-color="white"/>
<stop offset="1" stop-color="white" stop-opacity="0"/>
</linearGradient>
<linearGradient id="paint1_linear_428_1220" x1="32" y1="183.001" x2="1024" y2="183.002" gradientUnits="userSpaceOnUse">
<stop stop-color="#0052CC"/>
<stop offset="1" stop-color="#0099FF"/>
</linearGradient>
</defs>
</svg>
