<svg width="18" height="18" viewBox="0 0 18 18" fill="none" xmlns="http://www.w3.org/2000/svg">
<path d="M8.1106 1.19867H6.53046C2.58013 1.19867 1 2.77881 1 6.72914V11.4695C1 15.4199 2.58013 17 6.53046 17H11.2709C15.2212 17 16.8013 15.4199 16.8013 11.4695V9.8894M11.1999 2.89724C11.7292 4.7855 13.2066 6.26292 15.1028 6.80017M12.0924 2.00436L5.86671 8.23008C5.62969 8.4671 5.39267 8.93324 5.34527 9.27297L5.00554 11.6511C4.87913 12.5122 5.48748 13.1127 6.34865 12.9942L8.72675 12.6544C9.05858 12.607 9.52472 12.37 9.76964 12.133L15.9954 5.90728C17.0699 4.83279 17.5755 3.58449 15.9954 2.00436C14.4152 0.424223 13.1669 0.929865 12.0924 2.00436Z" stroke="white" stroke-width="1.4" stroke-miterlimit="10" stroke-linecap="round" stroke-linejoin="round"/>
</svg>
