<svg width="150" height="25" viewBox="0 0 150 25" fill="none" xmlns="http://www.w3.org/2000/svg">
<path fill-rule="evenodd" clip-rule="evenodd" d="M5.67051 0.86609C5.43109 0.897593 4.99005 0.992101 4.69392 1.08661C4.3978 1.17482 3.94416 1.35123 3.68583 1.48355C3.42751 1.61586 3.08728 1.80487 2.92976 1.91198C2.77225 2.01909 2.48873 2.23961 2.29341 2.40973C2.09809 2.57354 1.81456 2.85707 1.66335 3.02719C1.50584 3.2036 1.26641 3.51233 1.1278 3.72025C0.982889 3.92817 0.793872 4.2432 0.705664 4.41331C0.617456 4.58973 0.478843 4.91106 0.390635 5.13788C0.308728 5.3647 0.182717 5.77423 0.119711 6.05146C0.0126011 6.5114 0 6.83273 0 9.8318C0 12.8057 0.0126011 13.1585 0.119711 13.6436C0.182717 13.9398 0.308728 14.3619 0.390635 14.5887C0.478843 14.8156 0.66156 15.2251 0.806473 15.5023C0.951386 15.7795 1.22861 16.2017 1.42393 16.4474C1.61295 16.6931 1.92797 17.0334 2.11699 17.2035C2.30601 17.3799 2.65884 17.6508 2.90456 17.8146C3.14398 17.9784 3.56612 18.2179 3.84335 18.3439C4.12057 18.4699 4.58681 18.6463 4.88294 18.7408L5.41849 18.8983L21.5479 18.9676C22.0331 19.1881 22.2914 19.3709 22.4363 19.5158C22.5749 19.667 23.0853 20.4546 23.5704 21.2673C24.232 22.3825 24.5407 22.8425 24.8242 23.1323C25.0322 23.3402 25.3472 23.5859 25.5173 23.6868C25.6937 23.7813 26.0151 23.9136 26.2419 23.9766C26.6136 24.09 26.8593 24.1026 28.7936 24.1026C30.6712 24.1026 31.0051 24.0837 31.5028 23.9766C31.8179 23.9136 32.2526 23.7813 32.4794 23.6931C32.7063 23.6048 33.1032 23.4158 33.3615 23.2772C33.6198 23.1323 34.0168 22.874 34.2373 22.6913C34.4641 22.5149 34.817 22.1809 35.0249 21.9478C35.2391 21.721 35.5604 21.2799 35.7431 20.9712C35.9258 20.6688 36.159 20.1899 36.2661 19.9127C36.3732 19.6355 36.5055 19.226 36.5622 18.9991C36.6378 18.6652 36.663 18.0036 36.6819 15.3763C36.7008 13.1774 36.6882 11.9929 36.6378 11.6275C36.6 11.3313 36.4929 10.8651 36.4047 10.5879C36.3165 10.3106 36.1464 9.88851 36.0267 9.64278C35.9132 9.39706 35.7053 9.04423 35.5793 8.85521C35.4533 8.6662 35.1509 8.30076 34.9052 8.04244C34.6657 7.79042 34.3066 7.45649 34.1176 7.31157C33.9286 7.16036 33.5568 6.92724 33.2985 6.78863C33.0402 6.64371 32.6433 6.461 32.4164 6.37279C32.1896 6.29088 31.7927 6.17117 31.5344 6.10816C31.0933 6.00106 30.4759 5.99475 23.0286 5.95695L14.9891 5.92545C14.3527 5.54111 14.1889 5.3773 13.9936 5.07487C13.8424 4.84805 13.3824 4.10458 12.9729 3.41152C12.4688 2.57354 12.1097 2.0443 11.8703 1.80487C11.6813 1.60956 11.3284 1.34493 11.0827 1.21892C10.8433 1.08661 10.4463 0.941697 10.2069 0.891292C9.86669 0.815685 9.35635 0.796783 7.93872 0.796783C6.93693 0.803084 5.90993 0.834587 5.67051 0.86609ZM6.01706 6.22774C5.85954 6.30965 5.64533 6.48607 5.53822 6.62468C5.42481 6.76959 5.3114 7.01531 5.26729 7.21693C5.21689 7.46265 5.19798 8.27543 5.21059 10.0837C5.22949 12.5094 5.23579 12.6165 5.3618 12.8559C5.43741 12.9946 5.62012 13.2151 5.77134 13.3474C5.92255 13.4797 6.14937 13.612 6.26908 13.6435C6.40139 13.6813 8.7074 13.7065 12.0656 13.7065C17.6038 13.7065 17.6479 13.7065 18.1457 13.8451C18.5048 13.9459 18.7883 14.0783 19.1159 14.2988C19.3743 14.4752 19.6767 14.7335 19.7901 14.8721C19.9035 15.0107 20.395 15.792 20.8801 16.6048C21.3715 17.4239 21.8882 18.2051 22.0394 18.3563C22.1969 18.5202 22.4363 18.6777 22.638 18.747C22.9467 18.8667 23.1483 18.873 26.5758 18.873C30.0726 18.873 30.186 18.8667 30.4633 18.7407C30.6208 18.6714 30.7972 18.5643 30.8665 18.5076C30.9295 18.4508 31.0555 18.287 31.15 18.1484L31.3139 17.8964C31.3454 12.8307 31.3391 12.3771 31.2571 12.1629C31.2004 12.0243 31.0681 11.8163 30.9547 11.6966C30.8413 11.5832 30.6334 11.4257 30.4948 11.3501C30.2431 11.218 30.2113 11.2178 24.469 11.1864L24.4462 11.1863L18.6497 11.1548C18.1142 10.9406 17.7865 10.7705 17.5786 10.6318C17.3707 10.4995 17.0809 10.2538 16.9359 10.0774C16.7847 9.90728 16.2681 9.1008 15.7766 8.28803C15.2915 7.47526 14.8001 6.71289 14.6929 6.59948C14.5795 6.48607 14.3464 6.32225 14.1763 6.23404L13.8613 6.08283H6.29428L6.01706 6.22774Z" fill="url(#paint0_linear_315_757)"/>
<path d="M49.2002 23.7262C44.913 23.7262 42.1443 20.7269 42.1443 16.081C42.1443 11.4057 44.9726 8.17125 49.4979 8.17125C51.3437 8.17125 53.1003 8.90636 53.9636 9.99433V1.173L58.5485 3.09807V23.3439H54.2316L53.9934 21.462C53.1896 22.8146 51.3437 23.7262 49.2002 23.7262ZM50.3017 19.5802C52.4453 19.5802 53.9339 18.1099 53.9339 15.9046C53.9339 13.6993 52.4453 12.2291 50.3017 12.2291C48.1284 12.2291 46.7589 13.7287 46.7589 15.9046C46.7589 18.0805 48.1284 19.5802 50.3017 19.5802Z" fill="white"/>
<path d="M65.9809 23.3439H61.3961V8.64172H65.713L66.0107 10.1708C66.9336 8.90636 68.6306 8.17125 70.5658 8.17125C74.1086 8.17125 76.1628 10.406 76.1628 14.258V23.3439H71.578V15.3459C71.578 13.4935 70.536 12.2879 68.9581 12.2879C67.142 12.2879 65.9809 13.464 65.9809 15.2871V23.3439Z" fill="white"/>
<path d="M77.6093 18.698H81.956C82.0155 19.7272 82.7896 20.3447 84.1889 20.3447C85.6179 20.3447 86.2729 19.8448 86.2729 19.0803C86.2729 18.6392 86.0347 18.1688 84.9332 17.9335L82.1942 17.3454C79.4552 16.7573 78.1154 15.5812 78.1154 12.9936C78.1154 9.93552 80.7651 8.17125 84.3377 8.17125C87.7912 8.17125 90.2027 10.1708 90.2027 13.1406H85.8561C85.8561 12.1408 85.2309 11.4645 84.1293 11.4645C83.0873 11.4645 82.4323 11.9938 82.4323 12.7877C82.4323 13.464 82.998 13.8463 84.04 14.0815L86.8088 14.6696C89.25 15.1989 90.5898 16.3163 90.5898 18.6686C90.5898 21.8149 87.8805 23.7262 84.0102 23.7262C80.0804 23.7262 77.6093 21.6679 77.6093 18.698Z" fill="white"/>
<path d="M98.6421 23.7262C94.3549 23.7262 91.5862 20.7269 91.5862 16.081C91.5862 11.4057 94.4145 8.17125 98.9398 8.17125C100.786 8.17125 102.542 8.90636 103.406 9.99433V1.173L107.99 3.09807V23.3439H103.673L103.435 21.462C102.631 22.8146 100.786 23.7262 98.6421 23.7262ZM99.7436 19.5802C101.887 19.5802 103.376 18.1099 103.376 15.9046C103.376 13.6993 101.887 12.2291 99.7436 12.2291C97.5703 12.2291 96.2008 13.7287 96.2008 15.9046C96.2008 18.0805 97.5703 19.5802 99.7436 19.5802Z" fill="white"/>
<path d="M115.334 23.7262C112.178 23.7262 110.213 21.9031 110.213 19.0215C110.213 16.3163 112.148 14.6402 115.721 14.3756L119.889 14.0521V13.8169C119.889 12.3761 118.995 11.6116 117.358 11.6116C115.423 11.6116 114.381 12.3467 114.381 13.6699H110.57C110.57 10.3472 113.339 8.17125 117.596 8.17125C121.913 8.17125 124.354 10.553 124.354 14.7578V23.3439H120.305L120.008 21.4032C119.531 22.7558 117.566 23.7262 115.334 23.7262ZM116.941 20.3741C118.698 20.3741 119.918 19.5214 119.918 17.8453V17.0514L117.596 17.2572C115.601 17.4336 114.887 17.8747 114.887 18.8156C114.887 19.8742 115.542 20.3741 116.941 20.3741Z" fill="white"/>
<path d="M133.299 23.7262C129.012 23.7262 126.243 20.7269 126.243 16.081C126.243 11.4057 129.072 8.17125 133.597 8.17125C135.443 8.17125 137.199 8.90636 138.063 9.99433V1.173L142.648 3.09807V23.3439H138.331L138.093 21.462C137.289 22.8146 135.443 23.7262 133.299 23.7262ZM134.401 19.5802C136.544 19.5802 138.033 18.1099 138.033 15.9046C138.033 13.6993 136.544 12.2291 134.401 12.2291C132.228 12.2291 130.858 13.7287 130.858 15.9046C130.858 18.0805 132.228 19.5802 134.401 19.5802Z" fill="white"/>
<path d="M147.313 23.5787C145.823 23.5787 144.625 22.3762 144.625 20.939C144.625 19.4725 145.823 18.27 147.313 18.27C148.744 18.27 150 19.4725 150 20.939C150 22.3762 148.744 23.5787 147.313 23.5787Z" fill="white"/>
<defs>
<linearGradient id="paint0_linear_315_757" x1="-0.00119725" y1="11.2233" x2="36.6903" y2="11.2229" gradientUnits="userSpaceOnUse">
<stop stop-color="#0052CC"/>
<stop offset="1" stop-color="#0099FF"/>
</linearGradient>
</defs>
</svg>
