<svg width="18" height="18" viewBox="0 0 18 18" fill="none" xmlns="http://www.w3.org/2000/svg">
<path d="M1 9.80019H4.008C4.616 9.80019 5.168 10.1442 5.44 10.6882L6.152 12.1202C6.6 13.0002 7.4 13.0002 7.592 13.0002H10.416C11.024 13.0002 11.576 12.6562 11.848 12.1122L12.56 10.6802C12.832 10.1362 13.384 9.79219 13.992 9.79219H16.984M7.67188 5H10.3359M7 7.4H11M6.6 17H11.4C15.4 17 17 15.4 17 11.4V6.6C17 2.6 15.4 1 11.4 1H6.6C2.6 1 1 2.6 1 6.6V11.4C1 15.4 2.6 17 6.6 17Z" stroke="white" stroke-width="1.4" stroke-linecap="round" stroke-linejoin="round"/>
</svg>
