<svg width="24" height="24" viewBox="0 0 24 24" fill="none" xmlns="http://www.w3.org/2000/svg">
<path d="M18.84 16.12L18.2442 15.7526C18.2412 15.7574 18.2382 15.7623 18.2354 15.7673L18.84 16.12ZM17.26 18L16.8102 17.4637C16.8039 17.4689 16.7978 17.4742 16.7917 17.4797L17.26 18ZM5.16 16.12L5.76169 15.7621L5.75582 15.7526L5.16 16.12ZM7 5.76001L7.4351 6.30836L7.43632 6.30739L7 5.76001ZM11.3 14.1092C11.3 14.4958 11.6134 14.8092 12 14.8092C12.3866 14.8092 12.7 14.4958 12.7 14.1092H11.3ZM12.4839 12.4665L12.3297 11.7837L12.3297 11.7837L12.4839 12.4665ZM14.2206 10.1721L13.5211 10.1982L13.5211 10.1982L14.2206 10.1721ZM12.0866 8.00168L12.0596 8.70116L12.0596 8.70116L12.0866 8.00168ZM9.07779 10.2508C9.07779 10.6374 9.39119 10.9508 9.77779 10.9508C10.1644 10.9508 10.4778 10.6374 10.4778 10.2508H9.07779ZM12.7 15.9848C12.7 15.5982 12.3866 15.2848 12 15.2848C11.6134 15.2848 11.3 15.5982 11.3 15.9848H12.7ZM11.3 16C11.3 16.3866 11.6134 16.7 12 16.7C12.3866 16.7 12.7 16.3866 12.7 16H11.3ZM19.3 12C19.3 13.3688 18.9168 14.6618 18.2442 15.7526L19.4358 16.4874C20.2431 15.1782 20.7 13.6312 20.7 12H19.3ZM18.2354 15.7673C17.8555 16.4185 17.3676 16.9962 16.8102 17.4637L17.7098 18.5363C18.3924 17.9638 18.9845 17.2615 19.4446 16.4727L18.2354 15.7673ZM16.7917 17.4797C15.5189 18.6253 13.8452 19.3 12 19.3V20.7C14.1948 20.7 16.2012 19.8947 17.7283 18.5203L16.7917 17.4797ZM12 19.3C9.33585 19.3 7.02011 17.8779 5.76162 15.7621L4.55839 16.4779C6.0599 19.0021 8.82415 20.7 12 20.7V19.3ZM5.75582 15.7526C5.08315 14.6618 4.7 13.3688 4.7 12H3.3C3.3 13.6312 3.75686 15.1782 4.56418 16.4874L5.75582 15.7526ZM4.7 12C4.7 9.69891 5.75827 7.63889 7.4351 6.30836L6.5649 5.21166C4.56173 6.80113 3.3 9.26109 3.3 12H4.7ZM7.43632 6.30739C8.6988 5.30107 10.2866 4.7 12 4.7V3.3C9.95343 3.3 8.0612 4.01895 6.56368 5.21263L7.43632 6.30739ZM12 4.7C16.0334 4.7 19.3 7.9666 19.3 12H20.7C20.7 7.1934 16.8066 3.3 12 3.3V4.7ZM12.7 14.1092V13.0794H11.3V14.1092H12.7ZM12.7 13.0794C12.7 13.1052 12.6814 13.1395 12.6382 13.1493L12.3297 11.7837C11.7213 11.9212 11.3 12.4646 11.3 13.0794H12.7ZM12.6381 13.1493C13.9881 12.8444 14.9745 11.6009 14.9201 10.1459L13.5211 10.1982C13.5503 10.979 13.0228 11.6272 12.3297 11.7837L12.6381 13.1493ZM14.9201 10.1459C14.8631 8.61877 13.641 7.36119 12.1136 7.3022L12.0596 8.70116C12.8357 8.73113 13.4906 9.38254 13.5211 10.1982L14.9201 10.1459ZM12.1136 7.3022C10.4405 7.23755 9.07779 8.58561 9.07779 10.2508H10.4778C10.4778 9.36098 11.1992 8.66791 12.0596 8.70116L12.1136 7.3022ZM11.3 15.9848V16H12.7V15.9848H11.3Z" fill="white"/>
</svg>
